# Blender v2.92.0 OBJ File: ''
# www.blender.org
mtllib cage.mtl
o Cube_Cube.001
v -0.475000 -0.475000 0.500000
v -0.475000 0.475000 0.500000
v -0.500000 -0.500000 -0.500000
v -0.500000 0.500000 -0.500000
v 0.475000 -0.475000 0.500000
v 0.475000 0.475000 0.500000
v 0.500000 -0.500000 -0.500000
v 0.500000 0.500000 -0.500000
v -0.500000 -0.500000 0.500000
v -0.500000 0.500000 0.500000
v 0.500000 0.500000 0.500000
v 0.500000 -0.500000 0.500000
vt 0.625000 0.000000
vt 0.375000 0.250000
vt 0.375000 0.000000
vt 0.625000 0.250000
vt 0.375000 0.500000
vt 0.625000 0.500000
vt 0.375000 0.750000
vt 0.125000 0.750000
vt 0.125000 0.500000
vt 0.875000 0.500000
vt 0.625000 0.750000
vt 0.618750 0.993750
vt 0.375000 1.000000
vt 0.381250 0.993750
vt 0.381250 0.756250
vt 0.618750 0.756250
vt 0.625000 1.000000
vt 0.875000 0.750000
vn -1.0000 0.0000 0.0000
vn 0.0000 0.0000 -1.0000
vn 1.0000 0.0000 0.0000
vn 0.0000 -1.0000 0.0000
vn 0.0000 1.0000 0.0000
vn 0.0000 0.0000 1.0000
usemtl None
s off
f 10/1/1 3/2/1 9/3/1
f 4/4/2 7/5/2 3/2/2
f 8/6/3 12/7/3 7/5/3
f 7/5/4 9/8/4 3/9/4
f 4/10/5 11/11/5 8/6/5
f 2/12/6 9/13/6 1/14/6
f 5/15/6 11/11/6 6/16/6
f 1/14/6 12/7/6 5/15/6
f 6/16/6 10/17/6 2/12/6
f 10/1/1 4/4/1 3/2/1
f 4/4/2 8/6/2 7/5/2
f 8/6/3 11/11/3 12/7/3
f 7/5/4 12/7/4 9/8/4
f 4/10/5 10/18/5 11/11/5
f 2/12/6 10/17/6 9/13/6
f 5/15/6 12/7/6 11/11/6
f 1/14/6 9/13/6 12/7/6
f 6/16/6 11/11/6 10/17/6
