# Blender 3.1.0
# www.blender.org
mtllib casing.mtl
o Cylinder
v -0.000000 1.698971 -2.070600
v 0.403954 0.000000 -2.030814
v -0.000000 0.000000 -2.070600
v 0.403954 1.698971 -2.030814
v 0.792384 0.000000 -1.912985
v 0.792384 1.698971 -1.912984
v 1.150364 0.000000 -1.721641
v 1.150364 1.698971 -1.721641
v 1.464136 0.000000 -1.464136
v 1.464136 1.698971 -1.464136
v 1.721641 0.000000 -1.150364
v 1.721641 1.698971 -1.150364
v 1.912985 0.000000 -0.792384
v 1.912985 1.698971 -0.792384
v 2.030814 0.000000 -0.403954
v 2.030814 1.698971 -0.403954
v 2.070600 -0.000000 0.000000
v 2.070600 1.698971 0.000000
v 2.030814 -0.000000 0.403954
v 2.030814 1.698971 0.403954
v 1.912986 -0.000000 0.792384
v 1.912986 1.698971 0.792384
v 1.721641 -0.000000 1.150364
v 1.721641 1.698971 1.150364
v 1.464136 -0.000000 1.464136
v 1.464136 1.698971 1.464136
v 1.150364 -0.000000 1.721641
v 1.150364 1.698971 1.721641
v 0.792385 -0.000000 1.912985
v 0.792385 1.698971 1.912985
v 0.403954 -0.000000 2.030814
v 0.403954 1.698971 2.030814
v -0.000000 -0.000000 2.070600
v -0.000000 1.698971 2.070600
v -0.403954 -0.000000 2.030814
v -0.403954 1.698971 2.030814
v -0.792384 -0.000000 1.912985
v -0.792384 1.698971 1.912985
v -1.150364 -0.000000 1.721641
v -1.150364 1.698971 1.721641
v -1.464136 -0.000000 1.464136
v -1.464136 1.698971 1.464136
v -1.721641 -0.000000 1.150364
v -1.721641 1.698971 1.150364
v -1.912986 -0.000000 0.792385
v -1.912986 1.698971 0.792385
v -2.030814 -0.000000 0.403954
v -2.030814 1.698971 0.403954
v -2.070600 -0.000000 0.000000
v -2.070600 1.698971 0.000000
v -2.030814 0.000000 -0.403954
v -2.030814 1.698971 -0.403954
v -1.912985 0.000000 -0.792385
v -1.912985 1.698971 -0.792385
v -1.721641 0.000000 -1.150364
v -1.721641 1.698971 -1.150364
v -1.464136 0.000000 -1.464136
v -1.464136 1.698971 -1.464136
v -1.150364 0.000000 -1.721641
v -1.150364 1.698971 -1.721641
v -0.792384 0.000000 -1.912986
v -0.584036 2.000000 0.874071
v -0.743336 0.187214 0.743336
v -0.743336 2.000000 0.743336
v -0.792384 1.698971 -1.912985
v -0.403954 0.000000 -2.030814
v -0.403954 1.698971 -2.030814
v 0.205086 2.000000 -1.031037
v 0.000000 2.000000 -1.051236
v 0.402291 2.000000 -0.971215
v 0.584035 2.000000 -0.874071
v 0.743336 2.000000 -0.743336
v 0.874071 2.000000 -0.584035
v 0.971215 2.000000 -0.402291
v 1.051236 2.000000 0.000000
v 1.031037 2.000000 -0.205086
v 1.031037 2.000000 0.205086
v 0.971215 2.000000 0.402291
v 0.874071 2.000000 0.584035
v 0.743336 2.000000 0.743336
v 0.584035 2.000000 0.874071
v 0.402291 2.000000 0.971215
v 0.000000 2.000000 1.051236
v 0.205086 2.000000 1.031037
v -0.205086 2.000000 1.031037
v -0.402290 2.000000 0.971215
v -0.874071 2.000000 0.584036
v -1.031037 2.000000 0.205086
v -0.971215 2.000000 0.402291
v -1.031037 2.000000 -0.205086
v -1.051236 2.000000 0.000000
v -0.971215 2.000000 -0.402291
v -0.874071 2.000000 -0.584035
v -0.743336 2.000000 -0.743336
v -0.584035 2.000000 -0.874071
v -0.402291 2.000000 -0.971215
v -0.205086 2.000000 -1.031037
v -0.402291 0.187214 0.971215
v 0.971215 0.187214 0.402291
v 0.402290 0.187214 -0.971215
v 1.031036 0.187214 -0.205086
v -0.874071 0.187214 0.584036
v 1.051236 0.187214 0.000000
v -0.971215 0.187214 0.402291
v 1.031036 0.187214 0.205086
v -1.031037 0.187214 0.205086
v -1.051236 0.187214 0.000000
v 0.874071 0.187214 0.584035
v -1.031037 0.187214 -0.205086
v 0.743336 0.187214 0.743336
v -0.971215 0.187214 -0.402291
v 0.584035 0.187214 0.874071
v -0.874071 0.187214 -0.584035
v 0.402290 0.187214 0.971215
v 0.205086 0.187214 -1.031037
v -0.743336 0.187214 -0.743336
v 0.205086 0.187214 1.031037
v -0.584036 0.187214 -0.874071
v 0.000000 0.187214 1.051236
v 0.584035 0.187214 -0.874071
v -0.402291 0.187214 -0.971215
v -0.205086 0.187214 1.031037
v 0.743336 0.187214 -0.743336
v -0.205086 0.187214 -1.031037
v 0.874071 0.187214 -0.584035
v 0.000000 0.187214 -1.051236
v -0.584036 0.187214 0.874071
v 0.971215 0.187214 -0.402291
vn -0.0000 -0.0000 -1.0000
vn 0.1951 -0.0000 -0.9808
vn 0.3827 -0.0000 -0.9239
vn 0.5556 -0.0000 -0.8315
vn 0.7071 -0.0000 -0.7071
vn 0.8315 -0.0000 -0.5556
vn 0.9239 -0.0000 -0.3827
vn 0.9808 -0.0000 -0.1951
vn 1.0000 -0.0000 -0.0000
vn 0.9808 -0.0000 0.1951
vn 0.9239 -0.0000 0.3827
vn 0.8315 -0.0000 0.5556
vn 0.7071 -0.0000 0.7071
vn 0.5556 -0.0000 0.8315
vn 0.3827 -0.0000 0.9239
vn 0.1951 -0.0000 0.9808
vn -0.0000 -0.0000 1.0000
vn -0.1951 -0.0000 0.9808
vn -0.3827 -0.0000 0.9239
vn -0.5556 -0.0000 0.8315
vn -0.7071 -0.0000 0.7071
vn -0.8315 -0.0000 0.5556
vn -0.9239 -0.0000 0.3827
vn -0.9808 -0.0000 0.1951
vn -1.0000 -0.0000 -0.0000
vn -0.9808 -0.0000 -0.1951
vn -0.9239 -0.0000 -0.3827
vn -0.8315 -0.0000 -0.5556
vn -0.7071 -0.0000 -0.7071
vn -0.5556 -0.0000 -0.8315
vn -0.3827 -0.0000 -0.9239
vn -0.1951 -0.0000 -0.9808
vn -0.0000 -1.0000 -0.0000
vn 0.0553 0.9591 -0.2778
vn -0.0000 0.9591 -0.2832
vn 0.1084 0.9591 -0.2617
vn 0.1573 0.9591 -0.2355
vn 0.2003 0.9591 -0.2003
vn 0.2355 0.9591 -0.1573
vn 0.2617 0.9591 -0.1084
vn 0.2778 0.9591 -0.0553
vn 0.2832 0.9591 -0.0000
vn 0.2778 0.9591 0.0553
vn 0.2617 0.9591 0.1084
vn 0.2355 0.9591 0.1573
vn 0.2003 0.9591 0.2003
vn 0.1573 0.9591 0.2355
vn 0.1084 0.9591 0.2617
vn 0.0553 0.9591 0.2778
vn -0.0000 0.9591 0.2832
vn -0.0553 0.9591 0.2778
vn -0.1084 0.9591 0.2617
vn -0.1573 0.9591 0.2355
vn -0.2003 0.9591 0.2003
vn -0.2355 0.9591 0.1573
vn -0.2617 0.9591 0.1084
vn -0.2778 0.9591 0.0553
vn -0.2832 0.9591 -0.0000
vn -0.2778 0.9591 -0.0553
vn -0.2617 0.9591 -0.1084
vn -0.2355 0.9591 -0.1573
vn -0.2003 0.9591 -0.2003
vn -0.1573 0.9591 -0.2355
vn -0.1084 0.9591 -0.2617
vn -0.0553 0.9591 -0.2778
vn -0.0000 1.0000 -0.0000
vt 1.000000 1.000000
vt 0.000000 1.000000
vt 0.250000 0.490000
vt 0.968750 0.500000
vt 0.796822 0.485388
vt 1.000000 0.500000
vt 0.000000 0.500000
vt 0.750000 0.490000
vt 0.968750 1.000000
vt 0.296822 0.485388
vt 0.937500 0.500000
vt 0.841844 0.471731
vt 0.937500 1.000000
vt 0.341844 0.471731
vt 0.906250 0.500000
vt 0.883337 0.449553
vt 0.906250 1.000000
vt 0.383337 0.449553
vt 0.875000 0.500000
vt 0.919706 0.419706
vt 0.875000 1.000000
vt 0.419706 0.419706
vt 0.843750 0.500000
vt 0.949553 0.383337
vt 0.843750 1.000000
vt 0.449553 0.383337
vt 0.812500 0.500000
vt 0.971731 0.341844
vt 0.812500 1.000000
vt 0.471731 0.341844
vt 0.781250 0.500000
vt 0.985388 0.296822
vt 0.781250 1.000000
vt 0.485388 0.296822
vt 0.750000 0.500000
vt 0.990000 0.250000
vt 0.750000 1.000000
vt 0.490000 0.250000
vt 0.718750 0.500000
vt 0.985388 0.203178
vt 0.718750 1.000000
vt 0.485388 0.203178
vt 0.687500 0.500000
vt 0.971731 0.158156
vt 0.687500 1.000000
vt 0.471731 0.158156
vt 0.656250 0.500000
vt 0.949553 0.116663
vt 0.656250 1.000000
vt 0.449553 0.116663
vt 0.625000 0.500000
vt 0.919706 0.080294
vt 0.625000 1.000000
vt 0.419706 0.080294
vt 0.593750 0.500000
vt 0.883337 0.050447
vt 0.593750 1.000000
vt 0.383337 0.050447
vt 0.562500 0.500000
vt 0.841844 0.028269
vt 0.562500 1.000000
vt 0.341844 0.028269
vt 0.531250 0.500000
vt 0.796822 0.014612
vt 0.531250 1.000000
vt 0.296822 0.014612
vt 0.500000 0.500000
vt 0.750000 0.010000
vt 0.500000 1.000000
vt 0.250000 0.010000
vt 0.468750 0.500000
vt 0.703178 0.014612
vt 0.468750 1.000000
vt 0.203178 0.014612
vt 0.437500 0.500000
vt 0.658156 0.028269
vt 0.437500 1.000000
vt 0.158156 0.028269
vt 0.406250 0.500000
vt 0.616663 0.050447
vt 0.406250 1.000000
vt 0.116663 0.050447
vt 0.375000 0.500000
vt 0.580294 0.080294
vt 0.375000 1.000000
vt 0.080294 0.080294
vt 0.343750 0.500000
vt 0.550447 0.116663
vt 0.343750 1.000000
vt 0.050447 0.116663
vt 0.312500 0.500000
vt 0.528269 0.158156
vt 0.312500 1.000000
vt 0.028269 0.158156
vt 0.281250 0.500000
vt 0.514612 0.203178
vt 0.281250 1.000000
vt 0.014612 0.203178
vt 0.250000 0.500000
vt 0.510000 0.250000
vt 0.250000 1.000000
vt 0.010000 0.250000
vt 0.218750 0.500000
vt 0.514612 0.296822
vt 0.218750 1.000000
vt 0.014612 0.296822
vt 0.187500 0.500000
vt 0.528269 0.341844
vt 0.187500 1.000000
vt 0.028269 0.341844
vt 0.156250 0.500000
vt 0.550447 0.383337
vt 0.156250 1.000000
vt 0.050447 0.383337
vt 0.125000 0.500000
vt 0.580294 0.419706
vt 0.125000 1.000000
vt 0.080294 0.419706
vt 0.093750 0.500000
vt 0.616663 0.449553
vt 0.093750 1.000000
vt 0.116663 0.449553
vt 0.062500 0.500000
vt 0.658156 0.471731
vt 0.157974 0.112273
vt 0.132873 0.132873
vt 0.132873 0.132873
vt 0.062500 1.000000
vt 0.158156 0.471731
vt 0.031250 0.500000
vt 0.703178 0.485388
vt 0.031250 1.000000
vt 0.203178 0.485388
vt 0.282315 0.412460
vt 0.250000 0.415642
vt 0.313389 0.403034
vt 0.342026 0.387727
vt 0.367127 0.367127
vt 0.387727 0.342026
vt 0.403034 0.313389
vt 0.415642 0.250000
vt 0.412460 0.282315
vt 0.412460 0.217685
vt 0.403034 0.186611
vt 0.387727 0.157974
vt 0.367127 0.132873
vt 0.342026 0.112273
vt 0.313389 0.096966
vt 0.250000 0.084358
vt 0.282315 0.087540
vt 0.217685 0.087540
vt 0.186611 0.096966
vt 0.112273 0.157974
vt 0.087540 0.217685
vt 0.096966 0.186611
vt 0.087540 0.282315
vt 0.084358 0.250000
vt 0.096966 0.313389
vt 0.112273 0.342026
vt 0.132873 0.367127
vt 0.157974 0.387726
vt 0.186611 0.403033
vt 0.217685 0.412460
vt 0.186611 0.096966
vt 0.403034 0.186611
vt 0.313389 0.403034
vt 0.412460 0.282315
vt 0.112273 0.157974
vt 0.415642 0.250000
vt 0.096966 0.186611
vt 0.412460 0.217685
vt 0.087540 0.217685
vt 0.084358 0.250000
vt 0.387727 0.157974
vt 0.087540 0.282315
vt 0.367127 0.132873
vt 0.096966 0.313389
vt 0.342026 0.112273
vt 0.112273 0.342026
vt 0.313389 0.096966
vt 0.282315 0.412460
vt 0.132873 0.367127
vt 0.282315 0.087540
vt 0.157974 0.387726
vt 0.250000 0.084358
vt 0.342026 0.387727
vt 0.186611 0.403033
vt 0.217685 0.087540
vt 0.367127 0.367127
vt 0.217685 0.412460
vt 0.387727 0.342026
vt 0.250000 0.415642
vt 0.157974 0.112273
vt 0.403034 0.313389
s 1
usemtl black.001
f 1/1/1 2/4/2 3/6/1
f 4/9/2 5/11/3 2/4/2
f 6/13/3 7/15/4 5/11/3
f 8/17/4 9/19/5 7/15/4
f 10/21/5 11/23/6 9/19/5
f 12/25/6 13/27/7 11/23/6
f 14/29/7 15/31/8 13/27/7
f 16/33/8 17/35/9 15/31/8
f 18/37/9 19/39/10 17/35/9
f 20/41/10 21/43/11 19/39/10
f 22/45/11 23/47/12 21/43/11
f 24/49/12 25/51/13 23/47/12
f 26/53/13 27/55/14 25/51/13
f 28/57/14 29/59/15 27/55/14
f 30/61/15 31/63/16 29/59/15
f 32/65/16 33/67/17 31/63/16
f 34/69/17 35/71/18 33/67/17
f 36/73/18 37/75/19 35/71/18
f 38/77/19 39/79/20 37/75/19
f 40/81/20 41/83/21 39/79/20
f 42/85/21 43/87/22 41/83/21
f 44/89/22 45/91/23 43/87/22
f 46/93/23 47/95/24 45/91/23
f 48/97/24 49/99/25 47/95/24
f 50/101/25 51/103/26 49/99/25
f 52/105/26 53/107/27 51/103/26
f 54/109/27 55/111/28 53/107/27
f 56/113/28 57/115/29 55/111/28
f 58/117/29 59/119/30 57/115/29
f 60/121/30 61/123/31 59/119/30
f 62/125/4 63/126/5 64/127/5
f 65/128/31 66/130/32 61/123/31
f 67/132/32 3/7/1 66/130/32
f 31/64/33 47/96/33 66/131/33
f 68/134/34 1/3/35 69/135/35
f 70/136/36 4/10/34 68/134/34
f 71/137/37 6/14/36 70/136/36
f 72/138/38 8/18/37 71/137/37
f 73/139/39 10/22/38 72/138/38
f 74/140/40 12/26/39 73/139/39
f 74/140/40 16/34/41 14/30/40
f 75/141/42 16/34/41 76/142/41
f 77/143/43 18/38/42 75/141/42
f 78/144/44 20/42/43 77/143/43
f 79/145/45 22/46/44 78/144/44
f 80/146/46 24/50/45 79/145/45
f 81/147/47 26/54/46 80/146/46
f 81/147/47 30/62/48 28/58/47
f 82/148/48 32/66/49 30/62/48
f 83/149/50 32/66/49 84/150/49
f 85/151/51 34/70/50 83/149/50
f 86/152/52 36/74/51 85/151/51
f 62/125/53 38/78/52 86/152/52
f 64/127/54 40/82/53 62/125/53
f 87/153/55 42/86/54 64/127/54
f 87/153/55 46/94/56 44/90/55
f 88/154/57 46/94/56 89/155/56
f 88/154/57 50/102/58 48/98/57
f 90/156/59 50/102/58 91/157/58
f 92/158/60 52/106/59 90/156/59
f 93/159/61 54/110/60 92/158/60
f 94/160/62 56/114/61 93/159/61
f 95/161/63 58/118/62 94/160/62
f 95/161/63 65/129/64 60/122/63
f 96/162/64 67/133/65 65/129/64
f 97/163/65 1/3/35 67/133/65
f 98/164/66 99/165/66 100/166/66
f 74/140/23 101/167/24 76/142/24
f 64/127/5 102/168/6 87/153/6
f 76/142/24 103/169/25 75/141/25
f 87/153/6 104/170/7 89/155/7
f 75/141/25 105/171/26 77/143/26
f 89/155/7 106/172/8 88/154/8
f 77/143/26 99/165/27 78/144/27
f 88/154/8 107/173/9 91/157/9
f 78/144/27 108/174/28 79/145/28
f 90/156/10 107/173/9 109/175/10
f 79/145/28 110/176/29 80/146/29
f 90/156/10 111/177/11 92/158/11
f 80/146/29 112/178/30 81/147/30
f 92/158/11 113/179/12 93/159/12
f 81/147/30 114/180/31 82/148/31
f 69/135/17 115/181/18 68/134/18
f 93/159/12 116/182/13 94/160/13
f 82/148/31 117/183/32 84/150/32
f 68/134/18 100/166/19 70/136/19
f 94/160/13 118/184/14 95/161/14
f 84/150/32 119/185/1 83/149/1
f 70/136/19 120/186/20 71/137/20
f 95/161/14 121/187/15 96/162/15
f 83/149/1 122/188/2 85/151/2
f 71/137/20 123/189/21 72/138/21
f 96/162/15 124/190/16 97/163/16
f 86/152/3 122/188/2 98/164/3
f 72/138/21 125/191/22 73/139/22
f 69/135/17 124/190/16 126/192/17
f 86/152/3 127/193/4 62/125/4
f 73/139/22 128/194/23 74/140/23
f 1/1/1 4/9/2 2/4/2
f 4/9/2 6/13/3 5/11/3
f 6/13/3 8/17/4 7/15/4
f 8/17/4 10/21/5 9/19/5
f 10/21/5 12/25/6 11/23/6
f 12/25/6 14/29/7 13/27/7
f 14/29/7 16/33/8 15/31/8
f 16/33/8 18/37/9 17/35/9
f 18/37/9 20/41/10 19/39/10
f 20/41/10 22/45/11 21/43/11
f 22/45/11 24/49/12 23/47/12
f 24/49/12 26/53/13 25/51/13
f 26/53/13 28/57/14 27/55/14
f 28/57/14 30/61/15 29/59/15
f 30/61/15 32/65/16 31/63/16
f 32/65/16 34/69/17 33/67/17
f 34/69/17 36/73/18 35/71/18
f 36/73/18 38/77/19 37/75/19
f 38/77/19 40/81/20 39/79/20
f 40/81/20 42/85/21 41/83/21
f 42/85/21 44/89/22 43/87/22
f 44/89/22 46/93/23 45/91/23
f 46/93/23 48/97/24 47/95/24
f 48/97/24 50/101/25 49/99/25
f 50/101/25 52/105/26 51/103/26
f 52/105/26 54/109/27 53/107/27
f 54/109/27 56/113/28 55/111/28
f 56/113/28 58/117/29 57/115/29
f 58/117/29 60/121/30 59/119/30
f 60/121/30 65/128/31 61/123/31
f 62/125/4 127/193/4 63/126/5
f 65/128/31 67/132/32 66/130/32
f 67/132/32 1/2/1 3/7/1
f 66/131/33 3/8/33 2/5/33
f 2/5/33 5/12/33 7/16/33
f 7/16/33 9/20/33 11/24/33
f 11/24/33 13/28/33 15/32/33
f 15/32/33 17/36/33 19/40/33
f 19/40/33 21/44/33 23/48/33
f 23/48/33 25/52/33 27/56/33
f 27/56/33 29/60/33 31/64/33
f 31/64/33 33/68/33 35/72/33
f 35/72/33 37/76/33 39/80/33
f 39/80/33 41/84/33 43/88/33
f 43/88/33 45/92/33 47/96/33
f 47/96/33 49/100/33 51/104/33
f 51/104/33 53/108/33 55/112/33
f 55/112/33 57/116/33 59/120/33
f 59/120/33 61/124/33 66/131/33
f 66/131/33 2/5/33 7/16/33
f 7/16/33 11/24/33 15/32/33
f 15/32/33 19/40/33 23/48/33
f 23/48/33 27/56/33 31/64/33
f 31/64/33 35/72/33 39/80/33
f 39/80/33 43/88/33 47/96/33
f 47/96/33 51/104/33 55/112/33
f 55/112/33 59/120/33 66/131/33
f 66/131/33 7/16/33 15/32/33
f 15/32/33 23/48/33 31/64/33
f 31/64/33 39/80/33 47/96/33
f 47/96/33 55/112/33 66/131/33
f 66/131/33 15/32/33 31/64/33
f 68/134/34 4/10/34 1/3/35
f 70/136/36 6/14/36 4/10/34
f 71/137/37 8/18/37 6/14/36
f 72/138/38 10/22/38 8/18/37
f 73/139/39 12/26/39 10/22/38
f 74/140/40 14/30/40 12/26/39
f 74/140/40 76/142/41 16/34/41
f 75/141/42 18/38/42 16/34/41
f 77/143/43 20/42/43 18/38/42
f 78/144/44 22/46/44 20/42/43
f 79/145/45 24/50/45 22/46/44
f 80/146/46 26/54/46 24/50/45
f 81/147/47 28/58/47 26/54/46
f 81/147/47 82/148/48 30/62/48
f 82/148/48 84/150/49 32/66/49
f 83/149/50 34/70/50 32/66/49
f 85/151/51 36/74/51 34/70/50
f 86/152/52 38/78/52 36/74/51
f 62/125/53 40/82/53 38/78/52
f 64/127/54 42/86/54 40/82/53
f 87/153/55 44/90/55 42/86/54
f 87/153/55 89/155/56 46/94/56
f 88/154/57 48/98/57 46/94/56
f 88/154/57 91/157/58 50/102/58
f 90/156/59 52/106/59 50/102/58
f 92/158/60 54/110/60 52/106/59
f 93/159/61 56/114/61 54/110/60
f 94/160/62 58/118/62 56/114/61
f 95/161/63 60/122/63 58/118/62
f 95/161/63 96/162/64 65/129/64
f 96/162/64 97/163/65 67/133/65
f 97/163/65 69/135/35 1/3/35
f 100/166/66 115/181/66 126/192/66
f 126/192/66 124/190/66 121/187/66
f 121/187/66 118/184/66 116/182/66
f 116/182/66 113/179/66 111/177/66
f 111/177/66 109/175/66 107/173/66
f 107/173/66 106/172/66 104/170/66
f 104/170/66 102/168/66 63/126/66
f 63/126/66 127/193/66 98/164/66
f 98/164/66 122/188/66 119/185/66
f 119/185/66 117/183/66 114/180/66
f 114/180/66 112/178/66 110/176/66
f 110/176/66 108/174/66 99/165/66
f 99/165/66 105/171/66 103/169/66
f 103/169/66 101/167/66 128/194/66
f 128/194/66 125/191/66 123/189/66
f 123/189/66 120/186/66 100/166/66
f 100/166/66 126/192/66 121/187/66
f 121/187/66 116/182/66 111/177/66
f 111/177/66 107/173/66 104/170/66
f 104/170/66 63/126/66 98/164/66
f 98/164/66 119/185/66 114/180/66
f 114/180/66 110/176/66 99/165/66
f 99/165/66 103/169/66 128/194/66
f 128/194/66 123/189/66 100/166/66
f 100/166/66 121/187/66 111/177/66
f 111/177/66 104/170/66 98/164/66
f 98/164/66 114/180/66 99/165/66
f 99/165/66 128/194/66 100/166/66
f 100/166/66 111/177/66 98/164/66
f 74/140/23 128/194/23 101/167/24
f 64/127/5 63/126/5 102/168/6
f 76/142/24 101/167/24 103/169/25
f 87/153/6 102/168/6 104/170/7
f 75/141/25 103/169/25 105/171/26
f 89/155/7 104/170/7 106/172/8
f 77/143/26 105/171/26 99/165/27
f 88/154/8 106/172/8 107/173/9
f 78/144/27 99/165/27 108/174/28
f 90/156/10 91/157/9 107/173/9
f 79/145/28 108/174/28 110/176/29
f 90/156/10 109/175/10 111/177/11
f 80/146/29 110/176/29 112/178/30
f 92/158/11 111/177/11 113/179/12
f 81/147/30 112/178/30 114/180/31
f 69/135/17 126/192/17 115/181/18
f 93/159/12 113/179/12 116/182/13
f 82/148/31 114/180/31 117/183/32
f 68/134/18 115/181/18 100/166/19
f 94/160/13 116/182/13 118/184/14
f 84/150/32 117/183/32 119/185/1
f 70/136/19 100/166/19 120/186/20
f 95/161/14 118/184/14 121/187/15
f 83/149/1 119/185/1 122/188/2
f 71/137/20 120/186/20 123/189/21
f 96/162/15 121/187/15 124/190/16
f 86/152/3 85/151/2 122/188/2
f 72/138/21 123/189/21 125/191/22
f 69/135/17 97/163/16 124/190/16
f 86/152/3 98/164/3 127/193/4
f 73/139/22 125/191/22 128/194/23
