# Blender v2.92.0 OBJ File: ''
# www.blender.org
mtllib combination.mtl
o Circle
v 0.000000 -0.487441 -0.500000
v -0.293893 -0.487441 -0.404509
v -0.475528 -0.487441 -0.154508
v -0.475528 -0.487441 0.154509
v -0.293893 -0.487441 0.404509
v 0.000000 -0.487441 0.500000
v 0.293893 -0.487441 0.404508
v 0.475528 -0.487441 0.154509
v 0.475528 -0.487441 -0.154509
v 0.293893 -0.487441 -0.404509
v 0.000000 0.487441 -0.500000
v -0.293893 0.487441 -0.404509
v -0.475528 0.487441 -0.154508
v -0.475528 0.487441 0.154509
v -0.293893 0.487441 0.404509
v 0.000000 0.487441 0.500000
v 0.293893 0.487441 0.404508
v 0.475528 0.487441 0.154509
v 0.475528 0.487441 -0.154509
v 0.293893 0.487441 -0.404509
vt 0.762637 0.122481
vt 0.712229 0.277622
vt 0.549104 0.277622
vt 0.560823 0.369853
vt 0.774356 0.524994
vt 0.642385 0.620876
vt 0.085183 0.200058
vt 0.239189 0.300039
vt 0.085183 0.300039
vt 0.085183 0.500000
vt 0.239189 0.599981
vt 0.085183 0.599981
vt 0.085183 0.799942
vt 0.239189 0.899923
vt 0.085183 0.899923
vt 0.085183 0.100077
vt 0.239189 0.200058
vt 0.085183 0.400019
vt 0.239189 0.500000
vt 0.085183 0.699961
vt 0.239189 0.799942
vt 0.085183 0.000097
vt 0.239189 0.100077
vt 0.239189 0.400019
vt 0.239189 0.699961
vt 0.239189 0.999903
vt 0.085183 0.999903
vt 0.498696 0.122481
vt 0.549104 0.053100
vt 0.630666 0.026599
vt 0.712229 0.053100
vt 0.762637 0.208241
vt 0.630666 0.304123
vt 0.498696 0.208241
vt 0.560823 0.594375
vt 0.510415 0.524994
vt 0.510414 0.439234
vt 0.642385 0.343352
vt 0.723948 0.369853
vt 0.774356 0.439234
vt 0.723948 0.594375
vt 0.239189 0.000097
vn 0.0000 -1.0000 0.0000
vn 0.0000 1.0000 0.0000
vn -1.0000 0.0000 0.0000
vn 0.3090 0.0000 -0.9511
vn 0.8090 0.0000 0.5878
vn -0.8090 0.0000 0.5878
vn -0.3090 0.0000 -0.9511
vn 1.0000 0.0000 0.0000
vn -0.3090 0.0000 0.9511
vn -0.8090 0.0000 -0.5878
vn 0.8090 0.0000 -0.5878
vn 0.3090 0.0000 0.9511
usemtl Material
s off
f 9/1/1 7/2/1 5/3/1
f 15/4/2 19/5/2 11/6/2
f 4/7/3 13/8/3 3/9/3
f 1/10/4 20/11/4 10/12/4
f 8/13/5 17/14/5 7/15/5
f 5/16/6 14/17/6 4/7/6
f 2/18/7 11/19/7 1/10/7
f 9/20/8 18/21/8 8/13/8
f 6/22/9 15/23/9 5/16/9
f 3/9/10 12/24/10 2/18/10
f 10/12/11 19/25/11 9/20/11
f 7/15/12 16/26/12 6/27/12
f 3/28/1 2/29/1 1/30/1
f 1/30/1 10/31/1 9/1/1
f 9/1/1 8/32/1 7/2/1
f 7/2/1 6/33/1 5/3/1
f 5/3/1 4/34/1 3/28/1
f 3/28/1 1/30/1 5/3/1
f 1/30/1 9/1/1 5/3/1
f 11/6/2 12/35/2 13/36/2
f 13/36/2 14/37/2 11/6/2
f 14/37/2 15/4/2 11/6/2
f 15/4/2 16/38/2 17/39/2
f 17/39/2 18/40/2 19/5/2
f 19/5/2 20/41/2 11/6/2
f 15/4/2 17/39/2 19/5/2
f 4/7/3 14/17/3 13/8/3
f 1/10/4 11/19/4 20/11/4
f 8/13/5 18/21/5 17/14/5
f 5/16/6 15/23/6 14/17/6
f 2/18/7 12/24/7 11/19/7
f 9/20/8 19/25/8 18/21/8
f 6/22/9 16/42/9 15/23/9
f 3/9/10 13/8/10 12/24/10
f 10/12/11 20/11/11 19/25/11
f 7/15/12 17/14/12 16/26/12
