# Blender v2.79 (sub 0) OBJ File: 'dial.blend'
# www.blender.org
mtllib dial.mtl
o Cylinder
v 0.000000 -1.000000 0.400000
v 0.000000 -1.000000 -0.400000
v 0.587785 -0.809017 0.400000
v 0.587785 -0.809017 -0.400000
v 0.951057 -0.309017 0.400000
v 0.951057 -0.309017 -0.400000
v 0.951056 0.309017 0.400000
v 0.951056 0.309017 -0.400000
v 0.587785 0.809017 0.400000
v 0.587785 0.809017 -0.400000
v -0.000000 1.000000 0.400000
v -0.000000 1.000000 -0.400000
v -0.587785 0.809017 0.400000
v -0.587785 0.809017 -0.400000
v -0.951056 0.309017 0.400000
v -0.951056 0.309017 -0.400000
v -0.951056 -0.309017 0.400000
v -0.951056 -0.309017 -0.400000
v -0.587785 -0.809017 0.400000
v -0.587785 -0.809017 -0.400000
vt 0.323649 0.699952
vt 0.000120 0.799928
vt 0.000120 0.699952
vt 0.323649 0.799928
vt 0.000120 0.899904
vt 0.323649 0.999880
vt 0.000120 0.999880
vt 0.323649 0.000120
vt 0.000120 0.100096
vt 0.000120 0.000120
vt 0.323649 0.100096
vt 0.000120 0.200072
vt 0.323649 0.200072
vt 0.000120 0.300048
vt 0.323649 0.400024
vt 0.000120 0.400024
vt 0.000120 0.500000
vt 0.572819 0.292755
vt 0.323889 0.111897
vt 0.477736 0.000120
vt 0.323649 0.500000
vt 0.000120 0.599976
vt 0.323649 0.599976
vt 0.354783 0.572819
vt 0.535642 0.323889
vt 0.647418 0.477736
vt 0.323649 0.899904
vt 0.323649 0.300048
vt 0.572819 0.031014
vt 0.631584 0.111896
vt 0.631584 0.211872
vt 0.477736 0.323649
vt 0.382654 0.292755
vt 0.323889 0.211873
vt 0.382654 0.031014
vt 0.616524 0.572819
vt 0.535642 0.631583
vt 0.435666 0.631583
vt 0.323889 0.477736
vt 0.354783 0.382653
vt 0.435666 0.323889
vt 0.616524 0.382653
vn 0.3090 -0.9511 0.0000
vn 0.8090 -0.5878 0.0000
vn 1.0000 0.0000 -0.0000
vn 0.8090 0.5878 0.0000
vn 0.3090 0.9511 0.0000
vn -0.3090 0.9511 0.0000
vn -0.8090 0.5878 -0.0000
vn -1.0000 0.0000 0.0000
vn 0.0000 -0.0000 -1.0000
vn -0.8090 -0.5878 0.0000
vn -0.3090 -0.9511 0.0000
vn -0.0000 0.0000 1.0000
usemtl None
s off
f 2/1/1 3/2/1 1/3/1
f 4/4/2 5/5/2 3/2/2
f 5/5/3 8/6/3 7/7/3
f 8/8/4 9/9/4 7/10/4
f 10/11/5 11/12/5 9/9/5
f 12/13/6 13/14/6 11/12/6
f 13/14/7 16/15/7 15/16/7
f 16/15/8 17/17/8 15/16/8
f 18/18/9 10/19/9 6/20/9
f 18/21/10 19/22/10 17/17/10
f 20/23/11 1/3/11 19/22/11
f 7/24/12 15/25/12 19/26/12
f 2/1/1 4/4/1 3/2/1
f 4/4/2 6/27/2 5/5/2
f 5/5/3 6/27/3 8/6/3
f 8/8/4 10/11/4 9/9/4
f 10/11/5 12/13/5 11/12/5
f 12/13/6 14/28/6 13/14/6
f 13/14/7 14/28/7 16/15/7
f 16/15/8 18/21/8 17/17/8
f 6/20/9 4/29/9 18/18/9
f 2/30/9 20/31/9 18/18/9
f 18/18/9 16/32/9 14/33/9
f 14/33/9 12/34/9 18/18/9
f 10/19/9 8/35/9 6/20/9
f 4/29/9 2/30/9 18/18/9
f 18/18/9 12/34/9 10/19/9
f 18/21/10 20/23/10 19/22/10
f 20/23/11 2/1/11 1/3/11
f 19/26/12 1/36/12 3/37/12
f 3/37/12 5/38/12 7/24/12
f 7/24/12 9/39/12 15/25/12
f 11/40/12 13/41/12 15/25/12
f 15/25/12 17/42/12 19/26/12
f 19/26/12 3/37/12 7/24/12
f 9/39/12 11/40/12 15/25/12
