# Blender v2.79 (sub 0) OBJ File: 'gear.blend'
# www.blender.org
mtllib gear-tooth.mtl
o Gear.001
v -0.047121 -0.094356 0.063451
v -0.044665 -0.095134 0.001097
v -0.047107 -0.095794 -0.061259
v 0.041991 -0.096136 0.001116
v 0.039405 -0.095318 0.066752
v 0.039421 -0.096831 -0.064522
v 0.082617 -0.077465 0.054649
v 0.084269 -0.078124 0.000916
v 0.082630 -0.078704 -0.052818
v -0.042562 0.095794 0.061259
v -0.040105 0.095016 -0.001095
v 0.043964 0.094832 0.064560
v 0.046551 0.094014 -0.001076
v -0.042547 0.094356 -0.063451
v 0.086265 0.074655 0.052895
v 0.086278 0.073416 -0.054571
v 0.043980 0.093319 -0.066714
v 0.087916 0.073996 -0.000837
vn -0.0116 -0.9999 0.0120
vn -0.0116 -0.9999 0.0115
vn -0.0116 -0.9999 0.0110
vn 0.3923 -0.9196 0.0226
vn 0.3929 -0.9193 0.0221
vn 0.3919 -0.9197 0.0233
vn 0.3922 -0.9199 -0.0002
vn 0.3917 -0.9201 -0.0009
vn 0.3920 -0.9200 -0.0020
vn 0.0116 0.9999 -0.0120
vn 0.0116 0.9999 -0.0115
vn 0.0116 0.9999 -0.0110
vn 0.4359 0.9000 0.0016
vn 0.4365 0.8997 0.0011
vn 0.4318 0.9019 0.0058
vn 0.4359 0.8998 -0.0212
vn 0.4354 0.9000 -0.0219
vn 0.4318 0.9016 -0.0265
vn -0.0380 0.0124 0.9992
vn 0.2679 0.0047 0.9634
vn 0.9992 -0.0236 0.0310
vn 0.9992 -0.0243 -0.0302
vn 0.2683 -0.0175 -0.9632
vn -0.0378 -0.0106 -0.9992
vn 0.3881 -0.9212 0.0268
vn 0.3881 -0.9216 -0.0054
vn 0.4356 0.9001 0.0023
vn 0.4356 0.8999 -0.0230
usemtl (null)
s 1
f 1//1 4//2 5//1
f 2//2 6//3 4//2
f 7//4 4//5 8//6
f 4//7 9//8 8//9
f 12//10 11//11 10//10
f 13//11 14//12 11//11
f 15//13 13//14 12//15
f 13//16 16//17 17//18
f 1//19 12//19 10//19
f 5//20 15//20 12//20
f 7//21 18//21 15//21
f 8//22 16//22 18//22
f 9//23 17//23 16//23
f 6//24 14//24 17//24
f 1//1 2//2 4//2
f 2//2 3//3 6//3
f 7//4 5//25 4//5
f 4//7 6//26 9//8
f 12//10 13//11 11//11
f 13//11 17//12 14//12
f 15//13 18//27 13//14
f 13//16 18//28 16//17
f 1//19 5//19 12//19
f 5//20 7//20 15//20
f 7//21 8//21 18//21
f 8//22 9//22 16//22
f 9//23 6//23 17//23
f 6//24 3//24 14//24
