<?xml version="1.0" encoding="UTF-8" standalone="no"?>
<!-- Created with Inkscape (http://www.inkscape.org/) -->

<svg
   xmlns:dc="http://purl.org/dc/elements/1.1/"
   xmlns:cc="http://creativecommons.org/ns#"
   xmlns:rdf="http://www.w3.org/1999/02/22-rdf-syntax-ns#"
   xmlns:svg="http://www.w3.org/2000/svg"
   xmlns="http://www.w3.org/2000/svg"
   xmlns:sodipodi="http://sodipodi.sourceforge.net/DTD/sodipodi-0.dtd"
   xmlns:inkscape="http://www.inkscape.org/namespaces/inkscape"
   width="121.63122mm"
   height="7.9073792mm"
   viewBox="0 0 121.63122 7.9073792"
   version="1.1"
   id="svg8"
   inkscape:version="0.92.5 (2060ec1f9f, 2020-04-08)"
   sodipodi:docname="graph-menu.svg">
  <defs
     id="defs2" />
  <sodipodi:namedview
     id="base"
     pagecolor="#ffffff"
     bordercolor="#666666"
     borderopacity="1.0"
     inkscape:pageopacity="0.0"
     inkscape:pageshadow="2"
     inkscape:zoom="0.7"
     inkscape:cx="179.59945"
     inkscape:cy="-0.11278701"
     inkscape:document-units="mm"
     inkscape:current-layer="layer2"
     showgrid="false"
     inkscape:snap-global="false"
     inkscape:window-width="1366"
     inkscape:window-height="731"
     inkscape:window-x="0"
     inkscape:window-y="0"
     inkscape:window-maximized="1"
     fit-margin-top="0"
     fit-margin-left="0"
     fit-margin-right="0"
     fit-margin-bottom="0"
     inkscape:pagecheckerboard="true" />
  <metadata
     id="metadata5">
    <rdf:RDF>
      <cc:Work
         rdf:about="">
        <dc:format>image/svg+xml</dc:format>
        <dc:type
           rdf:resource="http://purl.org/dc/dcmitype/StillImage" />
        <dc:title></dc:title>
      </cc:Work>
    </rdf:RDF>
  </metadata>
  <g
     inkscape:groupmode="layer"
     id="layer2"
     inkscape:label="background"
     style="display:none">
    <rect
       style="opacity:1;fill:#000000;fill-opacity:1;stroke:none;stroke-width:0.72397828;stroke-miterlimit:4;stroke-dasharray:none;stroke-opacity:1"
       id="rect861"
       width="121.63123"
       height="7.9073792"
       x="0"
       y="1.1080729e-07" />
  </g>
  <g
     inkscape:label="Layer 1"
     inkscape:groupmode="layer"
     id="layer1"
     transform="translate(-14.027717,-256.29041)">
    <g
       aria-label="move set x set y add delete run select toggle view lengths"
       transform="matrix(0.08466326,0,0,0.08466326,55.531457,179.48169)"
       style="font-style:normal;font-weight:normal;font-size:40px;line-height:1.25;font-family:sans-serif;letter-spacing:0px;word-spacing:0px;fill:#ffffff;fill-opacity:1;stroke:none;stroke-width:3.12512565"
       id="flowRoot863">
      <path
         d="m 774.92578,935.58984 h 3.59375 v 30.39063 h -3.59375 z"
         style="fill:#ff0000;stroke-width:3.12512565"
         id="path951"
         inkscape:connector-curvature="0" />
      <path
         d="m 804.73047,954.14453 v 1.75781 h -16.52344 q 0.23438,3.71094 2.22656,5.66407 2.01172,1.93359 5.58594,1.93359 2.07031,0 4.00391,-0.50781 1.95312,-0.50782 3.86718,-1.52344 v 3.39844 q -1.93359,0.82031 -3.96484,1.25 -2.03125,0.42968 -4.12109,0.42968 -5.23438,0 -8.30078,-3.04687 -3.04688,-3.04688 -3.04688,-8.24219 0,-5.37109 2.89063,-8.51562 2.91015,-3.16407 7.83203,-3.16407 4.41406,0 6.97265,2.85157 2.57813,2.83203 2.57813,7.71484 z m -3.59375,-1.05469 q -0.0391,-2.94922 -1.66016,-4.70703 -1.60156,-1.75781 -4.25781,-1.75781 -3.00781,0 -4.82422,1.69922 -1.79687,1.69922 -2.07031,4.78515 z"
         style="fill:#ffffff;stroke-width:3.12512565"
         id="path953"
         inkscape:connector-curvature="0" />
      <path
         d="m 828.8125,952.77734 v 13.20313 h -3.59375 v -13.08594 q 0,-3.10547 -1.21094,-4.64844 -1.21094,-1.54297 -3.63281,-1.54297 -2.91016,0 -4.58984,1.85547 -1.67969,1.85547 -1.67969,5.0586 v 12.36328 h -3.61328 v -21.875 h 3.61328 v 3.39844 q 1.28906,-1.97266 3.02734,-2.94922 1.75781,-0.97657 4.04297,-0.97657 3.76953,0 5.70313,2.34375 1.93359,2.32422 1.93359,6.85547 z"
         style="fill:#ffffff;stroke-width:3.12512565"
         id="path955"
         inkscape:connector-curvature="0" />
      <path
         d="m 850.41406,954.78906 q 0,-3.90625 -1.62109,-6.05469 -1.60156,-2.14843 -4.51172,-2.14843 -2.89063,0 -4.51172,2.14843 -1.60156,2.14844 -1.60156,6.05469 0,3.88672 1.60156,6.03516 1.62109,2.14844 4.51172,2.14844 2.91016,0 4.51172,-2.14844 1.62109,-2.14844 1.62109,-6.03516 z m 3.59375,8.47656 q 0,5.58594 -2.48047,8.30079 -2.48047,2.73437 -7.59765,2.73437 -1.89453,0 -3.57422,-0.29297 -1.67969,-0.27344 -3.26172,-0.85937 v -3.4961 q 1.58203,0.85938 3.125,1.26953 1.54297,0.41016 3.14453,0.41016 3.53516,0 5.29297,-1.85547 1.75781,-1.83594 1.75781,-5.5664 v -1.77735 q -1.11328,1.9336 -2.85156,2.89063 -1.73828,0.95703 -4.16016,0.95703 -4.02343,0 -6.48437,-3.06641 -2.46094,-3.0664 -2.46094,-8.125 0,-5.07812 2.46094,-8.14453 2.46094,-3.06641 6.48437,-3.06641 2.42188,0 4.16016,0.95704 1.73828,0.95703 2.85156,2.89062 v -3.32031 h 3.59375 z"
         style="fill:#ffffff;stroke-width:3.12512565"
         id="path957"
         inkscape:connector-curvature="0" />
      <path
         d="m 864.96484,937.89453 v 6.21094 h 7.40235 v 2.79297 h -7.40235 v 11.875 q 0,2.67578 0.72266,3.4375 0.74219,0.76172 2.98828,0.76172 h 3.69141 v 3.00781 h -3.69141 q -4.16016,0 -5.74219,-1.54297 -1.58203,-1.5625 -1.58203,-5.66406 v -11.875 h -2.63672 v -2.79297 h 2.63672 v -6.21094 z"
         style="fill:#ffffff;stroke-width:3.12512565"
         id="path959"
         inkscape:connector-curvature="0" />
      <path
         d="m 895.29687,952.77734 v 13.20313 h -3.59375 v -13.08594 q 0,-3.10547 -1.21093,-4.64844 -1.21094,-1.54297 -3.63282,-1.54297 -2.91015,0 -4.58984,1.85547 -1.67969,1.85547 -1.67969,5.0586 v 12.36328 h -3.61328 v -30.39063 h 3.61328 v 11.91407 q 1.28907,-1.97266 3.02735,-2.94922 1.75781,-0.97657 4.04297,-0.97657 3.76953,0 5.70312,2.34375 1.93359,2.32422 1.93359,6.85547 z"
         style="fill:#ffffff;stroke-width:3.12512565"
         id="path961"
         inkscape:connector-curvature="0" />
      <path
         d="m 916.44922,944.75 v 3.39844 q -1.52344,-0.78125 -3.16406,-1.17188 -1.64063,-0.39062 -3.39844,-0.39062 -2.67578,0 -4.02344,0.82031 -1.32812,0.82031 -1.32812,2.46094 0,1.25 0.95703,1.97265 0.95703,0.70313 3.84765,1.34766 l 1.23047,0.27344 q 3.82813,0.82031 5.42969,2.32422 1.62109,1.48437 1.62109,4.16015 0,3.04688 -2.42187,4.82422 -2.40235,1.77734 -6.6211,1.77734 -1.75781,0 -3.67187,-0.35156 -1.89453,-0.33203 -4.00391,-1.01562 v -3.71094 q 1.99219,1.03516 3.92578,1.5625 1.9336,0.50781 3.82813,0.50781 2.53906,0 3.90625,-0.85937 1.36719,-0.87891 1.36719,-2.46094 0,-1.46484 -0.9961,-2.24609 -0.97656,-0.78125 -4.3164,-1.50391 l -1.25,-0.29297 q -3.33985,-0.70312 -4.82422,-2.14844 -1.48438,-1.46484 -1.48438,-4.0039 0,-3.08594 2.1875,-4.76563 2.1875,-1.67969 6.21094,-1.67969 1.99219,0 3.75,0.29297 1.75781,0.29297 3.24219,0.87891 z"
         style="fill:#ffffff;stroke-width:3.12512565"
         id="path963"
         inkscape:connector-curvature="0" />
    </g>
    <g
       id="g1032"
       transform="translate(1.8322076,87.073924)">
      <path
         id="path871"
         style="font-style:normal;font-weight:normal;font-size:40px;line-height:1.25;font-family:sans-serif;letter-spacing:0px;word-spacing:0px;fill:#ff0000;fill-opacity:1;stroke:none;stroke-width:0.26458332"
         d="m 16.730709,172.74889 q 0.114096,-0.20505 0.27284,-0.30261 0.158744,-0.0976 0.37371,-0.0976 0.289375,0 0.446465,0.20339 0.15709,0.20174 0.15709,0.57545 v 1.11782 h -0.305912 v -1.1079 q 0,-0.26623 -0.09425,-0.39521 -0.09425,-0.12898 -0.287723,-0.12898 -0.236461,0 -0.373708,0.15709 -0.137247,0.15709 -0.137247,0.42828 v 1.04672 h -0.305913 v -1.1079 q 0,-0.26788 -0.09425,-0.39521 -0.09425,-0.12898 -0.29103,-0.12898 -0.233154,0 -0.370402,0.15875 -0.137246,0.15709 -0.137246,0.42662 v 1.04672 h -0.30592 v -1.85201 h 0.305912 v 0.28772 q 0.104175,-0.17032 0.24969,-0.25134 0.145515,-0.081 0.345598,-0.081 0.201737,0 0.342291,0.10252 0.142208,0.10252 0.210005,0.29765 z"
         inkscape:connector-curvature="0" />
      <path
         id="path873"
         style="font-style:normal;font-weight:normal;font-size:40px;line-height:1.25;font-family:sans-serif;letter-spacing:0px;word-spacing:0px;fill:#ffffff;fill-opacity:1;stroke:none;stroke-width:0.26458332"
         d="m 19.306985,172.60668 q -0.244729,0 -0.386937,0.19181 -0.142209,0.19017 -0.142209,0.52254 0,0.33236 0.140555,0.52418 0.142208,0.19016 0.388591,0.19016 0.243077,0 0.385285,-0.19181 0.142207,-0.19182 0.142207,-0.52253 0,-0.32907 -0.142207,-0.52088 -0.142208,-0.19347 -0.385285,-0.19347 z m 0,-0.25796 q 0.396859,0 0.6234,0.25796 0.22654,0.25796 0.22654,0.71435 0,0.45473 -0.22654,0.71434 -0.226541,0.25796 -0.6234,0.25796 -0.398513,0 -0.625053,-0.25796 -0.224887,-0.25961 -0.224887,-0.71434 0,-0.45639 0.224887,-0.71435 0.22654,-0.25796 0.625053,-0.25796 z"
         inkscape:connector-curvature="0" />
      <path
         id="path875"
         style="font-style:normal;font-weight:normal;font-size:40px;line-height:1.25;font-family:sans-serif;letter-spacing:0px;word-spacing:0px;fill:#ffffff;fill-opacity:1;stroke:none;stroke-width:0.26458332"
         d="m 20.44134,172.39337 h 0.322449 l 0.578752,1.55436 0.578753,-1.55436 h 0.322448 l -0.694503,1.85201 h -0.413395 z"
         inkscape:connector-curvature="0" />
      <path
         id="path877"
         style="font-style:normal;font-weight:normal;font-size:40px;line-height:1.25;font-family:sans-serif;letter-spacing:0px;word-spacing:0px;fill:#ffffff;fill-opacity:1;stroke:none;stroke-width:0.26458332"
         d="m 24.24788,173.24331 v 0.14882 h -1.398928 q 0.01984,0.31418 0.188508,0.47954 0.170319,0.1637 0.472924,0.1637 0.175279,0 0.338984,-0.043 0.165357,-0.043 0.327409,-0.12898 v 0.28772 q -0.163705,0.0694 -0.335677,0.10583 -0.171973,0.0364 -0.348905,0.0364 -0.44316,0 -0.702771,-0.25796 -0.257959,-0.25796 -0.257959,-0.69781 0,-0.45473 0.24473,-0.72096 0.246383,-0.26788 0.663085,-0.26788 0.373709,0 0.590327,0.24142 0.218273,0.23977 0.218273,0.65317 z m -0.304258,-0.0893 q -0.0033,-0.24969 -0.140555,-0.39851 -0.135593,-0.14882 -0.36048,-0.14882 -0.254651,0 -0.408434,0.14386 -0.152129,0.14386 -0.175279,0.40513 z"
         inkscape:connector-curvature="0" />
    </g>
    <rect
       style="opacity:1;fill:#666666;fill-opacity:1;stroke:none;stroke-width:0.76499999;stroke-miterlimit:4;stroke-dasharray:none;stroke-opacity:1"
       id="rect990"
       width="0.46772167"
       height="5.6126599"
       x="28.493509"
       y="257.50458" />
    <g
       id="g1062"
       transform="translate(4.2362277,86.934524)">
      <path
         inkscape:connector-curvature="0"
         id="path879"
         style="font-style:normal;font-weight:normal;font-size:40px;line-height:1.25;font-family:sans-serif;letter-spacing:0px;word-spacing:0px;fill:#ffffff;fill-opacity:1;stroke:none;stroke-width:0.26458332"
         d="m 28.525451,172.53277 v 0.28773 q -0.128979,-0.0661 -0.26788,-0.0992 -0.1389,-0.0331 -0.287723,-0.0331 -0.22654,0 -0.340636,0.0694 -0.112444,0.0695 -0.112444,0.20834 0,0.10583 0.08103,0.16702 0.08103,0.0595 0.325756,0.11409 l 0.104175,0.0232 q 0.324101,0.0694 0.459695,0.19677 0.137247,0.12567 0.137247,0.35221 0,0.25796 -0.205044,0.40843 -0.20339,0.15048 -0.560563,0.15048 -0.148822,0 -0.310873,-0.0298 -0.160398,-0.0281 -0.338984,-0.086 v -0.31418 q 0.168666,0.0876 0.33237,0.13229 0.163704,0.043 0.324101,0.043 0.214966,0 0.330716,-0.0728 0.11575,-0.0744 0.11575,-0.20835 0,-0.12402 -0.08433,-0.19016 -0.08268,-0.0662 -0.365441,-0.12732 l -0.105829,-0.0248 q -0.282762,-0.0595 -0.408434,-0.18189 -0.125672,-0.12402 -0.125672,-0.33898 0,-0.26127 0.185201,-0.40348 0.185201,-0.14221 0.525838,-0.14221 0.168665,0 0.317488,0.0248 0.148821,0.0248 0.274493,0.0744 z" />
      <path
         inkscape:connector-curvature="0"
         id="path881"
         style="font-style:normal;font-weight:normal;font-size:40px;line-height:1.25;font-family:sans-serif;letter-spacing:0px;word-spacing:0px;fill:#ffffff;fill-opacity:1;stroke:none;stroke-width:0.26458332"
         d="m 30.694947,173.32814 v 0.14883 H 29.29602 q 0.01984,0.31418 0.188507,0.47954 0.170319,0.1637 0.472924,0.1637 0.17528,0 0.338984,-0.043 0.165358,-0.043 0.327409,-0.12898 v 0.28772 q -0.163705,0.0694 -0.335677,0.10583 -0.171973,0.0364 -0.348905,0.0364 -0.443159,0 -0.702772,-0.25796 -0.257958,-0.25796 -0.257958,-0.69781 0,-0.45474 0.24473,-0.72096 0.246383,-0.26788 0.663085,-0.26788 0.373709,0 0.590328,0.24142 0.218272,0.23977 0.218272,0.65316 z m -0.304258,-0.0893 q -0.0033,-0.2497 -0.140554,-0.39852 -0.135594,-0.14882 -0.360481,-0.14882 -0.254651,0 -0.408434,0.14386 -0.152129,0.14387 -0.17528,0.40513 z" />
      <path
         inkscape:connector-curvature="0"
         id="path883"
         style="font-style:normal;font-weight:normal;font-size:40px;line-height:1.25;font-family:sans-serif;letter-spacing:0px;word-spacing:0px;fill:#ffffff;fill-opacity:1;stroke:none;stroke-width:0.26458332"
         d="m 31.49528,171.95237 v 0.52584 h 0.626706 v 0.23646 H 31.49528 v 1.00538 q 0,0.22653 0.06118,0.29103 0.06284,0.0645 0.252999,0.0645 h 0.312525 v 0.25465 H 31.80946 q -0.352212,0 -0.486152,-0.13064 -0.13394,-0.13228 -0.13394,-0.47953 v -1.00538 h -0.223233 v -0.23646 h 0.223233 v -0.52584 z" />
      <path
         inkscape:connector-curvature="0"
         id="path885"
         style="font-style:normal;font-weight:normal;font-size:40px;line-height:1.25;font-family:sans-serif;letter-spacing:0px;word-spacing:0px;fill:#ff0000;fill-opacity:1;stroke:none;stroke-width:0.26458332"
         d="m 35.141422,172.4782 -0.6697,0.90121 0.704425,0.9508 H 34.81732 l -0.539066,-0.72757 -0.539068,0.72757 H 33.38036 l 0.719307,-0.96899 -0.658124,-0.88302 h 0.358826 l 0.491113,0.65978 0.491113,-0.65978 z" />
    </g>
    <g
       id="g1092"
       transform="translate(8.4986291,86.934524)">
      <path
         inkscape:connector-curvature="0"
         id="path887"
         style="font-style:normal;font-weight:normal;font-size:40px;line-height:1.25;font-family:sans-serif;letter-spacing:0px;word-spacing:0px;fill:#ffffff;fill-opacity:1;stroke:none;stroke-width:0.26458332"
         d="m 37.864867,172.53277 v 0.28773 q -0.128979,-0.0662 -0.26788,-0.0992 -0.1389,-0.0331 -0.287722,-0.0331 -0.226541,0 -0.340638,0.0694 -0.112443,0.0695 -0.112443,0.20835 0,0.10583 0.08103,0.16701 0.08103,0.0595 0.325756,0.1141 l 0.104175,0.0232 q 0.324102,0.0694 0.459695,0.19677 0.137247,0.12568 0.137247,0.35222 0,0.25796 -0.205044,0.40843 -0.20339,0.15048 -0.560563,0.15048 -0.148822,0 -0.310873,-0.0298 -0.160397,-0.0281 -0.338984,-0.086 v -0.31418 q 0.168665,0.0876 0.33237,0.13228 0.163704,0.043 0.324101,0.043 0.214966,0 0.330716,-0.0728 0.115751,-0.0744 0.115751,-0.20835 0,-0.12402 -0.08433,-0.19016 -0.08268,-0.0662 -0.365442,-0.12733 l -0.105829,-0.0248 q -0.282762,-0.0595 -0.408434,-0.1819 -0.125672,-0.12402 -0.125672,-0.33898 0,-0.26127 0.185201,-0.40348 0.185201,-0.1422 0.525838,-0.1422 0.168665,0 0.317487,0.0248 0.148822,0.0248 0.274494,0.0744 z" />
      <path
         inkscape:connector-curvature="0"
         id="path889"
         style="font-style:normal;font-weight:normal;font-size:40px;line-height:1.25;font-family:sans-serif;letter-spacing:0px;word-spacing:0px;fill:#ffffff;fill-opacity:1;stroke:none;stroke-width:0.26458332"
         d="m 40.034363,173.32814 v 0.14883 h -1.398928 q 0.01984,0.31418 0.188508,0.47953 0.170319,0.16371 0.472924,0.16371 0.175279,0 0.338984,-0.043 0.165358,-0.043 0.327408,-0.12898 v 0.28772 q -0.163704,0.0694 -0.335676,0.10583 -0.171972,0.0364 -0.348905,0.0364 -0.44316,0 -0.702772,-0.25796 -0.257958,-0.25796 -0.257958,-0.69781 0,-0.45474 0.24473,-0.72096 0.246383,-0.26788 0.663085,-0.26788 0.373709,0 0.590328,0.24142 0.218272,0.23977 0.218272,0.65316 z m -0.304258,-0.0893 q -0.0033,-0.24969 -0.140555,-0.39851 -0.135593,-0.14882 -0.36048,-0.14882 -0.254651,0 -0.408434,0.14386 -0.152129,0.14386 -0.175279,0.40512 z" />
      <path
         inkscape:connector-curvature="0"
         id="path891"
         style="font-style:normal;font-weight:normal;font-size:40px;line-height:1.25;font-family:sans-serif;letter-spacing:0px;word-spacing:0px;fill:#ffffff;fill-opacity:1;stroke:none;stroke-width:0.26458332"
         d="m 40.834696,171.95237 v 0.52583 h 0.626706 v 0.23647 h -0.626706 v 1.00537 q 0,0.22654 0.06118,0.29103 0.06284,0.0645 0.252997,0.0645 H 41.4614 v 0.25465 h -0.312527 q -0.352213,0 -0.486153,-0.13063 -0.13394,-0.13229 -0.13394,-0.47954 v -1.00537 h -0.22323 v -0.23647 h 0.223233 v -0.52583 z" />
      <path
         inkscape:connector-curvature="0"
         id="path893"
         style="font-style:normal;font-weight:normal;font-size:40px;line-height:1.25;font-family:sans-serif;letter-spacing:0px;word-spacing:0px;fill:#ff0000;fill-opacity:1;stroke:none;stroke-width:0.26458332"
         d="m 43.711924,174.50219 q -0.128979,0.33071 -0.251345,0.43158 -0.122364,0.10087 -0.327408,0.10087 h -0.243076 v -0.25465 h 0.178586 q 0.125672,0 0.195123,-0.0595 0.06945,-0.0595 0.153783,-0.28111 l 0.05457,-0.1389 -0.749071,-1.82225 h 0.322448 l 0.578753,1.44854 0.578753,-1.44854 h 0.322448 z" />
    </g>
    <g
       id="g1118"
       transform="translate(12.286402,86.934524)">
      <path
         inkscape:connector-curvature="0"
         id="path895"
         style="font-style:normal;font-weight:normal;font-size:40px;line-height:1.25;font-family:sans-serif;letter-spacing:0px;word-spacing:0px;fill:#ff0000;fill-opacity:1;stroke:none;stroke-width:0.26458332"
         d="m 46.865301,173.39925 q -0.368749,0 -0.510957,0.0843 -0.142207,0.0843 -0.142207,0.28772 0,0.16205 0.105829,0.25796 0.107482,0.0943 0.29103,0.0943 0.252998,0 0.405126,-0.17859 0.153784,-0.18024 0.153784,-0.47788 v -0.0678 z m 0.606863,-0.12567 v 1.05663 h -0.304258 v -0.28111 q -0.104176,0.16867 -0.259613,0.24969 -0.155436,0.0794 -0.380323,0.0794 -0.284415,0 -0.453081,-0.15875 -0.167011,-0.16039 -0.167011,-0.42827 0,-0.31253 0.208351,-0.47127 0.210005,-0.15875 0.625053,-0.15875 h 0.426624 v -0.0298 q 0,-0.21001 -0.138901,-0.3241 -0.137247,-0.11575 -0.386938,-0.11575 -0.158743,0 -0.309219,0.038 -0.150476,0.038 -0.289377,0.11409 v -0.2811 q 0.167012,-0.0645 0.324102,-0.0959 0.15709,-0.0331 0.305912,-0.0331 0.40182,0 0.60025,0.20835 0.198429,0.20835 0.198429,0.63167 z" />
      <path
         inkscape:connector-curvature="0"
         id="path897"
         style="font-style:normal;font-weight:normal;font-size:40px;line-height:1.25;font-family:sans-serif;letter-spacing:0px;word-spacing:0px;fill:#ffffff;fill-opacity:1;stroke:none;stroke-width:0.26458332"
         d="m 49.319212,172.75931 v -1.00207 h 0.304258 v 2.57297 h -0.304258 v -0.2778 q -0.09591,0.16536 -0.243076,0.24638 -0.145515,0.0794 -0.350559,0.0794 -0.335677,0 -0.547335,-0.26788 -0.210004,-0.26788 -0.210004,-0.70443 0,-0.43654 0.210004,-0.70442 0.211658,-0.26788 0.547335,-0.26788 0.205044,0 0.350559,0.081 0.147168,0.0794 0.243076,0.24473 z m -1.036794,0.64655 q 0,0.33568 0.137247,0.52749 0.138901,0.19017 0.380323,0.19017 0.241422,0 0.380324,-0.19017 0.1389,-0.19181 0.1389,-0.52749 0,-0.33567 -0.1389,-0.52584 -0.138902,-0.19181 -0.380324,-0.19181 -0.241422,0 -0.380323,0.19181 -0.137247,0.19017 -0.137247,0.52584 z" />
      <path
         inkscape:connector-curvature="0"
         id="path899"
         style="font-style:normal;font-weight:normal;font-size:40px;line-height:1.25;font-family:sans-serif;letter-spacing:0px;word-spacing:0px;fill:#ffffff;fill-opacity:1;stroke:none;stroke-width:0.26458332"
         d="m 51.468865,172.75931 v -1.00207 h 0.304259 v 2.57297 h -0.304259 v -0.2778 q -0.09591,0.16536 -0.243076,0.24638 -0.145515,0.0794 -0.350559,0.0794 -0.335677,0 -0.547335,-0.26788 -0.210004,-0.26788 -0.210004,-0.70443 0,-0.43654 0.210004,-0.70442 0.211658,-0.26788 0.547335,-0.26788 0.205044,0 0.350559,0.081 0.147168,0.0794 0.243076,0.24473 z m -1.036795,0.64655 q 0,0.33568 0.137248,0.52749 0.1389,0.19017 0.380323,0.19017 0.241423,0 0.380323,-0.19017 0.138901,-0.19181 0.138901,-0.52749 0,-0.33567 -0.138901,-0.52584 -0.1389,-0.19181 -0.380323,-0.19181 -0.241423,0 -0.380323,0.19181 -0.137248,0.19017 -0.137248,0.52584 z" />
    </g>
    <g
       id="g1156"
       transform="translate(15.674076,86.934524)">
      <path
         inkscape:connector-curvature="0"
         id="path901"
         style="font-style:normal;font-weight:normal;font-size:40px;line-height:1.25;font-family:sans-serif;letter-spacing:0px;word-spacing:0px;fill:#ff0000;fill-opacity:1;stroke:none;stroke-width:0.26458332"
         d="m 54.696652,172.75931 v -1.00207 h 0.304259 v 2.57297 h -0.304259 v -0.2778 q -0.09591,0.16536 -0.243077,0.24638 -0.145515,0.0794 -0.350558,0.0794 -0.335677,0 -0.547335,-0.26788 -0.210004,-0.26788 -0.210004,-0.70443 0,-0.43654 0.210004,-0.70442 0.211658,-0.26788 0.547335,-0.26788 0.205043,0 0.350558,0.081 0.147169,0.0794 0.243077,0.24473 z m -1.036795,0.64655 q 0,0.33568 0.137248,0.52749 0.1389,0.19017 0.380323,0.19017 0.241423,0 0.380323,-0.19017 0.138901,-0.19181 0.138901,-0.52749 0,-0.33567 -0.138901,-0.52584 -0.1389,-0.19181 -0.380323,-0.19181 -0.241423,0 -0.380323,0.19181 -0.137248,0.19017 -0.137248,0.52584 z" />
      <path
         inkscape:connector-curvature="0"
         id="path903"
         style="font-style:normal;font-weight:normal;font-size:40px;line-height:1.25;font-family:sans-serif;letter-spacing:0px;word-spacing:0px;fill:#ffffff;fill-opacity:1;stroke:none;stroke-width:0.26458332"
         d="m 57.211746,173.32814 v 0.14883 h -1.398928 q 0.01984,0.31418 0.188508,0.47953 0.170318,0.16371 0.472923,0.16371 0.17528,0 0.338985,-0.043 0.165357,-0.043 0.327408,-0.12898 v 0.28772 q -0.163704,0.0694 -0.335677,0.10583 -0.171972,0.0364 -0.348905,0.0364 -0.443159,0 -0.702771,-0.25796 -0.257958,-0.25796 -0.257958,-0.69781 0,-0.45474 0.24473,-0.72096 0.246383,-0.26788 0.663085,-0.26788 0.373709,0 0.590327,0.24142 0.218273,0.23977 0.218273,0.65316 z m -0.304259,-0.0893 q -0.0033,-0.24969 -0.140554,-0.39851 -0.135593,-0.14882 -0.36048,-0.14882 -0.254651,0 -0.408434,0.14386 -0.152129,0.14386 -0.175279,0.40512 z" />
      <path
         inkscape:connector-curvature="0"
         id="path905"
         style="font-style:normal;font-weight:normal;font-size:40px;line-height:1.25;font-family:sans-serif;letter-spacing:0px;word-spacing:0px;fill:#ffffff;fill-opacity:1;stroke:none;stroke-width:0.26458332"
         d="m 57.711127,171.75724 h 0.304259 v 2.57297 h -0.304259 z" />
      <path
         inkscape:connector-curvature="0"
         id="path907"
         style="font-style:normal;font-weight:normal;font-size:40px;line-height:1.25;font-family:sans-serif;letter-spacing:0px;word-spacing:0px;fill:#ffffff;fill-opacity:1;stroke:none;stroke-width:0.26458332"
         d="m 60.234489,173.32814 v 0.14883 h -1.398928 q 0.01984,0.31418 0.188508,0.47953 0.170319,0.16371 0.472924,0.16371 0.175279,0 0.338983,-0.043 0.165358,-0.043 0.327409,-0.12898 v 0.28772 q -0.163704,0.0694 -0.335676,0.10583 -0.171973,0.0364 -0.348906,0.0364 -0.443159,0 -0.702771,-0.25796 -0.257958,-0.25796 -0.257958,-0.69781 0,-0.45474 0.244729,-0.72096 0.246384,-0.26788 0.663085,-0.26788 0.373709,0 0.590328,0.24142 0.218273,0.23977 0.218273,0.65316 z m -0.304259,-0.0893 q -0.0033,-0.24969 -0.140554,-0.39851 -0.135594,-0.14882 -0.360481,-0.14882 -0.254651,0 -0.408433,0.14386 -0.15213,0.14386 -0.17528,0.40512 z" />
      <path
         inkscape:connector-curvature="0"
         id="path909"
         style="font-style:normal;font-weight:normal;font-size:40px;line-height:1.25;font-family:sans-serif;letter-spacing:0px;word-spacing:0px;fill:#ffffff;fill-opacity:1;stroke:none;stroke-width:0.26458332"
         d="m 61.034821,171.95237 v 0.52583 h 0.626707 v 0.23647 h -0.626707 v 1.00537 q 0,0.22654 0.06118,0.29103 0.06284,0.0645 0.252999,0.0645 h 0.312526 v 0.25465 H 61.349 q -0.352213,0 -0.486153,-0.13063 -0.13394,-0.13229 -0.13394,-0.47954 v -1.00537 h -0.223233 v -0.23647 h 0.223233 v -0.52583 z" />
      <path
         inkscape:connector-curvature="0"
         id="path911"
         style="font-style:normal;font-weight:normal;font-size:40px;line-height:1.25;font-family:sans-serif;letter-spacing:0px;word-spacing:0px;fill:#ffffff;fill-opacity:1;stroke:none;stroke-width:0.26458332"
         d="m 63.647476,173.32814 v 0.14883 h -1.398927 q 0.01984,0.31418 0.188508,0.47953 0.170318,0.16371 0.472923,0.16371 0.17528,0 0.338984,-0.043 0.165358,-0.043 0.327409,-0.12898 v 0.28772 q -0.163705,0.0694 -0.335677,0.10583 -0.171972,0.0364 -0.348905,0.0364 -0.443159,0 -0.702772,-0.25796 -0.257957,-0.25796 -0.257957,-0.69781 0,-0.45474 0.244729,-0.72096 0.246384,-0.26788 0.663085,-0.26788 0.373709,0 0.590328,0.24142 0.218272,0.23977 0.218272,0.65316 z m -0.304258,-0.0893 q -0.0033,-0.24969 -0.140554,-0.39851 -0.135594,-0.14882 -0.360481,-0.14882 -0.254651,0 -0.408433,0.14386 -0.15213,0.14386 -0.17528,0.40512 z" />
    </g>
    <g
       id="g1182"
       transform="translate(18.784656,86.934524)">
      <path
         inkscape:connector-curvature="0"
         id="path913"
         style="font-style:normal;font-weight:normal;font-size:40px;line-height:1.25;font-family:sans-serif;letter-spacing:0px;word-spacing:0px;fill:#ff0000;fill-opacity:1;stroke:none;stroke-width:0.26458332"
         d="m 66.298163,172.76262 q -0.05126,-0.0298 -0.112444,-0.043 -0.05953,-0.0149 -0.132286,-0.0149 -0.257958,0 -0.396859,0.16866 -0.137247,0.16701 -0.137247,0.48119 v 0.97561 h -0.305912 v -1.852 h 0.305912 v 0.28772 q 0.09591,-0.16867 0.249691,-0.24969 0.153782,-0.0827 0.373709,-0.0827 0.03142,0 0.06945,0.005 0.03803,0.003 0.08433,0.0116 z" />
      <path
         inkscape:connector-curvature="0"
         id="path915"
         style="font-style:normal;font-weight:normal;font-size:40px;line-height:1.25;font-family:sans-serif;letter-spacing:0px;word-spacing:0px;fill:#ffffff;fill-opacity:1;stroke:none;stroke-width:0.26458332"
         d="m 66.589193,173.59933 v -1.12112 h 0.304259 v 1.10955 q 0,0.26292 0.102521,0.3952 0.102522,0.13063 0.307566,0.13063 0.246383,0 0.388591,-0.15708 0.143862,-0.15709 0.143862,-0.42828 v -1.05002 h 0.304258 v 1.852 h -0.304258 v -0.28441 q -0.11079,0.16866 -0.257959,0.25134 -0.145515,0.081 -0.338983,0.081 -0.319141,0 -0.484499,-0.19843 -0.165358,-0.19843 -0.165358,-0.58041 z m 0.765608,-1.16577 z" />
      <path
         inkscape:connector-curvature="0"
         id="path917"
         style="font-style:normal;font-weight:normal;font-size:40px;line-height:1.25;font-family:sans-serif;letter-spacing:0px;word-spacing:0px;fill:#ffffff;fill-opacity:1;stroke:none;stroke-width:0.26458332"
         d="m 70.309746,173.21239 v 1.11782 h -0.304258 v -1.10789 q 0,-0.26292 -0.102522,-0.39356 -0.102522,-0.13063 -0.307566,-0.13063 -0.246383,0 -0.388591,0.15709 -0.142208,0.15709 -0.142208,0.42828 v 1.04671 h -0.305912 v -1.852 h 0.305912 v 0.28772 q 0.109136,-0.16701 0.256305,-0.24969 0.148822,-0.0827 0.342291,-0.0827 0.31914,0 0.482845,0.19843 0.163704,0.19677 0.163704,0.5804 z" />
    </g>
    <g
       id="g1258"
       transform="translate(10.770838,86.934524)">
      <path
         inkscape:connector-curvature="0"
         id="path931"
         style="font-style:normal;font-weight:normal;font-size:40px;line-height:1.25;font-family:sans-serif;letter-spacing:0px;word-spacing:0px;fill:#ff0000;fill-opacity:1;stroke:none;stroke-width:0.26458332"
         d="m 83.444127,171.95237 v 0.52583 h 0.626707 v 0.23647 h -0.626707 v 1.00537 q 0,0.22654 0.06118,0.29103 0.06284,0.0645 0.252999,0.0645 h 0.312526 v 0.25465 h -0.312526 q -0.352213,0 -0.486153,-0.13063 -0.13394,-0.13229 -0.13394,-0.47954 v -1.00537 H 82.91498 v -0.23647 h 0.223233 v -0.52583 z" />
      <path
         inkscape:connector-curvature="0"
         id="path933"
         style="font-style:normal;font-weight:normal;font-size:40px;line-height:1.25;font-family:sans-serif;letter-spacing:0px;word-spacing:0px;fill:#ffffff;fill-opacity:1;stroke:none;stroke-width:0.26458332"
         d="m 85.190307,172.69152 q -0.24473,0 -0.386937,0.19181 -0.142208,0.19016 -0.142208,0.52253 0,0.33237 0.140554,0.52419 0.142208,0.19016 0.388591,0.19016 0.243076,0 0.385284,-0.19182 0.142208,-0.19181 0.142208,-0.52253 0,-0.32906 -0.142208,-0.52087 -0.142208,-0.19347 -0.385284,-0.19347 z m 0,-0.25796 q 0.396859,0 0.6234,0.25796 0.22654,0.25795 0.22654,0.71434 0,0.45474 -0.22654,0.71435 -0.226541,0.25796 -0.6234,0.25796 -0.398512,0 -0.625053,-0.25796 -0.224886,-0.25961 -0.224886,-0.71435 0,-0.45639 0.224886,-0.71434 0.226541,-0.25796 0.625053,-0.25796 z" />
      <path
         inkscape:connector-curvature="0"
         id="path935"
         style="font-style:normal;font-weight:normal;font-size:40px;line-height:1.25;font-family:sans-serif;letter-spacing:0px;word-spacing:0px;fill:#ffffff;fill-opacity:1;stroke:none;stroke-width:0.26458332"
         d="m 87.761623,173.38271 q 0,-0.33071 -0.137247,-0.51261 -0.135593,-0.18189 -0.381977,-0.18189 -0.24473,0 -0.381977,0.18189 -0.135593,0.1819 -0.135593,0.51261 0,0.32906 0.135593,0.51096 0.137247,0.18189 0.381977,0.18189 0.246384,0 0.381977,-0.18189 0.137247,-0.1819 0.137247,-0.51096 z m 0.304258,0.71766 q 0,0.47292 -0.210004,0.70277 -0.210005,0.2315 -0.643242,0.2315 -0.160397,0 -0.302605,-0.0248 -0.142208,-0.0231 -0.276148,-0.0727 v -0.296 q 0.13394,0.0728 0.264573,0.10749 0.130632,0.0347 0.266226,0.0347 0.299298,0 0.44812,-0.15709 0.148822,-0.15543 0.148822,-0.47127 v -0.15047 q -0.09425,0.1637 -0.241423,0.24473 -0.147168,0.081 -0.352212,0.081 -0.340637,0 -0.548988,-0.25961 -0.208352,-0.25961 -0.208352,-0.68789 0,-0.42993 0.208352,-0.68954 0.208351,-0.25961 0.548988,-0.25961 0.205044,0 0.352212,0.081 0.147169,0.081 0.241423,0.24473 v -0.28111 h 0.304258 z" />
      <path
         inkscape:connector-curvature="0"
         id="path937"
         style="font-style:normal;font-weight:normal;font-size:40px;line-height:1.25;font-family:sans-serif;letter-spacing:0px;word-spacing:0px;fill:#ffffff;fill-opacity:1;stroke:none;stroke-width:0.26458332"
         d="m 89.911276,173.38271 q 0,-0.33071 -0.137247,-0.51261 -0.135594,-0.18189 -0.381977,-0.18189 -0.24473,0 -0.381976,0.18189 -0.135595,0.1819 -0.135595,0.51261 0,0.32906 0.135595,0.51096 0.137246,0.18189 0.381976,0.18189 0.246383,0 0.381977,-0.18189 0.137247,-0.1819 0.137247,-0.51096 z m 0.304259,0.71766 q 0,0.47292 -0.210005,0.70277 -0.210005,0.2315 -0.643243,0.2315 -0.160397,0 -0.302605,-0.0248 -0.142207,-0.0231 -0.276148,-0.0727 v -0.296 q 0.133941,0.0728 0.264573,0.10749 0.130633,0.0347 0.266227,0.0347 0.299298,0 0.448119,-0.15709 0.148823,-0.15543 0.148823,-0.47127 v -0.15047 q -0.09425,0.1637 -0.241423,0.24473 -0.147169,0.081 -0.352212,0.081 -0.340637,0 -0.548989,-0.25961 -0.20835,-0.25961 -0.20835,-0.68789 0,-0.42993 0.20835,-0.68954 0.208352,-0.25961 0.548989,-0.25961 0.205043,0 0.352212,0.081 0.147169,0.081 0.241423,0.24473 v -0.28111 h 0.304259 z" />
      <path
         inkscape:connector-curvature="0"
         id="path939"
         style="font-style:normal;font-weight:normal;font-size:40px;line-height:1.25;font-family:sans-serif;letter-spacing:0px;word-spacing:0px;fill:#ffffff;fill-opacity:1;stroke:none;stroke-width:0.26458332"
         d="M 90.842241,171.75724 H 91.1465 v 2.57297 h -0.304259 z" />
      <path
         inkscape:connector-curvature="0"
         id="path941"
         style="font-style:normal;font-weight:normal;font-size:40px;line-height:1.25;font-family:sans-serif;letter-spacing:0px;word-spacing:0px;fill:#ffffff;fill-opacity:1;stroke:none;stroke-width:0.26458332"
         d="m 93.365603,173.32814 v 0.14883 h -1.398928 q 0.01984,0.31418 0.188508,0.47953 0.170318,0.16371 0.472924,0.16371 0.175279,0 0.338983,-0.043 0.165358,-0.043 0.327409,-0.12898 v 0.28772 q -0.163704,0.0694 -0.335677,0.10583 -0.171972,0.0364 -0.348905,0.0364 -0.443159,0 -0.70277,-0.25796 -0.257959,-0.25796 -0.257959,-0.69781 0,-0.45474 0.24473,-0.72096 0.246383,-0.26788 0.663085,-0.26788 0.373709,0 0.590327,0.24142 0.218273,0.23977 0.218273,0.65316 z m -0.304259,-0.0893 q -0.0033,-0.24969 -0.140554,-0.39851 -0.135593,-0.14882 -0.36048,-0.14882 -0.254651,0 -0.408434,0.14386 -0.152129,0.14386 -0.17528,0.40512 z" />
    </g>
    <g
       id="g1288"
       transform="translate(14.388706,86.934524)">
      <path
         inkscape:connector-curvature="0"
         id="path943"
         style="font-style:normal;font-weight:normal;font-size:40px;line-height:1.25;font-family:sans-serif;letter-spacing:0px;word-spacing:0px;fill:#ff0000;fill-opacity:1;stroke:none;stroke-width:0.26458332"
         d="m 94.724844,172.4782 h 0.322448 l 0.578753,1.55437 0.578752,-1.55437 h 0.322449 l -0.694504,1.85201 h -0.413395 z" />
      <path
         inkscape:connector-curvature="0"
         id="path945"
         style="font-style:normal;font-weight:normal;font-size:40px;line-height:1.25;font-family:sans-serif;letter-spacing:0px;word-spacing:0px;fill:#ffffff;fill-opacity:1;stroke:none;stroke-width:0.26458332"
         d="m 96.947255,172.4782 h 0.304259 v 1.85201 h -0.304259 z m 0,-0.72096 h 0.304259 v 0.38529 h -0.304259 z" />
      <path
         inkscape:connector-curvature="0"
         id="path947"
         style="font-style:normal;font-weight:normal;font-size:40px;line-height:1.25;font-family:sans-serif;letter-spacing:0px;word-spacing:0px;fill:#ffffff;fill-opacity:1;stroke:none;stroke-width:0.26458332"
         d="m 99.470616,173.32814 v 0.14883 h -1.398927 q 0.01984,0.31418 0.188508,0.47953 0.170319,0.16371 0.472924,0.16371 0.175279,0 0.338983,-0.043 0.165358,-0.043 0.327409,-0.12898 v 0.28772 q -0.163704,0.0694 -0.335677,0.10583 -0.171972,0.0364 -0.348905,0.0364 -0.443159,0 -0.702771,-0.25796 -0.257958,-0.25796 -0.257958,-0.69781 0,-0.45474 0.244729,-0.72096 0.246384,-0.26788 0.663085,-0.26788 0.373709,0 0.590328,0.24142 0.218272,0.23977 0.218272,0.65316 z m -0.304258,-0.0893 q -0.0033,-0.24969 -0.140554,-0.39851 -0.135594,-0.14882 -0.360481,-0.14882 -0.254651,0 -0.408433,0.14386 -0.15213,0.14386 -0.17528,0.40512 z" />
      <path
         inkscape:connector-curvature="0"
         id="path949"
         style="font-style:normal;font-weight:normal;font-size:40px;line-height:1.25;font-family:sans-serif;letter-spacing:0px;word-spacing:0px;fill:#ffffff;fill-opacity:1;stroke:none;stroke-width:0.26458332"
         d="m 99.793065,172.4782 h 0.304255 l 0.38033,1.44523 0.37867,-1.44523 h 0.35882 l 0.38033,1.44523 0.37867,-1.44523 h 0.30425 l -0.48449,1.85201 h -0.35883 l -0.39851,-1.51798 -0.40017,1.51798 h -0.35883 z" />
    </g>
    <rect
       style="opacity:1;fill:#666666;fill-opacity:1;stroke:none;stroke-width:0.76499999;stroke-miterlimit:4;stroke-dasharray:none;stroke-opacity:1"
       id="rect990-3"
       width="0.46772167"
       height="5.6126599"
       x="41.911663"
       y="257.50458" />
    <rect
       style="opacity:1;fill:#666666;fill-opacity:1;stroke:none;stroke-width:0.76499999;stroke-miterlimit:4;stroke-dasharray:none;stroke-opacity:1"
       id="rect990-3-6"
       width="0.46772167"
       height="5.6126599"
       x="55.275139"
       y="257.50458" />
    <rect
       style="opacity:1;fill:#666666;fill-opacity:1;stroke:none;stroke-width:0.76499999;stroke-miterlimit:4;stroke-dasharray:none;stroke-opacity:1"
       id="rect990-3-6-7"
       width="0.46772167"
       height="5.6126599"
       x="66.366829"
       y="257.50458" />
    <rect
       style="opacity:1;fill:#666666;fill-opacity:1;stroke:none;stroke-width:0.76499999;stroke-miterlimit:4;stroke-dasharray:none;stroke-opacity:1"
       id="rect990-3-6-7-5"
       width="0.46772167"
       height="5.6126599"
       x="81.200287"
       y="257.50458" />
    <rect
       style="opacity:1;fill:#666666;fill-opacity:1;stroke:none;stroke-width:0.76499999;stroke-miterlimit:4;stroke-dasharray:none;stroke-opacity:1"
       id="rect990-3-6-7-5-3"
       width="0.46772167"
       height="5.6126599"
       x="91.222893"
       y="257.50458" />
    <rect
       style="opacity:1;fill:#666666;fill-opacity:1;stroke:none;stroke-width:0.76499999;stroke-miterlimit:4;stroke-dasharray:none;stroke-opacity:1"
       id="rect990-3-6-7-5-3-5-2"
       width="0.46772167"
       height="5.6126599"
       x="106.16496"
       y="257.50458" />
    <rect
       style="opacity:1;fill:#666666;fill-opacity:1;stroke:none;stroke-width:0.76499999;stroke-miterlimit:4;stroke-dasharray:none;stroke-opacity:1"
       id="rect990-3-6-7-5-3-5-2-9"
       width="0.46772167"
       height="5.6126599"
       x="118.39252"
       y="257.50458" />
  </g>
  <g
     inkscape:groupmode="layer"
     id="layer3"
     inkscape:label="regions"
     style="display:none;opacity:0.419"
     transform="translate(-14.027717,-256.29041)">
    <rect
       style="opacity:1;fill:#ff0000;fill-opacity:1;stroke:none;stroke-width:0.56499994;stroke-miterlimit:4;stroke-dasharray:none;stroke-opacity:1"
       id="move"
       width="11.168576"
       height="5.7462945"
       x="16.010466"
       y="257.52179"
       inkscape:label="#rect1490" />
    <rect
       style="opacity:1;fill:#ff0000;fill-opacity:1;stroke:none;stroke-width:0.565;stroke-miterlimit:4;stroke-dasharray:none;stroke-opacity:1"
       id="set-x"
       width="9.8456612"
       height="5.7462945"
       x="30.506075"
       y="257.22665"
       inkscape:label="#rect1490-2" />
    <rect
       style="opacity:1;fill:#ff0000;fill-opacity:1;stroke:none;stroke-width:0.565;stroke-miterlimit:4;stroke-dasharray:none;stroke-opacity:1"
       id="set-y"
       width="10.034648"
       height="5.7462945"
       x="44.01836"
       y="257.55487"
       inkscape:label="#rect1490-7" />
    <rect
       style="opacity:1;fill:#ff0000;fill-opacity:1;stroke:none;stroke-width:0.56500006;stroke-miterlimit:4;stroke-dasharray:none;stroke-opacity:1"
       id="add"
       width="8.2392607"
       height="5.7462945"
       x="57.007271"
       y="257.12909"
       inkscape:label="#rect1490-2-0" />
    <rect
       style="opacity:1;fill:#ff0000;fill-opacity:1;stroke:none;stroke-width:0.565;stroke-miterlimit:4;stroke-dasharray:none;stroke-opacity:1"
       id="delete"
       width="12.113517"
       height="5.7462945"
       x="68.113892"
       y="257.12909"
       inkscape:label="#rect1490-9" />
    <rect
       style="opacity:1;fill:#ff0000;fill-opacity:1;stroke:none;stroke-width:0.56500006;stroke-miterlimit:4;stroke-dasharray:none;stroke-opacity:1"
       id="run"
       width="7.1525788"
       height="5.7462945"
       x="82.969948"
       y="257.46719"
       inkscape:label="#rect1490-2-3" />
    <rect
       style="opacity:1;fill:#ff0000;fill-opacity:1;stroke:none;stroke-width:0.56500006;stroke-miterlimit:4;stroke-dasharray:none;stroke-opacity:1"
       id="toggle-relative"
       width="12.113517"
       height="5.7462945"
       x="92.85437"
       y="257.45731"
       inkscape:label="#rect1490-2-0-0" />
    <rect
       style="opacity:1;fill:#ff0000;fill-opacity:1;stroke:none;stroke-width:0.565;stroke-miterlimit:4;stroke-dasharray:none;stroke-opacity:1"
       id="view"
       width="9.6094236"
       height="5.7462945"
       x="108.08561"
       y="257.12909"
       inkscape:label="#rect1490-6" />
    <rect
       style="opacity:1;fill:#ff0000;fill-opacity:1;stroke:none;stroke-width:0.56500006;stroke-miterlimit:4;stroke-dasharray:none;stroke-opacity:1"
       id="print-lengths"
       width="13.625421"
       height="5.7462945"
       x="120.36701"
       y="257.45734"
       inkscape:label="#rect1490-2-2" />
  </g>
</svg>
