<?xml version="1.0" encoding="UTF-8" standalone="no"?>
<!-- Created with Inkscape (http://www.inkscape.org/) -->

<svg
   xmlns:dc="http://purl.org/dc/elements/1.1/"
   xmlns:cc="http://creativecommons.org/ns#"
   xmlns:rdf="http://www.w3.org/1999/02/22-rdf-syntax-ns#"
   xmlns:svg="http://www.w3.org/2000/svg"
   xmlns="http://www.w3.org/2000/svg"
   xmlns:sodipodi="http://sodipodi.sourceforge.net/DTD/sodipodi-0.dtd"
   xmlns:inkscape="http://www.inkscape.org/namespaces/inkscape"
   width="52.164719mm"
   height="517.84351mm"
   viewBox="0 0 52.164718 517.8435"
   version="1.1"
   id="svg8"
   inkscape:version="0.92.5 (2060ec1f9f, 2020-04-08)"
   sodipodi:docname="mode-menu.svg">
  <defs
     id="defs2">
    <inkscape:perspective
       sodipodi:type="inkscape:persp3d"
       inkscape:vp_x="-13.214104 : 84.70072 : 1"
       inkscape:vp_y="0 : 999.99992 : 0"
       inkscape:vp_z="595.55157 : 173.47612 : 1"
       inkscape:persp3d-origin="309.5625 : 79.500992 : 1"
       id="perspective1501" />
    <inkscape:perspective
       id="perspective1501-7"
       inkscape:persp3d-origin="309.5625 : 79.500992 : 1"
       inkscape:vp_z="595.55157 : 173.47612 : 1"
       inkscape:vp_y="0 : 999.99992 : 0"
       inkscape:vp_x="-13.214104 : 84.70072 : 1"
       sodipodi:type="inkscape:persp3d" />
  </defs>
  <sodipodi:namedview
     id="base"
     pagecolor="#ffffff"
     bordercolor="#666666"
     borderopacity="1.0"
     inkscape:pageopacity="0.0"
     inkscape:pageshadow="2"
     inkscape:zoom="0.24748737"
     inkscape:cx="-687.17899"
     inkscape:cy="728.08978"
     inkscape:document-units="mm"
     inkscape:current-layer="layer1"
     showgrid="false"
     inkscape:snap-global="false"
     fit-margin-top="0"
     fit-margin-left="0"
     fit-margin-right="0"
     fit-margin-bottom="0"
     inkscape:window-width="1366"
     inkscape:window-height="731"
     inkscape:window-x="0"
     inkscape:window-y="0"
     inkscape:window-maximized="1"
     showguides="true"
     inkscape:guide-bbox="true" />
  <metadata
     id="metadata5">
    <rdf:RDF>
      <cc:Work
         rdf:about="">
        <dc:format>image/svg+xml</dc:format>
        <dc:type
           rdf:resource="http://purl.org/dc/dcmitype/StillImage" />
        <dc:title></dc:title>
      </cc:Work>
    </rdf:RDF>
  </metadata>
  <g
     inkscape:label="Layer 1"
     inkscape:groupmode="layer"
     id="layer1"
     transform="translate(63.594475,-437.22916)"
     style="display:inline">
    <path
       inkscape:connector-curvature="0"
       style="display:inline;fill:#999999;fill-opacity:1;stroke:none;stroke-width:1;stroke-miterlimit:4;stroke-dasharray:none;stroke-opacity:1"
       d="m -63.590465,844.68744 h 52.160702 v 52.16072 h -52.160702 z"
       id="rect817-35-6-7-6" />
    <rect
       style="display:inline;opacity:1;fill:#008080;fill-opacity:1;stroke:none;stroke-width:0.76499999;stroke-miterlimit:4;stroke-dasharray:none;stroke-opacity:1"
       id="rect1273"
       width="31.805075"
       height="35.01231"
       x="-55.11512"
       y="505.90417"
       ry="3.7299635" />
    <path
       inkscape:connector-curvature="0"
       style="display:inline;fill:#999999;fill-opacity:1;stroke:none;stroke-width:1;stroke-miterlimit:4;stroke-dasharray:none;stroke-opacity:1"
       d="m -63.590465,786.47911 h 52.160701 v 52.16072 h -52.160701 z"
       id="rect817-35-6-7" />
    <path
       inkscape:connector-curvature="0"
       style="display:inline;fill:#999999;fill-opacity:1;stroke:none;stroke-width:1;stroke-miterlimit:4;stroke-dasharray:none;stroke-opacity:1"
       d="m -63.594475,437.22917 h 52.16072 v 52.16072 h -52.16072 z"
       id="rect817-0" />
    <path
       inkscape:connector-curvature="0"
       style="display:inline;fill:#999999;fill-opacity:1;stroke:none;stroke-width:1;stroke-miterlimit:4;stroke-dasharray:none;stroke-opacity:1"
       d="m -63.594475,495.43752 h 52.16072 v 52.16072 h -52.16072 z"
       id="rect817-3-9" />
    <path
       inkscape:connector-curvature="0"
       style="display:inline;fill:#999999;fill-opacity:1;stroke:none;stroke-width:1;stroke-miterlimit:4;stroke-dasharray:none;stroke-opacity:1"
       d="m -63.594466,553.64586 h 52.160713 v 52.16072 h -52.160713 z"
       id="rect817-6-3" />
    <path
       inkscape:connector-curvature="0"
       style="display:inline;fill:#999999;fill-opacity:1;stroke:none;stroke-width:1;stroke-miterlimit:4;stroke-dasharray:none;stroke-opacity:1"
       d="m -63.594454,611.8542 h 52.1607 v 52.16072 h -52.1607 z"
       id="rect817-7-6" />
    <path
       inkscape:connector-curvature="0"
       style="display:inline;fill:#999999;fill-opacity:1;stroke:none;stroke-width:1;stroke-miterlimit:4;stroke-dasharray:none;stroke-opacity:1"
       d="m -63.594454,670.0625 h 52.16071 v 52.16072 h -52.16071 z"
       id="rect817-5-0" />
    <path
       inkscape:connector-curvature="0"
       style="display:inline;fill:#999999;fill-opacity:1;stroke:none;stroke-width:1;stroke-miterlimit:4;stroke-dasharray:none;stroke-opacity:1"
       d="m -63.594399,728.27083 h 52.1607 v 52.16072 h -52.1607 z"
       id="rect817-35-62" />
    <g
       style="display:inline"
       id="g1447"
       transform="translate(-181.61754,533.98867)">
      <path
         sodipodi:nodetypes="cccc"
         inkscape:connector-curvature="0"
         id="path2992"
         d="m 130.59079,90.913572 v 16.531368 h 27.02529 V 91.858513"
         style="fill:none;stroke:#ffffff;stroke-width:4.46500015;stroke-linecap:butt;stroke-linejoin:miter;stroke-miterlimit:4;stroke-dasharray:none;stroke-opacity:1" />
      <path
         inkscape:connector-curvature="0"
         id="path3009"
         d="m 144.38692,107.82292 v 12.85119"
         style="fill:none;stroke:#ffffff;stroke-width:4.66499996;stroke-linecap:butt;stroke-linejoin:miter;stroke-miterlimit:4;stroke-dasharray:none;stroke-opacity:1" />
      <path
         id="path2990"
         d="m 150.59667,107.44495 a 6.0207577,6.0207577 0 0 1 -6.02076,6.02075 6.0207577,6.0207577 0 0 1 -6.02076,-6.02075 6.0207577,6.0207577 0 0 1 6.02076,-6.02076 6.0207577,6.0207577 0 0 1 6.02076,6.02076 z"
         style="opacity:1;fill:#008080;fill-opacity:1;stroke:#008080;stroke-width:2.86500025;stroke-miterlimit:4;stroke-dasharray:none;stroke-opacity:1"
         inkscape:connector-curvature="0" />
      <path
         id="rect2986"
         d="m 124.35419,87.217659 h 13.04018 v 5.102678 h -13.04018 z"
         style="opacity:1;fill:#008080;fill-opacity:1;stroke:none;stroke-width:2.86500001;stroke-miterlimit:4;stroke-dasharray:none;stroke-opacity:1"
         inkscape:connector-curvature="0" />
      <path
         id="rect2986-2"
         d="m 150.81252,87.217659 h 13.04017 v 5.102678 h -13.04017 z"
         style="display:inline;opacity:1;fill:#008080;fill-opacity:1;stroke:none;stroke-width:2.86500001;stroke-miterlimit:4;stroke-dasharray:none;stroke-opacity:1"
         inkscape:connector-curvature="0" />
    </g>
    <g
       style="display:inline"
       id="g1157"
       transform="translate(0.06072495,364.05728)">
      <path
         style="opacity:1;fill:#ffffff;fill-opacity:1;stroke:none;stroke-width:0.2;stroke-miterlimit:4;stroke-dasharray:none;stroke-opacity:1"
         d="M -20.202318,99.252251 A 17.372519,17.372519 0 0 1 -37.574837,116.62477 17.372519,17.372519 0 0 1 -54.947355,99.252251 17.372519,17.372519 0 0 1 -37.574837,81.879732 17.372519,17.372519 0 0 1 -20.202318,99.252251 Z"
         id="path1124"
         inkscape:connector-curvature="0" />
      <g
         transform="translate(2.8610229e-6,-0.53454494)"
         style="fill:#008080"
         id="g1151">
        <path
           style="opacity:1;fill:#008080;fill-opacity:1;stroke:none;stroke-width:0.2;stroke-miterlimit:4;stroke-dasharray:none;stroke-opacity:1"
           d="m -40.173805,87.225128 h 5.197931 v 25.123332 h -5.197931 z"
           id="rect1126"
           inkscape:connector-curvature="0" />
        <path
           transform="rotate(90)"
           style="display:inline;opacity:1;fill:#008080;fill-opacity:1;stroke:none;stroke-width:0.2;stroke-miterlimit:4;stroke-dasharray:none;stroke-opacity:1"
           d="m 97.187836,25.013172 h 5.197934 v 25.123335 h -5.197934 z"
           id="rect1126-6"
           inkscape:connector-curvature="0" />
      </g>
    </g>
    <g
       style="display:inline"
       id="g1440"
       transform="translate(-121.56658,479.7465)">
      <path
         id="rect2957"
         d="M 64.723366,86.645355 H 103.01694 V 113.31409 H 64.723366 Z"
         style="opacity:1;fill:#ffffff;fill-opacity:1;stroke:none;stroke-width:1;stroke-miterlimit:4;stroke-dasharray:none;stroke-opacity:1"
         inkscape:connector-curvature="0" />
      <path
         id="path2961"
         d="m 68.655293,106.52061 a 3.3335922,3.3335922 0 0 1 -3.333592,3.33359 3.3335922,3.3335922 0 0 1 -3.333592,-3.33359 3.3335922,3.3335922 0 0 1 3.333592,-3.3336 3.3335922,3.3335922 0 0 1 3.333592,3.3336 z"
         style="opacity:1;fill:#008080;fill-opacity:1;stroke:none;stroke-width:1;stroke-miterlimit:4;stroke-dasharray:none;stroke-opacity:1"
         inkscape:connector-curvature="0" />
      <path
         id="path2961-9"
         d="m 82.056348,93.28717 a 3.3335922,3.3335922 0 0 1 -3.333593,3.333593 3.3335922,3.3335922 0 0 1 -3.333592,-3.333593 3.3335922,3.3335922 0 0 1 3.333592,-3.333592 3.3335922,3.3335922 0 0 1 3.333593,3.333592 z"
         style="display:inline;opacity:1;fill:#008080;fill-opacity:1;stroke:none;stroke-width:1;stroke-miterlimit:4;stroke-dasharray:none;stroke-opacity:1"
         inkscape:connector-curvature="0" />
      <path
         id="path2961-1"
         d="m 106.11683,90.451797 a 3.3335922,3.3335922 0 0 1 -3.3336,3.333593 3.3335922,3.3335922 0 0 1 -3.333589,-3.333593 3.3335922,3.3335922 0 0 1 3.333589,-3.333592 3.3335922,3.3335922 0 0 1 3.3336,3.333592 z"
         style="display:inline;opacity:1;fill:#008080;fill-opacity:1;stroke:none;stroke-width:1;stroke-miterlimit:4;stroke-dasharray:none;stroke-opacity:1"
         inkscape:connector-curvature="0" />
      <path
         sodipodi:nodetypes="cccc"
         inkscape:connector-curvature="0"
         id="path2984"
         d="M 64.954566,106.4807 78.569842,93.062129 90.654741,102.17649 101.82026,91.302242"
         style="fill:none;stroke:#008080;stroke-width:2.86500001;stroke-linecap:butt;stroke-linejoin:miter;stroke-miterlimit:4;stroke-dasharray:none;stroke-opacity:1" />
      <path
         id="path2961-9-5"
         d="m 94.42587,102.24776 a 3.3335922,3.3335922 0 0 1 -3.333592,3.33359 3.3335922,3.3335922 0 0 1 -3.333593,-3.33359 3.3335922,3.3335922 0 0 1 3.333593,-3.333595 3.3335922,3.3335922 0 0 1 3.333592,3.333595 z"
         style="display:inline;opacity:1;fill:#008080;fill-opacity:1;stroke:none;stroke-width:1;stroke-miterlimit:4;stroke-dasharray:none;stroke-opacity:1"
         inkscape:connector-curvature="0" />
    </g>
    <g
       id="g1232"
       transform="matrix(0.7417349,0,0,0.7417349,-54.921385,447.06703)"
       style="display:inline;stroke-width:1.34819055">
      <path
         transform="rotate(45)"
         style="opacity:1;fill:#ffffff;fill-opacity:1;stroke:none;stroke-width:0.26963812;stroke-miterlimit:4;stroke-dasharray:none;stroke-opacity:1"
         d="m 83.723298,24.618706 h 7.659099 c 2.066406,0 3.729974,1.663568 3.729974,3.729974 l 0.08051,46.47959 c -4.955431,1.61621 -9.924346,3.043657 -15.212625,0 l 0.01306,-46.47959 c 5.81e-4,-2.066406 1.663569,-3.729974 3.729975,-3.729974 z"
         id="rect1156"
         inkscape:connector-curvature="0"
         sodipodi:nodetypes="cssccssc" />
      <path
         sodipodi:nodetypes="cccc"
         inkscape:connector-curvature="0"
         id="rect1181"
         d="m 3.6430059,109.46616 10.7569501,10.75695 -15.7682501,5.0113 z"
         style="opacity:1;fill:#ffffff;fill-opacity:1;stroke:none;stroke-width:0.26963812;stroke-miterlimit:4;stroke-dasharray:none;stroke-opacity:1" />
      <path
         inkscape:connector-curvature="0"
         id="rect1186"
         d="m 1.4255734,116.16633 -2.9233389,9.19535 9.334331,-2.96966 z"
         style="opacity:1;fill:#008080;fill-opacity:1;stroke:none;stroke-width:0.26963809;stroke-miterlimit:4;stroke-dasharray:none;stroke-opacity:1"
         sodipodi:nodetypes="cccc" />
      <path
         inkscape:connector-curvature="0"
         id="rect1156-5"
         d="m 41.845209,76.388454 c -1.506656,-1.506655 -3.932203,-1.506274 -5.438858,3.82e-4 l -4.725605,4.725605 11.023517,11.023528 4.725616,-4.725605 c 1.506645,-1.506656 1.506645,-3.932584 0,-5.43924 z"
         style="display:inline;opacity:1;fill:#008080;fill-opacity:1;stroke:none;stroke-width:0.26963812;stroke-miterlimit:4;stroke-dasharray:none;stroke-opacity:1" />
    </g>
    <rect
       style="opacity:1;fill:#ffffff;fill-opacity:1;stroke:none;stroke-width:0.76499993;stroke-miterlimit:4;stroke-dasharray:none;stroke-opacity:1"
       id="rect1296"
       width="13.363475"
       height="13.363475"
       x="17.468887"
       y="-702.82458"
       transform="scale(-1)" />
    <rect
       style="display:inline;opacity:1;fill:#009b9b;fill-opacity:1;stroke:none;stroke-width:0.76499993;stroke-miterlimit:4;stroke-dasharray:none;stroke-opacity:1"
       id="rect1296-6"
       width="13.363475"
       height="13.363475"
       x="30.832363"
       y="-702.82458"
       transform="scale(-1)" />
    <rect
       style="display:inline;opacity:1;fill:#008080;fill-opacity:1;stroke:none;stroke-width:0.76499993;stroke-miterlimit:4;stroke-dasharray:none;stroke-opacity:1"
       id="rect1296-2"
       width="13.363475"
       height="13.363475"
       x="44.195835"
       y="-702.82458"
       transform="scale(-1)" />
    <rect
       style="opacity:1;fill:#ffffff;fill-opacity:1;stroke:none;stroke-width:0.76499999;stroke-miterlimit:4;stroke-dasharray:none;stroke-opacity:1"
       id="rect1336"
       width="45.136513"
       height="4.7608104"
       x="-60.082306"
       y="751.97083" />
    <circle
       style="opacity:1;fill:#008080;fill-opacity:1;stroke:none;stroke-width:0.76499993;stroke-miterlimit:4;stroke-dasharray:none;stroke-opacity:1"
       id="path1338"
       cx="-45.34679"
       cy="754.3512"
       r="8.5955372" />
    <g
       id="g1897"
       transform="matrix(0.84442788,0,0,1.0041133,-6.7913582,-61.091902)"
       style="stroke-width:1.08599389">
      <rect
         y="855.00897"
         x="-56.993927"
         height="15.464026"
         width="30.978132"
         id="rect1834-2"
         style="display:inline;opacity:1;fill:#ffffff;fill-opacity:1;stroke:none;stroke-width:0.83078516;stroke-miterlimit:4;stroke-dasharray:none;stroke-opacity:1" />
      <rect
         y="862.34052"
         x="-51.867256"
         height="15.464027"
         width="30.978132"
         id="rect1834-2-3"
         style="display:inline;opacity:1;fill:#008080;fill-opacity:1;stroke:none;stroke-width:0.83078516;stroke-miterlimit:4;stroke-dasharray:none;stroke-opacity:1" />
      <rect
         y="869.672"
         x="-46.740582"
         height="15.464027"
         width="30.978132"
         id="rect1834-2-1"
         style="display:inline;opacity:1;fill:#ffffff;fill-opacity:1;stroke:none;stroke-width:0.83078516;stroke-miterlimit:4;stroke-dasharray:none;stroke-opacity:1" />
    </g>
    <path
       inkscape:connector-curvature="0"
       style="display:inline;fill:#999999;fill-opacity:1;stroke:none;stroke-width:1;stroke-miterlimit:4;stroke-dasharray:none;stroke-opacity:1"
       d="m -63.590465,902.91186 h 52.160702 v 52.16081 h -52.160702 z"
       id="rect817-35-6-7-6-3" />
    <path
       inkscape:connector-curvature="0"
       id="path1124-4-7"
       d="m -20.137594,928.99219 a 17.372519,17.372519 0 0 1 -17.372519,17.37248 17.372519,17.372519 0 0 1 -17.372518,-17.37248 17.372519,17.372519 0 0 1 17.372518,-17.37252 17.372519,17.372519 0 0 1 17.372519,17.37252 z"
       style="opacity:1;fill:#ffffff;fill-opacity:1;stroke:none;stroke-width:0.2;stroke-miterlimit:4;stroke-dasharray:none;stroke-opacity:1" />
    <path
       style="opacity:1;fill:#008080;fill-opacity:1;stroke:none;stroke-width:4.66499996;stroke-miterlimit:4;stroke-dasharray:none;stroke-opacity:1"
       d="m -42.654405,915.49602 17.092157,13.49617 -17.092157,13.49618 z"
       id="rect1321-5"
       inkscape:connector-curvature="0"
       sodipodi:nodetypes="cccc" />
    <path
       inkscape:connector-curvature="0"
       id="path1124-4-7-5"
       d="m -20.137593,871.167 a 17.372519,17.372519 0 0 1 -17.37252,17.37248 17.372519,17.372519 0 0 1 -17.372518,-17.37248 17.372519,17.372519 0 0 1 17.372518,-17.37252 17.372519,17.372519 0 0 1 17.37252,17.37252 z"
       style="display:inline;opacity:1;fill:#ffffff;fill-opacity:1;stroke:none;stroke-width:0.2;stroke-miterlimit:4;stroke-dasharray:none;stroke-opacity:1" />
    <g
       id="g1122"
       style="fill:#008080;stroke-width:1.07003558"
       transform="matrix(0.93454837,0,0,0.93454837,87.712402,-6.4066314)">
      <g
         id="g1115"
         style="fill:#008080;stroke-width:1.07003558">
        <path
           style="opacity:1;vector-effect:none;fill:#008080;fill-opacity:1;stroke:none;stroke-width:0.56622708;stroke-linecap:butt;stroke-linejoin:miter;stroke-miterlimit:4;stroke-dasharray:none;stroke-dashoffset:4.42829704;stroke-opacity:1;paint-order:fill markers stroke"
           d="m -133.99281,915.27998 c -3.07888,1.3e-4 -5.57476,2.49605 -5.5749,5.57491 -2.1e-4,3.07912 2.49578,5.5754 5.5749,5.57553 3.07936,1.9e-4 5.57574,-2.49615 5.57553,-5.57553 -1.3e-4,-3.07912 -2.49641,-5.5751 -5.57553,-5.57491 z m -0.25551,12.20236 v 0.005 l -6.57089,0.0616 c -1.60822,0.11325 -2.23931,0.86844 -2.60599,2.00471 l -5.21196,8.0582 c -0.57729,2.59645 2.60808,4.13479 4.54394,1.47017 l 4.00877,-6.30986 0.0667,19.32299 c 0.64785,3.01377 4.66784,2.61964 4.94437,0 v -10.65221 h 0.82502 0.51166 0.82438 v 10.65221 c 0.27653,2.61964 4.29716,3.01377 4.94501,0 l 0.0667,-19.32299 4.00876,6.30986 c 1.93586,2.66462 5.12123,1.12628 4.54394,-1.47017 l -5.21196,-8.0582 c -0.36668,-1.13627 -0.99777,-1.89146 -2.60598,-2.00471 l -6.57089,-0.0616 v -0.005 l -0.25615,0.003 z"
           id="path1091"
           inkscape:connector-curvature="0"
           sodipodi:nodetypes="ccccccccccccccccccccccccccccc" />
      </g>
      <g
         transform="translate(0.41688155)"
         id="g1112"
         style="fill:#008080;stroke-width:1.07003558" />
    </g>
  </g>
  <g
     inkscape:groupmode="layer"
     id="layer2"
     inkscape:label="regions"
     style="display:none;opacity:0.5270004"
     transform="translate(-16.536468,-376.84225)">
    <rect
       style="display:inline;opacity:1;fill:#ff0000;fill-opacity:1;stroke:none;stroke-width:1;stroke-miterlimit:4;stroke-dasharray:none;stroke-opacity:1"
       id="add"
       width="52.160713"
       height="52.160713"
       x="16.53648"
       y="376.84225"
       inkscape:label="#rect817-69" />
    <rect
       style="display:inline;opacity:1;fill:#ff0000;fill-opacity:1;stroke:none;stroke-width:1;stroke-miterlimit:4;stroke-dasharray:none;stroke-opacity:1"
       id="edit"
       width="52.160713"
       height="52.160713"
       x="16.536469"
       y="435.0506"
       inkscape:label="#rect817-3-3" />
    <rect
       style="display:inline;opacity:1;fill:#ff0000;fill-opacity:1;stroke:none;stroke-width:1;stroke-miterlimit:4;stroke-dasharray:none;stroke-opacity:1"
       id="graph"
       width="52.160713"
       height="52.160713"
       x="16.536469"
       y="493.25897"
       inkscape:label="#rect817-6-7" />
    <rect
       style="display:inline;opacity:1;fill:#ff0000;fill-opacity:1;stroke:none;stroke-width:1;stroke-miterlimit:4;stroke-dasharray:none;stroke-opacity:1"
       id="motherboard"
       width="52.160713"
       height="52.160713"
       x="16.536476"
       y="551.46729"
       inkscape:label="#rect817-7-4" />
    <rect
       style="display:inline;opacity:1;fill:#ff0000;fill-opacity:1;stroke:none;stroke-width:1;stroke-miterlimit:4;stroke-dasharray:none;stroke-opacity:1"
       id="color"
       width="52.160713"
       height="52.160713"
       x="16.53651"
       y="609.6756"
       inkscape:label="#rect817-5-5" />
    <rect
       style="display:inline;opacity:1;fill:#ff0000;fill-opacity:1;stroke:none;stroke-width:1;stroke-miterlimit:4;stroke-dasharray:none;stroke-opacity:1"
       id="property"
       width="52.160713"
       height="52.160713"
       x="16.53651"
       y="667.88391"
       inkscape:label="#rect817-35-2" />
    <rect
       style="display:inline;opacity:1;fill:#ff0000;fill-opacity:1;stroke:none;stroke-width:1;stroke-miterlimit:4;stroke-dasharray:none;stroke-opacity:1"
       id="simulation"
       width="52.160713"
       height="52.160713"
       x="16.540472"
       y="842.52502"
       inkscape:label="#rect817-35-2" />
    <rect
       style="display:inline;opacity:1;fill:#ff0000;fill-opacity:1;stroke:none;stroke-width:1;stroke-miterlimit:4;stroke-dasharray:none;stroke-opacity:1"
       id="layer"
       width="52.160713"
       height="52.160713"
       x="16.540472"
       y="726.09222"
       inkscape:label="#rect817-35-2" />
    <rect
       style="display:inline;opacity:1;fill:#ff0000;fill-opacity:1;stroke:none;stroke-width:1;stroke-miterlimit:4;stroke-dasharray:none;stroke-opacity:1"
       id="avatar"
       width="52.160713"
       height="52.160713"
       x="16.540472"
       y="784.30054"
       inkscape:label="#rect817-35-2" />
  </g>
</svg>
