<?xml version="1.0" encoding="UTF-8" standalone="no"?>
<!-- Created with Inkscape (http://www.inkscape.org/) -->

<svg
   xmlns:dc="http://purl.org/dc/elements/1.1/"
   xmlns:cc="http://creativecommons.org/ns#"
   xmlns:rdf="http://www.w3.org/1999/02/22-rdf-syntax-ns#"
   xmlns:svg="http://www.w3.org/2000/svg"
   xmlns="http://www.w3.org/2000/svg"
   xmlns:sodipodi="http://sodipodi.sourceforge.net/DTD/sodipodi-0.dtd"
   xmlns:inkscape="http://www.inkscape.org/namespaces/inkscape"
   width="135.19516mm"
   height="7.9073792mm"
   viewBox="0 0 135.19517 7.9073792"
   version="1.1"
   id="svg8"
   inkscape:version="0.92.5 (2060ec1f9f, 2020-04-08)"
   sodipodi:docname="motherboard-menu.svg">
  <defs
     id="defs2" />
  <sodipodi:namedview
     id="base"
     pagecolor="#ffffff"
     bordercolor="#666666"
     borderopacity="1.0"
     inkscape:pageopacity="0.0"
     inkscape:pageshadow="2"
     inkscape:zoom="1.4"
     inkscape:cx="401.0104"
     inkscape:cy="-22.035725"
     inkscape:document-units="mm"
     inkscape:current-layer="layer3"
     showgrid="false"
     inkscape:snap-global="false"
     inkscape:window-width="1366"
     inkscape:window-height="731"
     inkscape:window-x="0"
     inkscape:window-y="0"
     inkscape:window-maximized="1"
     fit-margin-top="0"
     fit-margin-left="0"
     fit-margin-right="0"
     fit-margin-bottom="0"
     showguides="true"
     inkscape:guide-bbox="true" />
  <metadata
     id="metadata5">
    <rdf:RDF>
      <cc:Work
         rdf:about="">
        <dc:format>image/svg+xml</dc:format>
        <dc:type
           rdf:resource="http://purl.org/dc/dcmitype/StillImage" />
        <dc:title />
      </cc:Work>
    </rdf:RDF>
  </metadata>
  <g
     inkscape:groupmode="layer"
     id="layer2"
     inkscape:label="background"
     style="display:none"
     transform="translate(3.3360219)">
    <rect
       style="opacity:1;fill:#000000;fill-opacity:1;stroke:none;stroke-width:0.72397828;stroke-miterlimit:4;stroke-dasharray:none;stroke-opacity:1"
       id="rect861"
       width="135.19516"
       height="7.9073792"
       x="-3.3360219"
       y="1.1080729e-07" />
  </g>
  <g
     inkscape:label="Layer 1"
     inkscape:groupmode="layer"
     id="layer1"
     transform="translate(-10.691695,-256.29041)"
     style="display:inline">
    <g
       style="display:inline"
       id="g1634"
       transform="translate(12.502067,256.50854)">
      <g
         id="g1878"
         transform="translate(-2.9399648)">
        <path
           d="m 6.2963147,3.1915922 q 0.1140674,-0.2049908 0.27277,-0.3025268 0.1587025,-0.097536 0.3736123,-0.097536 0.2893015,0 0.4463509,0.2033377 0.1570495,0.2016844 0.1570495,0.5752967 V 4.6876942 H 7.2402643 V 3.5800827 q 0,-0.2661574 -0.09423,-0.3951032 -0.09423,-0.1289458 -0.2876484,-0.1289458 -0.2364006,0 -0.3736122,0.1570494 Q 6.3475624,3.3701325 6.3475624,3.6412494 V 4.6876942 H 6.0417293 V 3.5800827 q 0,-0.2678105 -0.09423,-0.3951032 -0.09423,-0.1289458 -0.2909547,-0.1289458 -0.2330943,0 -0.3703059,0.1587025 Q 5.1490275,3.3717857 5.1490275,3.6412494 V 4.6876942 H 4.8431945 V 2.8361645 h 0.305833 v 0.2876484 q 0.1041486,-0.1702746 0.2496259,-0.2512791 0.1454773,-0.081004 0.3455087,-0.081004 0.2016845,0 0.3422024,0.1024955 0.142171,0.1024953 0.2099502,0.2975669 z"
           style="font-style:normal;font-weight:normal;font-size:40px;line-height:1.25;font-family:sans-serif;letter-spacing:0px;word-spacing:0px;display:inline;opacity:1;fill:#ff0000;fill-opacity:1;stroke:none;stroke-width:0.08464136"
           id="path1514"
           inkscape:connector-curvature="0" />
        <path
           d="m 8.8719247,3.0494211 q -0.2446662,0 -0.3868375,0.1917656 -0.1421709,0.1901124 -0.1421709,0.5223958 0,0.3322834 0.1405178,0.524049 0.1421712,0.1901125 0.3884906,0.1901125 0.2430135,0 0.3851844,-0.1917656 0.142171,-0.1917656 0.142171,-0.5223959 0,-0.3289771 -0.142171,-0.5207427 Q 9.1149382,3.0494211 8.8719247,3.0494211 Z m 0,-0.2578917 q 0.3967565,0 0.6232383,0.2578917 0.2264817,0.2578916 0.2264817,0.7141614 0,0.4546167 -0.2264817,0.7141615 -0.2264818,0.2578916 -0.6232383,0.2578916 -0.3984095,0 -0.6248913,-0.2578916 -0.2248283,-0.2595448 -0.2248283,-0.7141615 0,-0.4562698 0.2248283,-0.7141614 0.2264818,-0.2578917 0.6248913,-0.2578917 z"
           style="font-style:normal;font-weight:normal;font-size:40px;line-height:1.25;font-family:sans-serif;letter-spacing:0px;word-spacing:0px;display:inline;opacity:1;fill:#ffffff;fill-opacity:1;stroke:none;stroke-width:0.08464136"
           id="path1516"
           inkscape:connector-curvature="0" />
        <path
           d="m 10.005987,2.8361645 h 0.322364 l 0.578603,1.5539625 0.578603,-1.5539625 h 0.322365 L 11.113598,4.6876942 H 10.70031 Z"
           style="font-style:normal;font-weight:normal;font-size:40px;line-height:1.25;font-family:sans-serif;letter-spacing:0px;word-spacing:0px;display:inline;opacity:1;fill:#ffffff;fill-opacity:1;stroke:none;stroke-width:0.08464136"
           id="path1518"
           inkscape:connector-curvature="0" />
        <path
           d="m 13.811542,3.6858844 v 0.1487837 h -1.398567 q 0.01984,0.3140987 0.18846,0.4794138 0.170274,0.1636621 0.472801,0.1636621 0.175234,0 0.338896,-0.042982 0.165315,-0.042982 0.327324,-0.1289459 v 0.2876484 q -0.163662,0.069432 -0.33559,0.1058017 -0.171927,0.036369 -0.348814,0.036369 -0.443045,0 -0.70259,-0.2578916 -0.257892,-0.2578917 -0.257892,-0.6976299 0,-0.4546167 0.244667,-0.7207741 0.246319,-0.2678102 0.662914,-0.2678102 0.373612,0 0.590174,0.2413602 0.218217,0.2397069 0.218217,0.6529948 z m -0.30418,-0.08927 q -0.0033,-0.2496259 -0.140518,-0.3984095 -0.135559,-0.1487837 -0.360387,-0.1487837 -0.254585,0 -0.408329,0.1438242 -0.15209,0.1438242 -0.175234,0.4050221 z"
           style="font-style:normal;font-weight:normal;font-size:40px;line-height:1.25;font-family:sans-serif;letter-spacing:0px;word-spacing:0px;display:inline;opacity:1;fill:#ffffff;fill-opacity:1;stroke:none;stroke-width:0.08464136"
           id="path1520"
           inkscape:connector-curvature="0" />
      </g>
    </g>
    <g
       style="display:inline"
       id="g1660"
       transform="translate(13.70478,256.46528)">
      <path
         inkscape:connector-curvature="0"
         id="path1522"
         style="font-style:normal;font-weight:normal;font-size:40px;line-height:1.25;font-family:sans-serif;letter-spacing:0px;word-spacing:0px;display:inline;opacity:1;fill:#ff0000;fill-opacity:1;stroke:none;stroke-width:0.08464136"
         d="m 16.230103,3.7569699 q -0.368653,0 -0.510824,0.084311 -0.142171,0.084311 -0.142171,0.2876483 0,0.1620089 0.105801,0.2578917 0.107455,0.09423 0.290955,0.09423 0.252932,0 0.405022,-0.1785404 0.153743,-0.1801942 0.153743,-0.4777614 v -0.067779 z m 0.606706,-0.1256396 v 1.0563639 h -0.30418 V 4.4066584 q -0.104148,0.1686215 -0.259544,0.2496259 -0.155397,0.079351 -0.380225,0.079351 -0.284342,0 -0.452964,-0.1587026 -0.166968,-0.1603553 -0.166968,-0.4281659 0,-0.3124456 0.208297,-0.4711482 0.20995,-0.1587026 0.624891,-0.1587026 h 0.426513 V 3.489159 q 0,-0.2099502 -0.138864,-0.3240176 -0.137212,-0.1157207 -0.386838,-0.1157207 -0.158702,0 -0.309139,0.038022 -0.150437,0.038023 -0.289302,0.1140677 V 2.9204753 q 0.166968,-0.064473 0.324018,-0.095883 0.15705,-0.033063 0.305833,-0.033063 0.401715,0 0.600094,0.2082972 0.198378,0.208297 0.198378,0.6315038 z" />
      <path
         inkscape:connector-curvature="0"
         id="path1524"
         style="font-style:normal;font-weight:normal;font-size:40px;line-height:1.25;font-family:sans-serif;letter-spacing:0px;word-spacing:0px;display:inline;opacity:1;fill:#ffffff;fill-opacity:1;stroke:none;stroke-width:0.08464136"
         d="m 19.004091,3.5701638 v 1.1175304 h -0.30418 V 3.5800826 q 0,-0.262851 -0.102495,-0.39345 -0.102496,-0.130599 -0.307487,-0.130599 -0.246319,0 -0.38849,0.1570494 -0.142171,0.1570494 -0.142171,0.4281663 V 4.6876942 H 17.453435 V 2.8361645 h 0.305833 v 0.2876483 q 0.109107,-0.1669683 0.256239,-0.2496258 0.148783,-0.082658 0.342201,-0.082658 0.319059,0 0.482721,0.1983782 0.163662,0.196725 0.163662,0.5802566 z" />
      <path
         inkscape:connector-curvature="0"
         id="path1526"
         style="font-style:normal;font-weight:normal;font-size:40px;line-height:1.25;font-family:sans-serif;letter-spacing:0px;word-spacing:0px;display:inline;opacity:1;fill:#ffffff;fill-opacity:1;stroke:none;stroke-width:0.08464136"
         d="M 20.832477,3.1172002 V 2.1153904 h 0.30418 v 2.5723038 h -0.30418 V 4.4099648 q -0.09588,0.1653151 -0.243014,0.2463195 -0.145477,0.079351 -0.350468,0.079351 -0.33559,0 -0.547193,-0.2678105 -0.209951,-0.2678106 -0.209951,-0.7042426 0,-0.436432 0.209951,-0.7042425 0.211603,-0.2678106 0.547193,-0.2678106 0.204991,0 0.350468,0.081004 0.14713,0.079351 0.243014,0.2446671 z M 19.79595,3.7635825 q 0,0.3355898 0.137212,0.5273553 0.138865,0.1901125 0.380225,0.1901125 0.24136,0 0.380225,-0.1901125 0.138865,-0.1917655 0.138865,-0.5273553 0,-0.3355898 -0.138865,-0.5257022 -0.138865,-0.1917655 -0.380225,-0.1917655 -0.24136,0 -0.380225,0.1917655 -0.137212,0.1901124 -0.137212,0.5257022 z" />
    </g>
    <g
       style="display:inline"
       id="g1682"
       transform="translate(17.893552,256.44172)">
      <path
         inkscape:connector-curvature="0"
         id="path1528"
         style="font-style:normal;font-weight:normal;font-size:40px;line-height:1.25;font-family:sans-serif;letter-spacing:0px;word-spacing:0px;display:inline;opacity:1;fill:#ff0000;fill-opacity:1;stroke:none;stroke-width:0.08464136"
         d="m 23.558524,3.0494211 q -0.244667,0 -0.386839,0.1917656 -0.14217,0.1901124 -0.14217,0.5223958 0,0.3322834 0.140517,0.524049 0.142172,0.1901125 0.388492,0.1901125 0.243013,0 0.385184,-0.1917656 0.142171,-0.1917656 0.142171,-0.5223959 0,-0.3289771 -0.142171,-0.5207427 -0.142171,-0.1934187 -0.385184,-0.1934187 z m 0,-0.2578917 q 0.396756,0 0.623238,0.2578917 0.226481,0.2578916 0.226481,0.7141614 0,0.4546167 -0.226481,0.7141615 -0.226482,0.2578916 -0.623238,0.2578916 -0.39841,0 -0.624892,-0.2578916 -0.224829,-0.2595448 -0.224829,-0.7141615 0,-0.4562698 0.224829,-0.7141614 0.226482,-0.2578917 0.624892,-0.2578917 z" />
      <path
         inkscape:connector-curvature="0"
         id="path1530"
         style="font-style:normal;font-weight:normal;font-size:40px;line-height:1.25;font-family:sans-serif;letter-spacing:0px;word-spacing:0px;display:inline;opacity:1;fill:#ffffff;fill-opacity:1;stroke:none;stroke-width:0.08464136"
         d="m 25.983696,3.1205066 q -0.05125,-0.029757 -0.112413,-0.042982 -0.05951,-0.014878 -0.132253,-0.014878 -0.257892,0 -0.396756,0.1686215 -0.137212,0.1669683 -0.137212,0.481067 V 4.6876942 H 24.899229 V 2.8361645 h 0.305833 v 0.2876484 q 0.09588,-0.1686214 0.249626,-0.2496258 0.153744,-0.082658 0.373612,-0.082658 0.03141,0 0.06943,0.00496 0.03802,0.00331 0.08431,0.011572 z" />
    </g>
    <g
       style="display:inline"
       id="g1708"
       transform="translate(21.290014,256.4651)">
      <path
         inkscape:connector-curvature="0"
         id="path1532"
         style="font-style:normal;font-weight:normal;font-size:40px;line-height:1.25;font-family:sans-serif;letter-spacing:0px;word-spacing:0px;display:inline;opacity:1;fill:#ff0000;fill-opacity:1;stroke:none;stroke-width:0.08464136"
         d="M 28.923,3.5701639 V 4.6876944 H 28.61882 V 3.5800828 q 0,-0.2628511 -0.102494,-0.39345 -0.102496,-0.130599 -0.307487,-0.130599 -0.246319,0 -0.38849,0.1570494 -0.142172,0.1570494 -0.142172,0.4281663 V 4.6876944 H 27.372344 V 2.8361647 h 0.305833 V 3.123813 q 0.109108,-0.1669683 0.256239,-0.2496258 0.148784,-0.082658 0.342202,-0.082658 0.319059,0 0.482721,0.1983782 Q 28.923,3.1866328 28.923,3.5701639 Z" />
      <path
         inkscape:connector-curvature="0"
         id="path1534"
         style="font-style:normal;font-weight:normal;font-size:40px;line-height:1.25;font-family:sans-serif;letter-spacing:0px;word-spacing:0px;display:inline;opacity:1;fill:#ffffff;fill-opacity:1;stroke:none;stroke-width:0.08464136"
         d="m 30.250482,3.0494212 q -0.244667,0 -0.386839,0.1917656 -0.14217,0.1901124 -0.14217,0.5223958 0,0.3322835 0.140517,0.5240491 0.142172,0.1901124 0.388492,0.1901124 0.243012,0 0.385184,-0.1917656 0.142171,-0.1917656 0.142171,-0.5223959 0,-0.3289772 -0.142171,-0.5207427 -0.142172,-0.1934187 -0.385184,-0.1934187 z m 0,-0.2578917 q 0.396756,0 0.623238,0.2578917 0.226481,0.2578916 0.226481,0.7141614 0,0.4546167 -0.226481,0.7141615 -0.226482,0.2578916 -0.623238,0.2578916 -0.39841,0 -0.624892,-0.2578916 -0.224829,-0.2595448 -0.224829,-0.7141615 0,-0.4562698 0.224829,-0.7141614 0.226482,-0.2578917 0.624892,-0.2578917 z" />
      <path
         inkscape:connector-curvature="0"
         id="path1536"
         style="font-style:normal;font-weight:normal;font-size:40px;line-height:1.25;font-family:sans-serif;letter-spacing:0px;word-spacing:0px;display:inline;opacity:1;fill:#ffffff;fill-opacity:1;stroke:none;stroke-width:0.08464136"
         d="m 31.903633,2.3104624 v 0.5257023 h 0.626544 v 0.2364006 h -0.626544 v 1.0051162 q 0,0.2264817 0.06117,0.2909546 0.06282,0.064473 0.252932,0.064473 h 0.312446 v 0.2545853 h -0.312446 q -0.352121,0 -0.486026,-0.130599 Q 31.5978,4.4248433 31.5978,4.0776815 V 3.0725653 H 31.374624 V 2.8361647 H 31.5978 V 2.3104624 Z" />
    </g>
    <g
       style="display:inline"
       id="g1762"
       transform="translate(25.117023,256.46241)">
      <path
         inkscape:connector-curvature="0"
         id="path1538"
         style="font-style:normal;font-weight:normal;font-size:40px;line-height:1.25;font-family:sans-serif;letter-spacing:0px;word-spacing:0px;display:inline;opacity:1;fill:#ff0000;fill-opacity:1;stroke:none;stroke-width:0.08464136"
         d="M 35.228121,3.1172002 V 2.1153904 h 0.30418 v 2.5723038 h -0.30418 V 4.4099648 q -0.09588,0.1653151 -0.243013,0.2463195 -0.145478,0.079351 -0.350469,0.079351 -0.335589,0 -0.547193,-0.2678105 -0.20995,-0.2678103 -0.20995,-0.7042423 0,-0.436432 0.20995,-0.7042425 0.211604,-0.2678106 0.547193,-0.2678106 0.204991,0 0.350469,0.081004 0.14713,0.079351 0.243013,0.2446668 z m -1.036526,0.6463823 q 0,0.3355898 0.137211,0.5273553 0.138865,0.1901125 0.380225,0.1901125 0.24136,0 0.380225,-0.1901125 0.138865,-0.1917655 0.138865,-0.5273553 0,-0.3355898 -0.138865,-0.5257022 -0.138865,-0.1917655 -0.380225,-0.1917655 -0.24136,0 -0.380225,0.1917655 -0.137211,0.1901124 -0.137211,0.5257022 z" />
      <path
         inkscape:connector-curvature="0"
         id="path1540"
         style="font-style:normal;font-weight:normal;font-size:40px;line-height:1.25;font-family:sans-serif;letter-spacing:0px;word-spacing:0px;display:inline;opacity:1;fill:#ffffff;fill-opacity:1;stroke:none;stroke-width:0.08464136"
         d="M 37.742564,3.6858843 V 3.834668 h -1.398566 q 0.01984,0.3140988 0.18846,0.4794139 0.170274,0.163662 0.4728,0.163662 0.175235,0 0.338897,-0.042982 0.165315,-0.042982 0.327324,-0.1289458 v 0.2876484 q -0.163663,0.069432 -0.33559,0.1058017 -0.171928,0.036369 -0.348815,0.036369 -0.443044,0 -0.702589,-0.2578917 -0.257892,-0.2578916 -0.257892,-0.6976299 0,-0.4546167 0.244666,-0.720774 0.24632,-0.2678106 0.662914,-0.2678106 0.373612,0 0.590176,0.2413601 0.218215,0.2397074 0.218215,0.6529952 z m -0.30418,-0.08927 Q 37.435074,3.3469883 37.297867,3.1982047 37.162308,3.049421 36.937479,3.049421 q -0.254585,0 -0.408328,0.1438242 -0.15209,0.1438242 -0.175234,0.4050221 z" />
      <path
         inkscape:connector-curvature="0"
         id="path1542"
         style="font-style:normal;font-weight:normal;font-size:40px;line-height:1.25;font-family:sans-serif;letter-spacing:0px;word-spacing:0px;display:inline;opacity:1;fill:#ffffff;fill-opacity:1;stroke:none;stroke-width:0.08464136"
         d="m 38.241816,2.1153904 h 0.30418 v 2.5723038 h -0.30418 z" />
      <path
         inkscape:connector-curvature="0"
         id="path1544"
         style="font-style:normal;font-weight:normal;font-size:40px;line-height:1.25;font-family:sans-serif;letter-spacing:0px;word-spacing:0px;display:inline;opacity:1;fill:#ffffff;fill-opacity:1;stroke:none;stroke-width:0.08464136"
         d="M 40.764526,3.6858843 V 3.834668 h -1.398567 q 0.01984,0.3140988 0.188459,0.4794139 0.170275,0.163662 0.472802,0.163662 0.175234,0 0.338896,-0.042982 0.165315,-0.042982 0.327323,-0.1289458 v 0.2876484 q -0.163661,0.069432 -0.335589,0.1058017 -0.171928,0.036369 -0.348815,0.036369 -0.443045,0 -0.70259,-0.2578917 -0.257891,-0.2578916 -0.257891,-0.6976299 0,-0.4546167 0.244666,-0.720774 0.24632,-0.2678106 0.662915,-0.2678106 0.373612,0 0.590174,0.2413601 0.218217,0.2397074 0.218217,0.6529952 z m -0.30418,-0.08927 Q 40.457036,3.3469883 40.319827,3.1982047 40.184269,3.049421 39.959441,3.049421 q -0.254585,0 -0.408329,0.1438242 -0.15209,0.1438242 -0.175234,0.4050221 z" />
      <path
         inkscape:connector-curvature="0"
         id="path1546"
         style="font-style:normal;font-weight:normal;font-size:40px;line-height:1.25;font-family:sans-serif;letter-spacing:0px;word-spacing:0px;display:inline;opacity:1;fill:#ffffff;fill-opacity:1;stroke:none;stroke-width:0.08464136"
         d="m 41.56465,2.3104623 v 0.5257022 h 0.626545 V 3.0725652 H 41.56465 v 1.0051161 q 0,0.2264818 0.06117,0.2909547 0.06282,0.064473 0.252933,0.064473 h 0.312445 V 4.6876942 H 41.87875 q -0.352122,0 -0.486027,-0.130599 Q 41.258818,4.4248431 41.258818,4.0776813 V 3.0725652 H 41.035642 V 2.8361645 h 0.223176 V 2.3104623 Z" />
      <path
         inkscape:connector-curvature="0"
         id="path1548"
         style="font-style:normal;font-weight:normal;font-size:40px;line-height:1.25;font-family:sans-serif;letter-spacing:0px;word-spacing:0px;display:inline;opacity:1;fill:#ffffff;fill-opacity:1;stroke:none;stroke-width:0.08464136"
         d="M 44.17663,3.6858843 V 3.834668 h -1.398566 q 0.01984,0.3140988 0.188459,0.4794139 0.170275,0.163662 0.472802,0.163662 0.175234,0 0.338896,-0.042982 0.165315,-0.042982 0.327323,-0.1289458 v 0.2876484 q -0.163661,0.069432 -0.335589,0.1058017 -0.171928,0.036369 -0.348815,0.036369 -0.443045,0 -0.70259,-0.2578917 -0.257891,-0.2578916 -0.257891,-0.6976299 0,-0.4546167 0.244666,-0.720774 0.24632,-0.2678106 0.662914,-0.2678106 0.373612,0 0.590175,0.2413601 0.218216,0.239707 0.218216,0.6529952 z m -0.304179,-0.08927 Q 43.869141,3.3469883 43.731932,3.1982047 43.596374,3.049421 43.371546,3.049421 q -0.254586,0 -0.408329,0.1438242 -0.15209,0.1438242 -0.175234,0.4050221 z" />
    </g>
    <g
       style="display:inline"
       id="g1846"
       transform="translate(32.957163,256.51846)">
      <path
         inkscape:connector-curvature="0"
         id="path1564"
         style="font-style:normal;font-weight:normal;font-size:40px;line-height:1.25;font-family:sans-serif;letter-spacing:0px;word-spacing:0px;display:inline;opacity:1;fill:#ff0000;fill-opacity:1;stroke:none;stroke-width:0.08464136"
         d="m 60.642019,2.3104623 v 0.5257022 h 0.626544 v 0.2364007 h -0.626544 v 1.0051161 q 0,0.2264818 0.06117,0.2909547 0.06282,0.064473 0.252932,0.064473 h 0.312446 v 0.2545852 h -0.312446 q -0.352121,0 -0.486026,-0.130599 Q 60.336186,4.4248431 60.336186,4.0776813 V 3.0725652 H 60.113011 V 2.8361645 h 0.223175 V 2.3104623 Z" />
      <path
         inkscape:connector-curvature="0"
         id="path1566"
         style="font-style:normal;font-weight:normal;font-size:40px;line-height:1.25;font-family:sans-serif;letter-spacing:0px;word-spacing:0px;display:inline;opacity:1;fill:#ffffff;fill-opacity:1;stroke:none;stroke-width:0.08464136"
         d="m 62.743175,3.1205066 q -0.05125,-0.029757 -0.112415,-0.042982 -0.05951,-0.014878 -0.132252,-0.014878 -0.257891,0 -0.396756,0.1686215 Q 61.96454,3.398236 61.96454,3.7123348 V 4.6876942 H 61.658707 V 2.8361645 h 0.305833 v 0.2876483 q 0.09588,-0.1686214 0.249626,-0.2496258 0.153743,-0.082658 0.373612,-0.082658 0.03141,0 0.06943,0.00496 0.03802,0.00331 0.08431,0.011572 z" />
      <path
         inkscape:connector-curvature="0"
         id="path1568"
         style="font-style:normal;font-weight:normal;font-size:40px;line-height:1.25;font-family:sans-serif;letter-spacing:0px;word-spacing:0px;display:inline;opacity:1;fill:#ffffff;fill-opacity:1;stroke:none;stroke-width:0.08464136"
         d="m 63.065539,2.8361645 h 0.30418 v 1.8515297 h -0.30418 z m 0,-0.7207741 h 0.30418 v 0.3851843 h -0.30418 z" />
      <path
         inkscape:connector-curvature="0"
         id="path1570"
         style="font-style:normal;font-weight:normal;font-size:40px;line-height:1.25;font-family:sans-serif;letter-spacing:0px;word-spacing:0px;display:inline;opacity:1;fill:#ffffff;fill-opacity:1;stroke:none;stroke-width:0.08464136"
         d="m 65.222902,3.7404384 q 0,-0.3306303 -0.137211,-0.512477 -0.13556,-0.1818466 -0.381879,-0.1818466 -0.244666,0 -0.381878,0.1818466 -0.135558,0.1818467 -0.135558,0.512477 0,0.3289771 0.135558,0.5108238 0.137212,0.1818466 0.381878,0.1818466 0.246319,0 0.381879,-0.1818466 0.137211,-0.1818467 0.137211,-0.5108238 z m 0.30418,0.7174677 q 0,0.4728015 -0.209951,0.7025895 -0.20995,0.2314411 -0.643075,0.2314411 -0.160357,0 -0.302527,-0.024797 -0.142171,-0.023143 -0.276077,-0.072738 V 4.9984872 q 0.133906,0.072739 0.264505,0.1074548 0.130599,0.034716 0.266157,0.034716 0.299221,0 0.448004,-0.1570493 0.148784,-0.1553962 0.148784,-0.4711481 V 4.3620234 q -0.09423,0.1636619 -0.24136,0.2446664 -0.147131,0.081004 -0.352122,0.081004 -0.340549,0 -0.548846,-0.2595448 -0.208297,-0.2595448 -0.208297,-0.687711 0,-0.4298194 0.208297,-0.6893642 0.208297,-0.2595448 0.548846,-0.2595448 0.204991,0 0.352122,0.081004 0.14713,0.081005 0.24136,0.2446664 V 2.8361645 h 0.30418 z" />
      <path
         inkscape:connector-curvature="0"
         id="path1572"
         style="font-style:normal;font-weight:normal;font-size:40px;line-height:1.25;font-family:sans-serif;letter-spacing:0px;word-spacing:0px;display:inline;opacity:1;fill:#ffffff;fill-opacity:1;stroke:none;stroke-width:0.08464136"
         d="m 67.371999,3.7404384 q 0,-0.3306303 -0.137212,-0.512477 -0.135558,-0.1818466 -0.381878,-0.1818466 -0.244666,0 -0.381878,0.1818466 -0.135558,0.1818467 -0.135558,0.512477 0,0.3289771 0.135558,0.5108238 0.137212,0.1818466 0.381878,0.1818466 0.24632,0 0.381878,-0.1818466 0.137212,-0.1818467 0.137212,-0.5108238 z m 0.30418,0.7174677 q 0,0.4728015 -0.20995,0.7025895 -0.209951,0.2314411 -0.643077,0.2314411 -0.160355,0 -0.302527,-0.024797 -0.142171,-0.023143 -0.276076,-0.072738 V 4.9984872 q 0.133905,0.072739 0.264504,0.1074548 0.130599,0.034716 0.266158,0.034716 0.29922,0 0.448004,-0.1570493 0.148784,-0.1553962 0.148784,-0.4711481 V 4.3620234 q -0.09423,0.1636619 -0.241361,0.2446664 -0.14713,0.081004 -0.35212,0.081004 -0.34055,0 -0.548847,-0.2595448 -0.208297,-0.2595448 -0.208297,-0.687711 0,-0.4298194 0.208297,-0.6893642 0.208297,-0.2595448 0.548847,-0.2595448 0.20499,0 0.35212,0.081004 0.147131,0.081005 0.241361,0.2446664 V 2.8361645 h 0.30418 z" />
      <path
         inkscape:connector-curvature="0"
         id="path1574"
         style="font-style:normal;font-weight:normal;font-size:40px;line-height:1.25;font-family:sans-serif;letter-spacing:0px;word-spacing:0px;display:inline;opacity:1;fill:#ffffff;fill-opacity:1;stroke:none;stroke-width:0.08464136"
         d="M 69.886442,3.6858843 V 3.834668 h -1.398566 q 0.01984,0.3140988 0.188459,0.4794139 0.170275,0.163662 0.472802,0.163662 0.175234,0 0.338896,-0.042982 0.165315,-0.042982 0.327324,-0.1289458 v 0.2876484 q -0.163662,0.069432 -0.33559,0.1058017 -0.171928,0.036369 -0.348815,0.036369 -0.443045,0 -0.70259,-0.2578917 -0.257891,-0.2578916 -0.257891,-0.6976299 0,-0.4546167 0.244666,-0.720774 0.24632,-0.2678106 0.662914,-0.2678106 0.373612,0 0.590175,0.2413601 0.218216,0.2397074 0.218216,0.6529952 z m -0.304179,-0.08927 Q 69.578953,3.3469883 69.441744,3.1982047 69.306186,3.049421 69.081358,3.049421 q -0.254586,0 -0.408329,0.1438242 -0.15209,0.1438242 -0.175234,0.4050221 z" />
      <path
         inkscape:connector-curvature="0"
         id="path1576"
         style="font-style:normal;font-weight:normal;font-size:40px;line-height:1.25;font-family:sans-serif;letter-spacing:0px;word-spacing:0px;display:inline;opacity:1;fill:#ffffff;fill-opacity:1;stroke:none;stroke-width:0.08464136"
         d="m 71.45859,3.1205066 q -0.05125,-0.029757 -0.112414,-0.042982 -0.05951,-0.014878 -0.132253,-0.014878 -0.257891,0 -0.396756,0.1686216 -0.137211,0.1669681 -0.137211,0.481067 v 0.975359 H 70.374123 V 2.8361645 h 0.305833 v 0.2876483 q 0.09588,-0.1686214 0.249626,-0.2496258 0.153742,-0.082658 0.373612,-0.082658 0.03141,0 0.06943,0.00496 0.03802,0.00331 0.08431,0.011572 z" />
    </g>
    <g
       style="display:inline"
       id="g1872"
       transform="translate(36.692543,256.50854)">
      <path
         inkscape:connector-curvature="0"
         id="path1578"
         style="font-style:normal;font-weight:normal;font-size:40px;line-height:1.25;font-family:sans-serif;letter-spacing:0px;word-spacing:0px;display:inline;opacity:1;fill:#ff0000;fill-opacity:1;stroke:none;stroke-width:0.08464136"
         d="m 73.931704,3.1205066 q -0.05125,-0.029757 -0.112414,-0.042982 -0.05951,-0.014878 -0.132252,-0.014878 -0.257892,0 -0.396757,0.1686215 -0.137211,0.1669683 -0.137211,0.481067 V 4.6876942 H 72.847237 V 2.8361645 h 0.305833 v 0.2876484 q 0.09588,-0.1686214 0.249626,-0.2496258 0.153743,-0.082658 0.373612,-0.082658 0.03141,0 0.06943,0.00496 0.03802,0.00331 0.08431,0.011572 z" />
      <path
         inkscape:connector-curvature="0"
         id="path1580"
         style="font-style:normal;font-weight:normal;font-size:40px;line-height:1.25;font-family:sans-serif;letter-spacing:0px;word-spacing:0px;display:inline;opacity:1;fill:#ffffff;fill-opacity:1;stroke:none;stroke-width:0.08464136"
         d="M 74.222659,3.9570012 V 2.8361645 h 0.30418 v 1.1092647 q 0,0.2628511 0.102495,0.3951032 0.102495,0.130599 0.307487,0.130599 0.246319,0 0.38849,-0.1570495 0.143824,-0.1570493 0.143824,-0.4281661 V 2.8361645 h 0.30418 v 1.8515297 h -0.30418 v -0.284342 q -0.110761,0.1686214 -0.257892,0.251279 -0.145477,0.081004 -0.338895,0.081004 -0.319059,0 -0.484374,-0.1983782 -0.165315,-0.1983778 -0.165315,-0.5802558 z m 0.765409,-1.1654718 z" />
      <path
         inkscape:connector-curvature="0"
         id="path1582"
         style="font-style:normal;font-weight:normal;font-size:40px;line-height:1.25;font-family:sans-serif;letter-spacing:0px;word-spacing:0px;display:inline;opacity:1;fill:#ffffff;fill-opacity:1;stroke:none;stroke-width:0.08464136"
         d="M 77.94225,3.5701638 V 4.6876942 H 77.63807 V 3.5800827 q 0,-0.262851 -0.102496,-0.39345 -0.102495,-0.130599 -0.307485,-0.130599 -0.24632,0 -0.388492,0.1570494 -0.14217,0.1570494 -0.14217,0.4281663 V 4.6876942 H 76.391594 V 2.8361645 h 0.305833 v 0.2876484 q 0.109108,-0.1669683 0.256238,-0.2496258 0.148784,-0.082658 0.342203,-0.082658 0.319058,0 0.482719,0.1983782 0.163663,0.1967251 0.163663,0.5802565 z" />
    </g>
    <g
       aria-label="move and or not delete connect trigger run "
       transform="matrix(0.08464136,0,0,0.08464136,43.246615,254.21234)"
       style="font-style:normal;font-weight:normal;font-size:40px;line-height:1.25;font-family:sans-serif;letter-spacing:0px;word-spacing:0px;display:inline;opacity:1;fill:#ffffff;fill-opacity:1;stroke:none"
       id="flowRoot1472">
      <g
         aria-label="script"
         transform="matrix(0.99133113,0,0,0.99133113,917.92214,360.29944)"
         style="font-style:normal;font-weight:normal;font-size:40px;line-height:1.25;font-family:sans-serif;letter-spacing:0px;word-spacing:0px;fill:#ffffff;fill-opacity:1;stroke:none"
         id="flowRoot1585">
        <path
           d="m -1.4785156,-301.42578 v 3.39844 q -1.5234375,-0.78125 -3.1640625,-1.17188 -1.640625,-0.39062 -3.3984375,-0.39062 -2.6757814,0 -4.0234374,0.82031 -1.328125,0.82031 -1.328125,2.46094 0,1.25 0.957031,1.97265 0.957031,0.70313 3.8476564,1.34766 l 1.2304687,0.27344 q 3.828125,0.82031 5.4296875,2.32422 1.62109377,1.48437 1.62109377,4.16015 0,3.04688 -2.42187497,4.82422 -2.4023438,1.77734 -6.6210938,1.77734 -1.7578126,0 -3.6718746,-0.35156 -1.894532,-0.33203 -4.003907,-1.01562 v -3.71094 q 1.992188,1.03516 3.925782,1.5625 1.933593,0.50781 3.8281246,0.50781 2.5390625,0 3.90625,-0.85937 1.3671875,-0.87891 1.3671875,-2.46094 0,-1.46484 -0.9960937,-2.24609 -0.9765625,-0.78125 -4.3164063,-1.50391 L -10.560547,-290 q -3.339844,-0.70312 -4.824219,-2.14844 -1.484375,-1.46484 -1.484375,-4.0039 0,-3.08594 2.1875,-4.76563 2.1875,-1.67969 6.2109379,-1.67969 1.9921875,0 3.75,0.29297 1.7578125,0.29297 3.2421875,0.87891 z"
           style="fill:#ff0000"
           id="path1593"
           inkscape:connector-curvature="0" />
        <path
           d="m 21.177734,-301.23047 v 3.35938 q -1.523437,-0.83985 -3.066406,-1.25 -1.523437,-0.42969 -3.085937,-0.42969 -3.496094,0 -5.4296879,2.22656 -1.9335937,2.20703 -1.9335937,6.21094 0,4.00391 1.9335937,6.23047 1.9335939,2.20703 5.4296879,2.20703 1.5625,0 3.085937,-0.41016 1.542969,-0.42968 3.066406,-1.26953 v 3.32031 q -1.503906,0.70313 -3.125,1.05469 -1.601562,0.35156 -3.417968,0.35156 -4.9414066,0 -7.8515629,-3.10546 -2.9101562,-3.10547 -2.9101562,-8.37891 0,-5.35156 2.9296875,-8.41797 2.9492187,-3.06641 8.0664066,-3.06641 1.660156,0 3.242187,0.35157 1.582031,0.33203 3.066406,1.01562 z"
           style="fill:#ffffff"
           id="path1595"
           inkscape:connector-curvature="0" />
        <path
           d="m 40.142578,-298.71094 q -0.605469,-0.35156 -1.328125,-0.50781 -0.703125,-0.17578 -1.5625,-0.17578 -3.046875,0 -4.6875,1.99219 -1.621094,1.97265 -1.621094,5.68359 v 11.52344 h -3.613281 v -21.875 h 3.613281 v 3.39844 q 1.132813,-1.99219 2.949219,-2.94922 1.816406,-0.97657 4.414063,-0.97657 0.371093,0 0.820312,0.0586 0.449219,0.0391 0.996094,0.13672 z"
           style="fill:#ffffff"
           id="path1597"
           inkscape:connector-curvature="0" />
        <path
           d="m 43.951172,-302.07031 h 3.59375 v 21.875 h -3.59375 z m 0,-8.51563 h 3.59375 v 4.55078 h -3.59375 z"
           style="fill:#ffffff"
           id="path1599"
           inkscape:connector-curvature="0" />
        <path
           d="m 58.521484,-283.47656 v 11.60156 h -3.613281 v -30.19531 h 3.613281 v 3.32031 q 1.132813,-1.95312 2.851563,-2.89062 1.738281,-0.95704 4.140625,-0.95704 3.984375,0 6.464844,3.16407 2.5,3.16406 2.5,8.32031 0,5.15625 -2.5,8.32031 -2.480469,3.16406 -6.464844,3.16406 -2.402344,0 -4.140625,-0.9375 -1.71875,-0.95703 -2.851563,-2.91015 z m 12.226563,-7.63672 q 0,-3.96484 -1.640625,-6.21094 -1.621094,-2.26562 -4.472656,-2.26562 -2.851563,0 -4.492188,2.26562 -1.621094,2.2461 -1.621094,6.21094 0,3.96484 1.621094,6.23047 1.640625,2.24609 4.492188,2.24609 2.851562,0 4.472656,-2.24609 1.640625,-2.26563 1.640625,-6.23047 z"
           style="fill:#ffffff"
           id="path1601"
           inkscape:connector-curvature="0" />
        <path
           d="m 83.990234,-308.28125 v 6.21094 h 7.402344 v 2.79297 h -7.402344 v 11.875 q 0,2.67578 0.722657,3.4375 0.742187,0.76172 2.988281,0.76172 h 3.691406 v 3.00781 h -3.691406 q -4.160156,0 -5.742188,-1.54297 -1.582031,-1.5625 -1.582031,-5.66406 v -11.875 h -2.636719 v -2.79297 h 2.636719 v -6.21094 z"
           style="fill:#ffffff"
           id="path1603"
           inkscape:connector-curvature="0" />
      </g>
    </g>
    <g
       id="g1804"
       transform="translate(15.058056,0.12457781)">
      <path
         inkscape:connector-curvature="0"
         id="path1550"
         style="font-style:normal;font-weight:normal;font-size:40px;line-height:1.25;font-family:sans-serif;letter-spacing:0px;word-spacing:0px;display:inline;opacity:1;fill:#ff0000;fill-opacity:1;stroke:none;stroke-width:0.08464136"
         d="m 61.113894,259.19766 v 0.28434 q -0.128946,-0.0711 -0.259545,-0.1058 -0.128946,-0.0364 -0.261198,-0.0364 -0.295914,0 -0.459575,0.18846 -0.163663,0.1868 -0.163663,0.5257 0,0.3389 0.163663,0.52736 0.163661,0.1868 0.459575,0.1868 0.132252,0 0.261198,-0.0347 0.130599,-0.0364 0.259545,-0.10746 v 0.28104 q -0.127292,0.0595 -0.264504,0.0893 -0.135559,0.0297 -0.289301,0.0297 -0.418248,0 -0.664567,-0.26285 -0.24632,-0.26285 -0.24632,-0.7092 0,-0.45296 0.247973,-0.71251 0.249626,-0.25954 0.682751,-0.25954 0.140518,0 0.274423,0.0297 0.133906,0.0281 0.259545,0.086 z" />
      <path
         inkscape:connector-curvature="0"
         id="path1552"
         style="font-style:normal;font-weight:normal;font-size:40px;line-height:1.25;font-family:sans-serif;letter-spacing:0px;word-spacing:0px;display:inline;opacity:1;fill:#ffffff;fill-opacity:1;stroke:none;stroke-width:0.08464136"
         d="m 62.363677,259.33983 q -0.244666,0 -0.386838,0.19176 -0.142171,0.19012 -0.142171,0.5224 0,0.33228 0.140518,0.52405 0.142172,0.19011 0.388491,0.19011 0.243013,0 0.385184,-0.19176 0.142171,-0.19177 0.142171,-0.5224 0,-0.32898 -0.142171,-0.52074 -0.142171,-0.19342 -0.385184,-0.19342 z m 0,-0.25789 q 0.396756,0 0.623238,0.25789 0.226481,0.25789 0.226481,0.71416 0,0.45462 -0.226481,0.71416 -0.226482,0.25789 -0.623238,0.25789 -0.39841,0 -0.624891,-0.25789 -0.224829,-0.25954 -0.224829,-0.71416 0,-0.45627 0.224829,-0.71416 0.226481,-0.25789 0.624891,-0.25789 z" />
      <path
         inkscape:connector-curvature="0"
         id="path1554"
         style="font-style:normal;font-weight:normal;font-size:40px;line-height:1.25;font-family:sans-serif;letter-spacing:0px;word-spacing:0px;display:inline;opacity:1;fill:#ffffff;fill-opacity:1;stroke:none;stroke-width:0.08464136"
         d="m 65.255039,259.86057 v 1.11753 h -0.30418 v -1.10761 q 0,-0.26285 -0.102496,-0.39345 -0.102495,-0.1306 -0.307485,-0.1306 -0.24632,0 -0.388491,0.15705 -0.142171,0.15705 -0.142171,0.42817 v 1.04644 h -0.305833 v -1.85153 h 0.305833 v 0.28765 q 0.109108,-0.16697 0.256238,-0.24963 0.148784,-0.0827 0.342203,-0.0827 0.319058,0 0.482719,0.19838 0.163663,0.19672 0.163663,0.58025 z" />
      <path
         inkscape:connector-curvature="0"
         id="path1556"
         style="font-style:normal;font-weight:normal;font-size:40px;line-height:1.25;font-family:sans-serif;letter-spacing:0px;word-spacing:0px;display:inline;opacity:1;fill:#ffffff;fill-opacity:1;stroke:none;stroke-width:0.08464136"
         d="m 67.404136,259.86057 v 1.11753 h -0.30418 v -1.10761 q 0,-0.26285 -0.102495,-0.39345 -0.102496,-0.1306 -0.307487,-0.1306 -0.246319,0 -0.38849,0.15705 -0.142172,0.15705 -0.142172,0.42817 v 1.04644 H 65.85348 v -1.85153 h 0.305832 v 0.28765 q 0.109108,-0.16697 0.25624,-0.24963 0.148783,-0.0827 0.342201,-0.0827 0.319059,0 0.482721,0.19838 0.163662,0.19672 0.163662,0.58025 z" />
      <path
         inkscape:connector-curvature="0"
         id="path1558"
         style="font-style:normal;font-weight:normal;font-size:40px;line-height:1.25;font-family:sans-serif;letter-spacing:0px;word-spacing:0px;display:inline;opacity:1;fill:#ffffff;fill-opacity:1;stroke:none;stroke-width:0.08464136"
         d="m 69.597868,259.97629 v 0.14879 h -1.398567 q 0.01984,0.31409 0.18846,0.47941 0.170275,0.16366 0.472801,0.16366 0.175235,0 0.338896,-0.043 0.165316,-0.043 0.327325,-0.12895 v 0.28765 q -0.163663,0.0694 -0.335591,0.1058 -0.171927,0.0364 -0.348814,0.0364 -0.443045,0 -0.70259,-0.25789 -0.257892,-0.25789 -0.257892,-0.69763 0,-0.45461 0.244667,-0.72077 0.24632,-0.26781 0.662914,-0.26781 0.373612,0 0.590175,0.24136 0.218216,0.2397 0.218216,0.65299 z m -0.30418,-0.0893 q -0.0033,-0.24962 -0.140517,-0.39841 -0.135559,-0.14878 -0.360388,-0.14878 -0.254585,0 -0.408329,0.14382 -0.152089,0.14383 -0.175233,0.40503 z" />
      <path
         inkscape:connector-curvature="0"
         id="path1560"
         style="font-style:normal;font-weight:normal;font-size:40px;line-height:1.25;font-family:sans-serif;letter-spacing:0px;word-spacing:0px;display:inline;opacity:1;fill:#ffffff;fill-opacity:1;stroke:none;stroke-width:0.08464136"
         d="m 71.42956,259.19766 v 0.28434 q -0.128946,-0.0711 -0.259545,-0.1058 -0.128946,-0.0364 -0.261198,-0.0364 -0.295914,0 -0.459576,0.18846 -0.163662,0.1868 -0.163662,0.5257 0,0.3389 0.163662,0.52736 0.163662,0.1868 0.459576,0.1868 0.132252,0 0.261198,-0.0347 0.130599,-0.0364 0.259545,-0.10746 v 0.28104 q -0.127293,0.0595 -0.264504,0.0893 -0.135559,0.0297 -0.289302,0.0297 -0.418247,0 -0.664567,-0.26285 -0.246319,-0.26285 -0.246319,-0.7092 0,-0.45296 0.247973,-0.71251 0.249626,-0.25954 0.682751,-0.25954 0.140518,0 0.274423,0.0297 0.133905,0.0281 0.259545,0.086 z" />
      <path
         inkscape:connector-curvature="0"
         id="path1562"
         style="font-style:normal;font-weight:normal;font-size:40px;line-height:1.25;font-family:sans-serif;letter-spacing:0px;word-spacing:0px;display:inline;opacity:1;fill:#ffffff;fill-opacity:1;stroke:none;stroke-width:0.08464136"
         d="m 72.262749,258.60087 v 0.5257 h 0.626544 v 0.2364 h -0.626544 v 1.00512 q 0,0.22648 0.06117,0.29095 0.06282,0.0645 0.252932,0.0645 h 0.312446 v 0.25458 h -0.312446 q -0.352121,0 -0.486026,-0.1306 -0.133905,-0.13225 -0.133905,-0.47941 v -1.00512 h -0.223176 v -0.2364 h 0.223176 v -0.5257 z" />
    </g>
    <rect
       style="opacity:1;fill:#666666;fill-opacity:1;stroke:none;stroke-width:0.76499999;stroke-miterlimit:4;stroke-dasharray:none;stroke-opacity:1"
       id="rect990"
       width="0.46772167"
       height="5.6126599"
       x="25.736704"
       y="257.2337" />
    <rect
       style="opacity:1;fill:#666666;fill-opacity:1;stroke:none;stroke-width:0.76499999;stroke-miterlimit:4;stroke-dasharray:none;stroke-opacity:1"
       id="rect990-3"
       width="0.46772167"
       height="5.6126599"
       x="37.517021"
       y="257.2337" />
    <rect
       style="opacity:1;fill:#666666;fill-opacity:1;stroke:none;stroke-width:0.76499999;stroke-miterlimit:4;stroke-dasharray:none;stroke-opacity:1"
       id="rect990-3-6"
       width="0.46772167"
       height="5.6126599"
       x="45.872307"
       y="257.2337" />
    <rect
       style="opacity:1;fill:#666666;fill-opacity:1;stroke:none;stroke-width:0.76499999;stroke-miterlimit:4;stroke-dasharray:none;stroke-opacity:1"
       id="rect990-3-6-7"
       width="0.46772167"
       height="5.6126599"
       x="56.160797"
       y="257.2337" />
    <rect
       style="opacity:1;fill:#666666;fill-opacity:1;stroke:none;stroke-width:0.76499999;stroke-miterlimit:4;stroke-dasharray:none;stroke-opacity:1"
       id="rect990-3-6-7-5"
       width="0.46772167"
       height="5.6126599"
       x="71.868324"
       y="257.2337" />
    <rect
       style="opacity:1;fill:#666666;fill-opacity:1;stroke:none;stroke-width:0.76499999;stroke-miterlimit:4;stroke-dasharray:none;stroke-opacity:1"
       id="rect990-3-6-7-5-3"
       width="0.46772167"
       height="5.6126599"
       x="90.324516"
       y="257.2337" />
    <rect
       style="opacity:1;fill:#666666;fill-opacity:1;stroke:none;stroke-width:0.76499999;stroke-miterlimit:4;stroke-dasharray:none;stroke-opacity:1"
       id="rect990-3-6-7-5-3-5-2"
       width="0.46772167"
       height="5.6126599"
       x="106.40052"
       y="257.2337" />
    <rect
       style="opacity:1;fill:#666666;fill-opacity:1;stroke:none;stroke-width:0.76499999;stroke-miterlimit:4;stroke-dasharray:none;stroke-opacity:1"
       id="rect990-3-6-7-5-3-5-2-3"
       width="0.46772167"
       height="5.6126599"
       x="116.55547"
       y="257.2337" />
    <rect
       style="display:inline;opacity:1;fill:#666666;fill-opacity:1;stroke:none;stroke-width:0.76499999;stroke-miterlimit:4;stroke-dasharray:none;stroke-opacity:1"
       id="rect990-3-6-7-5-3-5-2-3-6"
       width="0.46772167"
       height="5.6126599"
       x="130.72614"
       y="257.2337" />
    <path
       inkscape:connector-curvature="0"
       id="path1019"
       style="font-style:normal;font-weight:normal;font-size:40px;line-height:1.25;font-family:sans-serif;letter-spacing:0px;word-spacing:0px;fill:#ff0000;fill-opacity:1;stroke:none;stroke-width:0.26458332"
       d="m 135.41912,260.23689 v 0.14065 h -1.32217 q 0.0188,0.29695 0.17816,0.45323 0.16098,0.15473 0.44698,0.15473 0.16566,0 0.32038,-0.0406 0.15629,-0.0406 0.30945,-0.1219 v 0.27194 q -0.15472,0.0656 -0.31726,0.10002 -0.16254,0.0344 -0.32976,0.0344 -0.41885,0 -0.66422,-0.2438 -0.2438,-0.24381 -0.2438,-0.65953 0,-0.42979 0.2313,-0.6814 0.23287,-0.25319 0.62671,-0.25319 0.3532,0 0.55794,0.22818 0.20629,0.22661 0.20629,0.61733 z m -0.28756,-0.0844 q -0.003,-0.23599 -0.13285,-0.37664 -0.12815,-0.14066 -0.3407,-0.14066 -0.24068,0 -0.38602,0.13597 -0.14379,0.13597 -0.16567,0.3829 z" />
    <path
       inkscape:connector-curvature="0"
       id="path1021"
       style="font-style:normal;font-weight:normal;font-size:40px;line-height:1.25;font-family:sans-serif;letter-spacing:0px;word-spacing:0px;fill:#ffffff;fill-opacity:1;stroke:none;stroke-width:0.26458332"
       d="m 137.04293,259.69927 v -0.9471 h 0.28757 v 2.43181 h -0.28757 v -0.26256 q -0.0907,0.15628 -0.22974,0.23286 -0.13753,0.075 -0.33133,0.075 -0.31726,0 -0.5173,-0.25318 -0.19848,-0.25318 -0.19848,-0.66578 0,-0.41259 0.19848,-0.66577 0.20004,-0.25319 0.5173,-0.25319 0.1938,0 0.33133,0.0766 0.13909,0.075 0.22974,0.23131 z m -0.97991,0.61107 q 0,0.31726 0.12972,0.49855 0.13128,0.17973 0.35945,0.17973 0.22818,0 0.35946,-0.17973 0.13128,-0.18129 0.13128,-0.49855 0,-0.31726 -0.13128,-0.49699 -0.13128,-0.18129 -0.35946,-0.18129 -0.22817,0 -0.35945,0.18129 -0.12972,0.17973 -0.12972,0.49699 z" />
    <path
       inkscape:connector-curvature="0"
       id="path1023"
       style="font-style:normal;font-weight:normal;font-size:40px;line-height:1.25;font-family:sans-serif;letter-spacing:0px;word-spacing:0px;fill:#ffffff;fill-opacity:1;stroke:none;stroke-width:0.26458332"
       d="m 137.92282,259.43358 h 0.28756 v 1.7504 h -0.28756 z m 0,-0.68141 h 0.28756 v 0.36415 h -0.28756 z" />
    <path
       inkscape:connector-curvature="0"
       id="path1025"
       style="font-style:normal;font-weight:normal;font-size:40px;line-height:1.25;font-family:sans-serif;letter-spacing:0px;word-spacing:0px;fill:#ffffff;fill-opacity:1;stroke:none;stroke-width:0.26458332"
       d="m 139.09652,258.93659 v 0.49699 h 0.59233 v 0.22349 h -0.59233 v 0.95021 q 0,0.21412 0.0578,0.27507 0.0594,0.061 0.23912,0.061 h 0.29538 v 0.24068 h -0.29538 q -0.33289,0 -0.45948,-0.12347 -0.1266,-0.12503 -0.1266,-0.45323 v -0.95021 h -0.21098 v -0.22349 h 0.21098 v -0.49699 z" />
    <path
       inkscape:connector-curvature="0"
       id="path1027"
       style="font-style:normal;font-weight:normal;font-size:40px;line-height:1.25;font-family:sans-serif;letter-spacing:0px;word-spacing:0px;fill:#ffffff;fill-opacity:1;stroke:none;stroke-width:0.26458332"
       d="m 140.74534,259.63519 q -0.23131,0 -0.36571,0.18129 -0.13441,0.17973 -0.13441,0.49386 0,0.31414 0.13285,0.49543 0.1344,0.17973 0.36727,0.17973 0.22974,0 0.36414,-0.1813 0.13441,-0.18129 0.13441,-0.49386 0,-0.31101 -0.13441,-0.4923 -0.1344,-0.18285 -0.36414,-0.18285 z m 0,-0.24381 q 0.37508,0 0.58919,0.24381 0.21412,0.2438 0.21412,0.67515 0,0.42979 -0.21412,0.67516 -0.21411,0.2438 -0.58919,0.2438 -0.37665,0 -0.59076,-0.2438 -0.21255,-0.24537 -0.21255,-0.67516 0,-0.43135 0.21255,-0.67515 0.21411,-0.24381 0.59076,-0.24381 z" />
    <path
       inkscape:connector-curvature="0"
       id="path1029"
       style="font-style:normal;font-weight:normal;font-size:40px;line-height:1.25;font-family:sans-serif;letter-spacing:0px;word-spacing:0px;fill:#ffffff;fill-opacity:1;stroke:none;stroke-width:0.26458332"
       d="m 143.03961,259.70239 q -0.0485,-0.0281 -0.10627,-0.0406 -0.0563,-0.0141 -0.12503,-0.0141 -0.24381,0 -0.37509,0.15941 -0.12972,0.15785 -0.12972,0.45479 v 0.92209 h -0.28912 v -1.7504 h 0.28912 v 0.27194 q 0.0906,-0.15941 0.236,-0.23599 0.14534,-0.0781 0.3532,-0.0781 0.0297,0 0.0656,0.005 0.036,0.003 0.0797,0.0109 z" />
  </g>
  <g
     inkscape:groupmode="layer"
     id="layer3"
     inkscape:label="regions"
     style="display:none;opacity:0.419"
     transform="translate(-10.691695,-256.29041)">
    <rect
       style="opacity:1;fill:#ff0000;fill-opacity:1;stroke:none;stroke-width:0.56499994;stroke-miterlimit:4;stroke-dasharray:none;stroke-opacity:1"
       id="move"
       width="11.168576"
       height="5.7462945"
       x="13.237544"
       y="257.12326"
       inkscape:label="#rect1490" />
    <rect
       style="opacity:1;fill:#ff0000;fill-opacity:1;stroke:none;stroke-width:0.53720319;stroke-miterlimit:4;stroke-dasharray:none;stroke-opacity:1"
       id="and"
       width="8.9007206"
       height="5.7462945"
       x="27.376139"
       y="257.12326"
       inkscape:label="#rect1490-2" />
    <rect
       style="opacity:1;fill:#ff0000;fill-opacity:1;stroke:none;stroke-width:0.43474427;stroke-miterlimit:4;stroke-dasharray:none;stroke-opacity:1"
       id="or"
       width="5.941184"
       height="5.7462945"
       x="39.080997"
       y="257.12326"
       inkscape:label="#rect1490-7" />
    <rect
       style="opacity:1;fill:#ff0000;fill-opacity:1;stroke:none;stroke-width:0.54015434;stroke-miterlimit:4;stroke-dasharray:none;stroke-opacity:1"
       id="not"
       width="7.5305552"
       height="5.7462945"
       x="47.476704"
       y="257.12326"
       inkscape:label="#rect1490-2-0" />
    <rect
       style="opacity:1;fill:#ff0000;fill-opacity:1;stroke:none;stroke-width:0.58185691;stroke-miterlimit:4;stroke-dasharray:none;stroke-opacity:1"
       id="delete"
       width="12.847116"
       height="5.7462945"
       x="57.80682"
       y="257.12326"
       inkscape:label="#rect1490-9" />
    <rect
       style="opacity:1;fill:#ff0000;fill-opacity:1;stroke:none;stroke-width:0.84165937;stroke-miterlimit:4;stroke-dasharray:none;stroke-opacity:1"
       id="connect"
       width="15.872247"
       height="5.7462945"
       x="73.381653"
       y="257.12326"
       inkscape:label="#rect1490-2-3" />
    <rect
       style="opacity:1;fill:#ff0000;fill-opacity:1;stroke:none;stroke-width:0.60633963;stroke-miterlimit:4;stroke-dasharray:none;stroke-opacity:1"
       id="toggle"
       width="13.950994"
       height="5.7462945"
       x="91.518021"
       y="257.12326"
       inkscape:label="#rect1490-2-0-0" />
    <rect
       style="opacity:1;fill:#ff0000;fill-opacity:1;stroke:none;stroke-width:0.51178801;stroke-miterlimit:4;stroke-dasharray:none;stroke-opacity:1"
       id="run"
       width="7.8846192"
       height="5.7462945"
       x="107.78157"
       y="257.12326"
       inkscape:label="#rect1490-6" />
    <rect
       style="opacity:1;fill:#ff0000;fill-opacity:1;stroke:none;stroke-width:0.53480566;stroke-miterlimit:4;stroke-dasharray:none;stroke-opacity:1"
       id="script"
       width="12.208011"
       height="5.7462945"
       x="118.23124"
       y="257.12326"
       inkscape:label="#rect1490-2-2" />
    <rect
       style="display:inline;opacity:1;fill:#ff0000;fill-opacity:1;stroke:none;stroke-width:0.53480566;stroke-miterlimit:4;stroke-dasharray:none;stroke-opacity:1"
       id="editor"
       width="12.208011"
       height="5.7462945"
       x="132.06244"
       y="257.12326"
       inkscape:label="#rect1490-2-2" />
  </g>
</svg>
