# Blender v2.79 (sub 0) OBJ File: ''
# www.blender.org
mtllib physical-sphere.mtl
o Icosphere
v 0.000000 -0.483887 -0.000000
v 0.106976 -0.465470 0.077721
v -0.040860 -0.465470 0.125757
v 0.350144 -0.216404 0.254392
v 0.288975 -0.326437 0.209950
v 0.395951 -0.244714 0.132229
v -0.132230 -0.465470 -0.000000
v -0.040860 -0.465470 -0.125757
v 0.106976 -0.465470 -0.077721
v 0.421207 -0.112483 0.209951
v -0.133741 -0.216404 0.411618
v -0.003400 -0.244715 0.417433
v -0.069516 -0.112483 0.465470
v -0.432802 -0.216402 -0.000000
v -0.398054 -0.244714 0.125758
v -0.464170 -0.112482 0.077722
v -0.133741 -0.216404 -0.411618
v -0.242608 -0.244715 -0.339710
v -0.217354 -0.112483 -0.417434
v 0.350144 -0.216404 -0.254392
v 0.248115 -0.244715 -0.335709
v 0.329838 -0.112483 -0.335711
v 0.329838 -0.112483 0.335711
v -0.217354 -0.112483 0.417434
v -0.464170 -0.112482 -0.077722
v -0.069516 -0.112483 -0.465470
v 0.421207 -0.112483 -0.209951
v 0.133741 0.216404 0.411618
v 0.242608 0.244715 0.339710
v 0.110377 0.326437 0.339710
v -0.350144 0.216404 0.254392
v -0.248115 0.244715 0.335709
v -0.288975 0.326437 0.209950
v -0.350144 0.216404 -0.254392
v -0.395951 0.244714 -0.132229
v -0.288975 0.326437 -0.209950
v 0.133741 0.216404 -0.411618
v 0.003400 0.244715 -0.417433
v 0.110377 0.326437 -0.339710
v 0.432802 0.216402 0.000000
v 0.398054 0.244714 -0.125758
v 0.357193 0.326435 0.000000
v 0.254394 0.411620 0.000000
v 0.175071 0.432803 -0.127196
v 0.132230 0.465470 0.000000
v 0.333006 0.254397 -0.241942
v 0.242608 0.244715 -0.339710
v 0.216400 0.350146 -0.254393
v 0.078610 0.411621 -0.241941
v -0.066872 0.432803 -0.205807
v 0.040860 0.465470 -0.125757
v -0.127199 0.254398 -0.391471
v -0.248115 0.244715 -0.335709
v -0.175072 0.350147 -0.284419
v -0.205808 0.411621 -0.149527
v -0.216399 0.432803 0.000000
v -0.106976 0.465470 -0.077721
v -0.411618 0.254397 0.000000
v -0.395951 0.244714 0.132229
v -0.324600 0.350146 0.078611
v -0.205808 0.411621 0.149527
v -0.066872 0.432803 0.205807
v -0.106976 0.465470 0.077721
v -0.127199 0.254398 0.391471
v 0.003400 0.244715 0.417433
v -0.025545 0.350147 0.333004
v 0.078610 0.411621 0.241941
v 0.175071 0.432803 0.127196
v 0.040860 0.465470 0.125757
v 0.333006 0.254397 0.241942
v 0.398054 0.244714 0.125758
v 0.308814 0.350145 0.127196
v 0.460205 0.000000 -0.149527
v 0.417016 0.133745 -0.205808
v 0.464170 0.112482 -0.077722
v 0.284422 0.000000 -0.391473
v 0.217354 0.112483 -0.417434
v 0.324602 0.133745 -0.333006
v 0.000000 0.000000 -0.483887
v -0.066873 0.133745 -0.460204
v 0.069516 0.112483 -0.465470
v -0.284422 0.000000 -0.391473
v -0.329838 0.112483 -0.335710
v -0.216402 0.133745 -0.411618
v -0.460205 0.000000 -0.149527
v -0.458344 0.133744 -0.078611
v -0.421207 0.112483 -0.209951
v -0.460205 -0.000000 0.149527
v -0.421207 0.112483 0.209951
v -0.458344 0.133744 0.078611
v -0.284422 -0.000000 0.391473
v -0.216402 0.133745 0.411618
v -0.329838 0.112483 0.335710
v 0.000000 -0.000000 0.483887
v 0.069516 0.112483 0.465470
v -0.066873 0.133745 0.460204
v 0.284422 -0.000000 0.391473
v 0.324602 0.133745 0.333006
v 0.217354 0.112483 0.417434
v 0.460205 -0.000000 0.149527
v 0.464170 0.112482 0.077722
v 0.417016 0.133745 0.205808
v 0.149530 0.000000 -0.460204
v 0.127199 -0.254398 -0.391471
v -0.003400 -0.244715 -0.417433
v 0.066873 -0.133745 -0.460204
v -0.391474 0.000000 -0.284421
v -0.333006 -0.254397 -0.241942
v -0.398054 -0.244714 -0.125758
v -0.417016 -0.133745 -0.205808
v -0.391474 -0.000000 0.284421
v -0.333006 -0.254397 0.241942
v -0.242608 -0.244715 0.339710
v -0.324602 -0.133745 0.333006
v 0.149530 -0.000000 0.460204
v 0.127199 -0.254398 0.391471
v 0.248115 -0.244715 0.335709
v 0.216402 -0.133745 0.411618
v 0.483887 0.000000 0.000000
v 0.411618 -0.254397 -0.000000
v 0.395951 -0.244714 -0.132229
v 0.458344 -0.133744 -0.078611
v 0.205808 -0.411621 -0.149527
v 0.175072 -0.350147 -0.284419
v 0.288975 -0.326437 -0.209950
v -0.078610 -0.411621 -0.241941
v -0.110377 -0.326437 -0.339710
v 0.025545 -0.350147 -0.333004
v -0.216400 -0.350146 -0.254393
v -0.254394 -0.411620 -0.000000
v -0.357193 -0.326435 -0.000000
v -0.308814 -0.350145 -0.127196
v -0.308814 -0.350145 0.127196
v -0.078610 -0.411621 0.241941
v -0.110377 -0.326437 0.339710
v -0.216400 -0.350146 0.254393
v 0.324600 -0.350146 -0.078611
v 0.205808 -0.411621 0.149527
v 0.216399 -0.432803 -0.000000
v 0.025545 -0.350147 0.333004
v 0.175072 -0.350147 0.284419
v 0.000000 0.483887 0.000000
v 0.308814 0.350145 -0.127196
v -0.025545 0.350147 -0.333004
v -0.324600 0.350146 -0.078611
v -0.175072 0.350147 0.284419
v 0.216400 0.350146 0.254393
v 0.391474 0.000000 -0.284421
v -0.149530 0.000000 -0.460204
v -0.483887 0.000000 0.000000
v -0.149530 -0.000000 0.460204
v 0.391474 -0.000000 0.284421
v 0.216402 -0.133745 -0.411618
v -0.324602 -0.133745 -0.333006
v -0.417016 -0.133745 0.205808
v 0.066873 -0.133745 0.460204
v 0.458344 -0.133744 0.078611
v 0.066872 -0.432803 -0.205807
v -0.175071 -0.432803 -0.127196
v -0.175071 -0.432803 0.127196
v 0.324600 -0.350146 0.078611
v 0.066872 -0.432803 0.205807
vn 0.0000 -1.0000 -0.0000
vn 0.2195 -0.9625 0.1595
vn -0.0838 -0.9625 0.2580
vn 0.7236 -0.4472 0.5257
vn 0.5983 -0.6731 0.4347
vn 0.8178 -0.5054 0.2752
vn -0.2713 -0.9625 0.0000
vn -0.0838 -0.9625 -0.2580
vn 0.2195 -0.9625 -0.1595
vn 0.8696 -0.2341 0.4347
vn -0.2764 -0.4472 0.8506
vn -0.0090 -0.5054 0.8628
vn -0.1447 -0.2341 0.9614
vn -0.8944 -0.4472 0.0000
vn -0.8234 -0.5054 0.2580
vn -0.9590 -0.2341 0.1595
vn -0.2764 -0.4472 -0.8506
vn -0.4998 -0.5054 -0.7034
vn -0.4480 -0.2341 -0.8628
vn 0.7236 -0.4472 -0.5257
vn 0.5145 -0.5054 -0.6927
vn 0.6821 -0.2341 -0.6927
vn 0.6821 -0.2341 0.6927
vn -0.4480 -0.2341 0.8628
vn -0.9590 -0.2341 -0.1595
vn -0.1447 -0.2341 -0.9614
vn 0.8696 -0.2341 -0.4347
vn 0.2764 0.4472 0.8506
vn 0.4998 0.5054 0.7034
vn 0.2285 0.6731 0.7034
vn -0.7236 0.4472 0.5257
vn -0.5145 0.5054 0.6927
vn -0.5983 0.6731 0.4347
vn -0.7236 0.4472 -0.5257
vn -0.8178 0.5054 -0.2752
vn -0.5983 0.6731 -0.4347
vn 0.2764 0.4472 -0.8506
vn 0.0090 0.5054 -0.8628
vn 0.2285 0.6731 -0.7034
vn 0.8944 0.4472 -0.0000
vn 0.8234 0.5054 -0.2580
vn 0.7395 0.6731 -0.0000
vn 0.5257 0.8507 0.0000
vn 0.3693 0.8897 -0.2683
vn 0.2713 0.9625 0.0000
vn 0.6882 0.5257 -0.5000
vn 0.4998 0.5054 -0.7034
vn 0.4501 0.7282 -0.5169
vn 0.1625 0.8507 -0.5000
vn -0.1411 0.8897 -0.4341
vn 0.0838 0.9625 -0.2580
vn -0.2629 0.5257 -0.8090
vn -0.5145 0.5054 -0.6927
vn -0.3525 0.7282 -0.5877
vn -0.4253 0.8507 -0.3090
vn -0.4565 0.8897 -0.0000
vn -0.2195 0.9625 -0.1595
vn -0.8506 0.5257 0.0000
vn -0.8178 0.5054 0.2752
vn -0.6679 0.7282 0.1536
vn -0.4253 0.8507 0.3090
vn -0.1411 0.8897 0.4341
vn -0.2195 0.9625 0.1595
vn -0.2629 0.5257 0.8090
vn 0.0090 0.5054 0.8628
vn -0.0603 0.7282 0.6827
vn 0.1625 0.8507 0.5000
vn 0.3693 0.8897 0.2683
vn 0.0838 0.9625 0.2580
vn 0.6882 0.5257 0.5000
vn 0.8234 0.5054 0.2580
vn 0.6306 0.7282 0.2683
vn 0.9511 -0.0000 -0.3090
vn 0.8589 0.2717 -0.4341
vn 0.9590 0.2341 -0.1595
vn 0.5878 0.0000 -0.8090
vn 0.4480 0.2341 -0.8628
vn 0.6783 0.2717 -0.6827
vn 0.0000 0.0000 -1.0000
vn -0.1475 0.2717 -0.9510
vn 0.1447 0.2341 -0.9614
vn -0.5878 -0.0000 -0.8090
vn -0.6821 0.2341 -0.6927
vn -0.4397 0.2717 -0.8561
vn -0.9511 0.0000 -0.3090
vn -0.9500 0.2717 -0.1536
vn -0.8696 0.2341 -0.4347
vn -0.9511 0.0000 0.3090
vn -0.8696 0.2341 0.4347
vn -0.9500 0.2717 0.1536
vn -0.5878 -0.0000 0.8090
vn -0.4397 0.2717 0.8561
vn -0.6821 0.2341 0.6927
vn -0.0000 -0.0000 1.0000
vn 0.1447 0.2341 0.9614
vn -0.1475 0.2717 0.9510
vn 0.5878 0.0000 0.8090
vn 0.6783 0.2717 0.6827
vn 0.4480 0.2341 0.8628
vn 0.9511 -0.0000 0.3090
vn 0.9590 0.2341 0.1595
vn 0.8589 0.2717 0.4341
vn 0.3090 -0.0104 -0.9510
vn 0.2629 -0.5257 -0.8090
vn -0.0090 -0.5054 -0.8628
vn 0.1475 -0.2717 -0.9510
vn -0.8090 -0.0104 -0.5878
vn -0.6882 -0.5257 -0.5000
vn -0.8234 -0.5054 -0.2580
vn -0.8589 -0.2717 -0.4341
vn -0.8090 -0.0104 0.5878
vn -0.6882 -0.5257 0.5000
vn -0.4998 -0.5054 0.7034
vn -0.6783 -0.2717 0.6827
vn 0.3090 -0.0104 0.9510
vn 0.2629 -0.5257 0.8090
vn 0.5145 -0.5054 0.6927
vn 0.4397 -0.2717 0.8561
vn 0.9999 -0.0104 -0.0000
vn 0.8506 -0.5257 0.0000
vn 0.8178 -0.5054 -0.2752
vn 0.9500 -0.2717 -0.1536
vn 0.4253 -0.8507 -0.3090
vn 0.3525 -0.7282 -0.5877
vn 0.5983 -0.6731 -0.4347
vn -0.1625 -0.8507 -0.5000
vn -0.2285 -0.6731 -0.7034
vn 0.0603 -0.7282 -0.6827
vn -0.4501 -0.7282 -0.5169
vn -0.5257 -0.8507 0.0000
vn -0.7395 -0.6731 -0.0000
vn -0.6306 -0.7282 -0.2683
vn -0.6306 -0.7282 0.2683
vn -0.1625 -0.8507 0.5000
vn -0.2285 -0.6731 0.7034
vn -0.4501 -0.7282 0.5169
vn 0.6679 -0.7282 -0.1536
vn 0.4253 -0.8507 0.3090
vn 0.4565 -0.8897 0.0000
vn 0.0603 -0.7282 0.6827
vn 0.3525 -0.7282 0.5877
vn -0.0000 1.0000 0.0000
vn 0.6306 0.7282 -0.2683
vn -0.0603 0.7282 -0.6827
vn -0.6679 0.7282 -0.1536
vn -0.3525 0.7282 0.5877
vn 0.4501 0.7282 0.5169
vn 0.8090 0.0104 -0.5878
vn -0.3090 0.0104 -0.9510
vn -0.9999 0.0104 0.0000
vn -0.3090 0.0104 0.9510
vn 0.8090 0.0104 0.5878
vn 0.4397 -0.2717 -0.8561
vn -0.6783 -0.2717 -0.6827
vn -0.8589 -0.2717 0.4341
vn 0.1475 -0.2717 0.9510
vn 0.9500 -0.2717 0.1536
vn 0.1411 -0.8897 -0.4341
vn -0.3693 -0.8897 -0.2683
vn -0.3693 -0.8897 0.2683
vn 0.6679 -0.7282 0.1536
vn 0.1411 -0.8897 0.4341
usemtl Material.002
s 1
f 1//1 2//2 3//3
f 4//4 5//5 6//6
f 1//1 3//3 7//7
f 1//1 7//7 8//8
f 1//1 8//8 9//9
f 4//4 6//6 10//10
f 11//11 12//12 13//13
f 14//14 15//15 16//16
f 17//17 18//18 19//19
f 20//20 21//21 22//22
f 4//4 10//10 23//23
f 11//11 13//13 24//24
f 14//14 16//16 25//25
f 17//17 19//19 26//26
f 20//20 22//22 27//27
f 28//28 29//29 30//30
f 31//31 32//32 33//33
f 34//34 35//35 36//36
f 37//37 38//38 39//39
f 40//40 41//41 42//42
f 43//43 44//44 45//45
f 46//46 47//47 48//48
f 49//49 50//50 51//51
f 52//52 53//53 54//54
f 55//55 56//56 57//57
f 58//58 59//59 60//60
f 61//61 62//62 63//63
f 64//64 65//65 66//66
f 67//67 68//68 69//69
f 70//70 71//71 72//72
f 73//73 74//74 75//75
f 76//76 77//77 78//78
f 79//79 80//80 81//81
f 82//82 83//83 84//84
f 85//85 86//86 87//87
f 88//88 89//89 90//90
f 91//91 92//92 93//93
f 94//94 95//95 96//96
f 97//97 98//98 99//99
f 100//100 101//101 102//102
f 76//76 103//103 77//77
f 104//104 105//105 106//106
f 82//82 107//107 83//83
f 108//108 109//109 110//110
f 88//88 111//111 89//89
f 112//112 113//113 114//114
f 94//94 115//115 95//95
f 116//116 117//117 118//118
f 100//100 119//119 101//101
f 120//120 121//121 122//122
f 123//123 124//124 125//125
f 126//126 127//127 128//128
f 126//126 129//129 127//127
f 130//130 131//131 132//132
f 130//130 133//133 131//131
f 134//134 135//135 136//136
f 120//120 137//137 121//121
f 138//138 2//2 139//139
f 134//134 140//140 135//135
f 138//138 5//5 141//141
f 141//141 117//117 116//116
f 141//141 5//5 117//117
f 5//5 4//4 117//117
f 135//135 12//12 11//11
f 135//135 140//140 12//12
f 140//140 116//116 12//12
f 139//139 9//9 123//123
f 139//139 2//2 9//9
f 2//2 1//1 9//9
f 121//121 125//125 20//20
f 121//121 137//137 125//125
f 137//137 123//123 125//125
f 136//136 113//113 112//112
f 136//136 135//135 113//113
f 135//135 11//11 113//113
f 131//131 15//15 14//14
f 131//131 133//133 15//15
f 133//133 112//112 15//15
f 132//132 109//109 108//108
f 132//132 131//131 109//109
f 131//131 14//14 109//109
f 127//127 18//18 17//17
f 127//127 129//129 18//18
f 129//129 108//108 18//18
f 128//128 105//105 104//104
f 128//128 127//127 105//105
f 127//127 17//17 105//105
f 125//125 21//21 20//20
f 125//125 124//124 21//21
f 124//124 104//104 21//21
f 122//122 27//27 73//73
f 122//122 121//121 27//27
f 121//121 20//20 27//27
f 101//101 75//75 40//40
f 101//101 119//119 75//75
f 119//119 73//73 75//75
f 118//118 23//23 97//97
f 118//118 117//117 23//23
f 117//117 4//4 23//23
f 95//95 99//99 28//28
f 95//95 115//115 99//99
f 115//115 97//97 99//99
f 114//114 24//24 91//91
f 114//114 113//113 24//24
f 113//113 11//11 24//24
f 89//89 93//93 31//31
f 89//89 111//111 93//93
f 111//111 91//91 93//93
f 110//110 25//25 85//85
f 110//110 109//109 25//25
f 109//109 14//14 25//25
f 83//83 87//87 34//34
f 83//83 107//107 87//87
f 107//107 85//85 87//87
f 106//106 26//26 79//79
f 106//106 105//105 26//26
f 105//105 17//17 26//26
f 77//77 81//81 37//37
f 77//77 103//103 81//81
f 103//103 79//79 81//81
f 102//102 71//71 70//70
f 102//102 101//101 71//71
f 101//101 40//40 71//71
f 99//99 29//29 28//28
f 99//99 98//98 29//29
f 98//98 70//70 29//29
f 96//96 65//65 64//64
f 96//96 95//95 65//65
f 95//95 28//28 65//65
f 93//93 32//32 31//31
f 93//93 92//92 32//32
f 92//92 64//64 32//32
f 90//90 59//59 58//58
f 90//90 89//89 59//59
f 89//89 31//31 59//59
f 87//87 35//35 34//34
f 87//87 86//86 35//35
f 86//86 58//58 35//35
f 84//84 53//53 52//52
f 84//84 83//83 53//53
f 83//83 34//34 53//53
f 81//81 38//38 37//37
f 81//81 80//80 38//38
f 80//80 52//52 38//38
f 78//78 47//47 46//46
f 78//78 77//77 47//47
f 77//77 37//37 47//47
f 75//75 41//41 40//40
f 75//75 74//74 41//41
f 74//74 46//46 41//41
f 72//72 42//42 43//43
f 72//72 71//71 42//42
f 71//71 40//40 42//42
f 69//69 45//45 142//142
f 69//69 68//68 45//45
f 68//68 43//43 45//45
f 66//66 30//30 67//67
f 66//66 65//65 30//30
f 65//65 28//28 30//30
f 63//63 69//69 142//142
f 63//63 62//62 69//69
f 62//62 67//67 69//69
f 60//60 33//33 61//61
f 60//60 59//59 33//33
f 59//59 31//31 33//33
f 57//57 63//63 142//142
f 57//57 56//56 63//63
f 56//56 61//61 63//63
f 54//54 36//36 55//55
f 54//54 53//53 36//36
f 53//53 34//34 36//36
f 51//51 57//57 142//142
f 51//51 50//50 57//57
f 50//50 55//55 57//57
f 48//48 39//39 49//49
f 48//48 47//47 39//39
f 47//47 37//37 39//39
f 45//45 51//51 142//142
f 45//45 44//44 51//51
f 44//44 49//49 51//51
f 42//42 143//143 43//43
f 42//42 41//41 143//143
f 41//41 46//46 143//143
f 39//39 144//144 49//49
f 39//39 38//38 144//144
f 38//38 52//52 144//144
f 36//36 145//145 55//55
f 36//36 35//35 145//145
f 35//35 58//58 145//145
f 33//33 146//146 61//61
f 33//33 32//32 146//146
f 32//32 64//64 146//146
f 30//30 147//147 67//67
f 30//30 29//29 147//147
f 29//29 70//70 147//147
f 27//27 148//148 73//73
f 27//27 22//22 148//148
f 22//22 76//76 148//148
f 26//26 149//149 79//79
f 26//26 19//19 149//149
f 19//19 82//82 149//149
f 25//25 150//150 85//85
f 25//25 16//16 150//150
f 16//16 88//88 150//150
f 24//24 151//151 91//91
f 24//24 13//13 151//151
f 13//13 94//94 151//151
f 23//23 152//152 97//97
f 23//23 10//10 152//152
f 10//10 100//100 152//152
f 22//22 153//153 76//76
f 22//22 21//21 153//153
f 21//21 104//104 153//153
f 19//19 154//154 82//82
f 19//19 18//18 154//154
f 18//18 108//108 154//154
f 16//16 155//155 88//88
f 16//16 15//15 155//155
f 15//15 112//112 155//155
f 13//13 156//156 94//94
f 13//13 12//12 156//156
f 12//12 116//116 156//156
f 10//10 157//157 100//100
f 10//10 6//6 157//157
f 6//6 120//120 157//157
f 9//9 158//158 123//123
f 9//9 8//8 158//158
f 8//8 126//126 158//158
f 8//8 159//159 126//126
f 8//8 7//7 159//159
f 7//7 130//130 159//159
f 7//7 160//160 130//130
f 7//7 3//3 160//160
f 3//3 134//134 160//160
f 6//6 161//161 120//120
f 6//6 5//5 161//161
f 5//5 138//138 161//161
f 3//3 162//162 134//134
f 3//3 2//2 162//162
f 2//2 138//138 162//162
usemtl Material.001
f 43//43 143//143 44//44
f 49//49 144//144 50//50
f 55//55 145//145 56//56
f 61//61 146//146 62//62
f 67//67 147//147 68//68
f 73//73 148//148 74//74
f 79//79 149//149 80//80
f 85//85 150//150 86//86
f 91//91 151//151 92//92
f 97//97 152//152 98//98
f 76//76 153//153 103//103
f 82//82 154//154 107//107
f 88//88 155//155 111//111
f 94//94 156//156 115//115
f 100//100 157//157 119//119
f 123//123 158//158 124//124
f 126//126 159//159 129//129
f 130//130 160//160 133//133
f 120//120 161//161 137//137
f 134//134 162//162 140//140
f 140//140 141//141 116//116
f 140//140 162//162 141//141
f 162//162 138//138 141//141
f 137//137 139//139 123//123
f 137//137 161//161 139//139
f 161//161 138//138 139//139
f 133//133 136//136 112//112
f 133//133 160//160 136//136
f 160//160 134//134 136//136
f 129//129 132//132 108//108
f 129//129 159//159 132//132
f 159//159 130//130 132//132
f 124//124 128//128 104//104
f 124//124 158//158 128//128
f 158//158 126//126 128//128
f 119//119 122//122 73//73
f 119//119 157//157 122//122
f 157//157 120//120 122//122
f 115//115 118//118 97//97
f 115//115 156//156 118//118
f 156//156 116//116 118//118
f 111//111 114//114 91//91
f 111//111 155//155 114//114
f 155//155 112//112 114//114
f 107//107 110//110 85//85
f 107//107 154//154 110//110
f 154//154 108//108 110//110
f 103//103 106//106 79//79
f 103//103 153//153 106//106
f 153//153 104//104 106//106
f 98//98 102//102 70//70
f 98//98 152//152 102//102
f 152//152 100//100 102//102
f 92//92 96//96 64//64
f 92//92 151//151 96//96
f 151//151 94//94 96//96
f 86//86 90//90 58//58
f 86//86 150//150 90//90
f 150//150 88//88 90//90
f 80//80 84//84 52//52
f 80//80 149//149 84//84
f 149//149 82//82 84//84
f 74//74 78//78 46//46
f 74//74 148//148 78//78
f 148//148 76//76 78//78
f 68//68 72//72 43//43
f 68//68 147//147 72//72
f 147//147 70//70 72//72
f 62//62 66//66 67//67
f 62//62 146//146 66//66
f 146//146 64//64 66//66
f 56//56 60//60 61//61
f 56//56 145//145 60//60
f 145//145 58//58 60//60
f 50//50 54//54 55//55
f 50//50 144//144 54//54
f 144//144 52//52 54//54
f 44//44 48//48 49//49
f 44//44 143//143 48//48
f 143//143 46//46 48//48
