# Blender v2.79 (sub 0) OBJ File: ''
# www.blender.org
mtllib sphere.mtl
o Icosphere
v 0.000000 -0.500000 0.000000
v 0.361804 -0.223610 0.262863
v -0.138194 -0.223610 0.425325
v -0.447213 -0.223608 0.000000
v -0.138194 -0.223610 -0.425325
v 0.361804 -0.223610 -0.262863
v 0.138194 0.223610 0.425325
v -0.361804 0.223610 0.262863
v -0.361804 0.223610 -0.262863
v 0.138194 0.223610 -0.425325
v 0.447213 0.223608 0.000000
v 0.000000 0.500000 0.000000
v -0.116411 -0.328760 0.358282
v -0.081228 -0.425327 0.249998
v -0.038803 -0.483975 0.119426
v 0.101590 -0.483975 0.073809
v 0.212661 -0.425327 0.154506
v 0.304773 -0.328759 0.221428
v 0.265970 -0.251151 0.340856
v 0.131434 -0.262869 0.404506
v -0.014820 -0.251151 0.432092
v 0.406365 -0.251150 -0.147619
v 0.425324 -0.262868 0.000000
v 0.406365 -0.251150 0.147619
v 0.101590 -0.483975 -0.073809
v 0.212661 -0.425327 -0.154506
v 0.304773 -0.328759 -0.221428
v -0.376721 -0.328757 0.000000
v -0.262865 -0.425326 0.000000
v -0.125573 -0.483974 0.000000
v -0.241986 -0.251151 0.358282
v -0.344095 -0.262868 0.249998
v -0.415525 -0.251149 0.119427
v -0.116411 -0.328760 -0.358282
v -0.081228 -0.425327 -0.249998
v -0.038803 -0.483975 -0.119426
v -0.415525 -0.251149 -0.119427
v -0.344095 -0.262868 -0.249998
v -0.241986 -0.251151 -0.358282
v -0.014820 -0.251151 -0.432092
v 0.131434 -0.262869 -0.404506
v 0.265970 -0.251151 -0.340856
v 0.478313 0.125575 0.073809
v 0.475529 -0.000000 0.154506
v 0.430349 -0.125575 0.221429
v 0.430349 -0.125575 -0.221429
v 0.475529 0.000000 -0.154506
v 0.478313 0.125575 -0.073809
v 0.077608 0.125576 0.477711
v 0.000000 -0.000000 0.500000
v -0.077608 -0.125576 0.477711
v 0.343579 -0.125576 0.340858
v 0.293893 0.000000 0.404508
v 0.218003 0.125576 0.432094
v -0.430349 0.125575 0.221429
v -0.475529 -0.000000 0.154506
v -0.478313 -0.125575 0.073809
v -0.218003 -0.125576 0.432094
v -0.293893 0.000000 0.404508
v -0.343579 0.125576 0.340858
v -0.343579 0.125576 -0.340858
v -0.293893 -0.000000 -0.404508
v -0.218003 -0.125576 -0.432094
v -0.478313 -0.125575 -0.073809
v -0.475529 0.000000 -0.154506
v -0.430349 0.125575 -0.221429
v 0.218003 0.125576 -0.432094
v 0.293893 -0.000000 -0.404508
v 0.343579 -0.125576 -0.340858
v -0.077608 -0.125576 -0.477711
v 0.000000 0.000000 -0.500000
v 0.077608 0.125576 -0.477711
v 0.415525 0.251149 0.119427
v 0.344095 0.262868 0.249998
v 0.241986 0.251151 0.358282
v 0.014820 0.251151 0.432092
v -0.131434 0.262869 0.404506
v -0.265970 0.251151 0.340856
v -0.406365 0.251150 0.147619
v -0.425324 0.262868 0.000000
v -0.406365 0.251150 -0.147619
v -0.265970 0.251151 -0.340856
v -0.131434 0.262869 -0.404506
v 0.014820 0.251151 -0.432092
v 0.241986 0.251151 -0.358282
v 0.344095 0.262868 -0.249998
v 0.415525 0.251149 -0.119427
v 0.038803 0.483975 0.119426
v 0.081228 0.425327 0.249998
v 0.116411 0.328760 0.358282
v 0.376721 0.328757 0.000000
v 0.262865 0.425326 0.000000
v 0.125573 0.483974 0.000000
v -0.101590 0.483975 0.073809
v -0.212661 0.425327 0.154506
v -0.304773 0.328759 0.221428
v -0.101590 0.483975 -0.073809
v -0.212661 0.425327 -0.154506
v -0.304773 0.328759 -0.221428
v 0.038803 0.483975 -0.119426
v 0.081228 0.425327 -0.249998
v 0.116411 0.328760 -0.358282
v 0.180900 0.447215 -0.131431
v 0.319097 0.361805 -0.131432
v 0.223605 0.361806 -0.262864
v -0.069099 0.447215 -0.212660
v -0.026395 0.361806 -0.344092
v -0.180902 0.361806 -0.293889
v -0.223605 0.447215 0.000000
v -0.335408 0.361805 -0.081229
v -0.335408 0.361805 0.081229
v -0.069099 0.447215 0.212660
v -0.180902 0.361806 0.293889
v -0.026395 0.361806 0.344092
v 0.180900 0.447215 0.131431
v 0.223605 0.361806 0.262864
v 0.319097 0.361805 0.131432
v 0.430902 0.138198 -0.212661
v 0.404510 0.000000 -0.293891
v 0.335410 0.138199 -0.344095
v -0.069099 0.138199 -0.475528
v -0.154508 -0.000000 -0.475528
v -0.223608 0.138199 -0.425324
v -0.473607 0.138198 -0.081229
v -0.500000 0.000000 0.000000
v -0.473606 0.138198 0.081229
v -0.223608 0.138198 0.425324
v -0.154509 -0.000000 0.475528
v -0.069100 0.138198 0.475528
v 0.335410 0.138198 0.344095
v 0.404509 -0.000001 0.293891
v 0.430902 0.138197 0.212662
v 0.154509 -0.000000 -0.475528
v 0.223608 -0.138199 -0.425324
v 0.069100 -0.138199 -0.475527
v -0.404509 -0.000000 -0.293892
v -0.335409 -0.138199 -0.344095
v -0.430902 -0.138198 -0.212662
v -0.404509 0.000000 0.293892
v -0.430902 -0.138198 0.212662
v -0.335410 -0.138199 0.344095
v 0.154509 0.000000 0.475528
v 0.069100 -0.138199 0.475527
v 0.223608 -0.138199 0.425324
v 0.500000 0.000000 0.000000
v 0.473607 -0.138198 0.081229
v 0.473607 -0.138198 -0.081229
v 0.180902 -0.361806 -0.293890
v 0.069098 -0.447215 -0.212661
v 0.026395 -0.361805 -0.344093
v -0.223605 -0.361806 -0.262864
v -0.180901 -0.447214 -0.131431
v -0.319097 -0.361805 -0.131431
v -0.319097 -0.361805 0.131432
v -0.180901 -0.447214 0.131432
v -0.223605 -0.361805 0.262864
v 0.335409 -0.361805 -0.081228
v 0.335409 -0.361805 0.081229
v 0.223605 -0.447214 0.000000
v 0.026395 -0.361806 0.344093
v 0.069099 -0.447215 0.212660
v 0.180902 -0.361805 0.293890
vn 0.0000 -1.0000 0.0000
vn 0.2109 -0.9654 0.1533
vn -0.0806 -0.9654 0.2480
vn 0.7236 -0.4472 0.5257
vn 0.6042 -0.6650 0.4390
vn 0.8152 -0.5038 0.2857
vn -0.2608 -0.9654 0.0000
vn -0.0806 -0.9654 -0.2480
vn 0.2109 -0.9654 -0.1533
vn 0.8650 -0.2430 0.4390
vn -0.2764 -0.4472 0.8506
vn -0.0198 -0.5038 0.8636
vn -0.1502 -0.2430 0.9583
vn -0.8944 -0.4472 0.0000
vn -0.8274 -0.5038 0.2480
vn -0.9578 -0.2430 0.1533
vn -0.2764 -0.4472 -0.8506
vn -0.4915 -0.5038 -0.7103
vn -0.4417 -0.2430 -0.8636
vn 0.7236 -0.4472 -0.5257
vn 0.5236 -0.5038 -0.6870
vn 0.6848 -0.2430 -0.6870
vn 0.6848 -0.2430 0.6870
vn -0.4417 -0.2430 0.8636
vn -0.9578 -0.2430 -0.1533
vn -0.1502 -0.2430 -0.9583
vn 0.8650 -0.2430 -0.4390
vn 0.2764 0.4472 0.8506
vn 0.4915 0.5038 0.7103
vn 0.2308 0.6650 0.7103
vn -0.7236 0.4472 0.5257
vn -0.5236 0.5038 0.6870
vn -0.6042 0.6650 0.4390
vn -0.7236 0.4472 -0.5257
vn -0.8152 0.5038 -0.2857
vn -0.6042 0.6650 -0.4390
vn 0.2764 0.4472 -0.8506
vn 0.0198 0.5038 -0.8636
vn 0.2308 0.6650 -0.7103
vn 0.8944 0.4472 0.0000
vn 0.8274 0.5038 -0.2480
vn 0.7468 0.6650 0.0000
vn 0.2608 0.9654 0.0000
vn 0.0806 0.9654 -0.2480
vn 0.0000 1.0000 0.0000
vn 0.5257 0.8506 0.0000
vn 0.3682 0.8904 -0.2675
vn 0.6317 0.7275 -0.2675
vn 0.1625 0.8506 -0.5000
vn 0.4496 0.7275 -0.5181
vn 0.6882 0.5257 -0.5000
vn 0.4915 0.5038 -0.7103
vn -0.2109 0.9654 -0.1533
vn -0.1406 0.8904 -0.4328
vn -0.0592 0.7275 -0.6835
vn -0.4253 0.8506 -0.3090
vn -0.3538 0.7275 -0.5877
vn -0.2629 0.5257 -0.8090
vn -0.5236 0.5038 -0.6870
vn -0.2109 0.9654 0.1533
vn -0.4551 0.8904 0.0000
vn -0.6683 0.7275 -0.1549
vn -0.4253 0.8506 0.3090
vn -0.6683 0.7275 0.1549
vn -0.8506 0.5257 0.0000
vn -0.8152 0.5038 0.2857
vn 0.0806 0.9654 0.2480
vn -0.1406 0.8904 0.4328
vn -0.3538 0.7275 0.5877
vn 0.1625 0.8506 0.5000
vn -0.0592 0.7275 0.6835
vn -0.2629 0.5257 0.8090
vn 0.0198 0.5038 0.8636
vn 0.3682 0.8904 0.2675
vn 0.4496 0.7275 0.5181
vn 0.6317 0.7275 0.2675
vn 0.6882 0.5257 0.5000
vn 0.8274 0.5038 0.2480
vn 0.9578 0.2430 -0.1533
vn 0.9510 0.0000 -0.3090
vn 0.8593 0.2724 -0.4328
vn 0.8090 0.0089 -0.5878
vn 0.6772 0.2724 -0.6835
vn 0.5878 0.0000 -0.8090
vn 0.4417 0.2430 -0.8636
vn 0.1502 0.2430 -0.9583
vn 0.0000 0.0000 -1.0000
vn -0.1461 0.2724 -0.9510
vn -0.3090 0.0089 -0.9510
vn -0.4407 0.2724 -0.8553
vn -0.5878 0.0000 -0.8090
vn -0.6848 0.2430 -0.6870
vn -0.8650 0.2430 -0.4390
vn -0.9510 0.0000 -0.3090
vn -0.9496 0.2724 -0.1549
vn -0.9999 0.0089 0.0000
vn -0.9496 0.2724 0.1549
vn -0.9510 0.0000 0.3090
vn -0.8650 0.2430 0.4390
vn -0.6848 0.2430 0.6870
vn -0.5878 0.0000 0.8090
vn -0.4407 0.2724 0.8553
vn -0.3090 0.0089 0.9510
vn -0.1461 0.2724 0.9510
vn 0.0000 0.0000 1.0000
vn 0.1502 0.2430 0.9583
vn 0.4417 0.2430 0.8636
vn 0.5878 0.0000 0.8090
vn 0.6772 0.2724 0.6835
vn 0.8090 0.0089 0.5878
vn 0.8593 0.2724 0.4328
vn 0.9510 0.0000 0.3090
vn 0.9578 0.2430 0.1533
vn 0.3090 -0.0089 -0.9510
vn 0.4407 -0.2724 -0.8553
vn 0.1461 -0.2724 -0.9510
vn 0.2629 -0.5257 -0.8090
vn -0.0198 -0.5038 -0.8636
vn -0.8090 -0.0089 -0.5878
vn -0.6772 -0.2724 -0.6835
vn -0.8593 -0.2724 -0.4328
vn -0.6882 -0.5257 -0.5000
vn -0.8274 -0.5038 -0.2480
vn -0.8090 -0.0089 0.5878
vn -0.8593 -0.2724 0.4328
vn -0.6772 -0.2724 0.6835
vn -0.6882 -0.5257 0.5000
vn -0.4915 -0.5038 0.7103
vn 0.3090 -0.0089 0.9510
vn 0.1461 -0.2724 0.9510
vn 0.4407 -0.2724 0.8553
vn 0.2629 -0.5257 0.8090
vn 0.5236 -0.5038 0.6870
vn 0.9999 -0.0089 0.0000
vn 0.9496 -0.2724 0.1549
vn 0.9496 -0.2724 -0.1549
vn 0.8506 -0.5257 0.0000
vn 0.8152 -0.5038 -0.2857
vn 0.6042 -0.6650 -0.4390
vn 0.4253 -0.8506 -0.3090
vn 0.3538 -0.7275 -0.5878
vn 0.1406 -0.8904 -0.4328
vn 0.0592 -0.7275 -0.6835
vn -0.1625 -0.8506 -0.5000
vn -0.2308 -0.6650 -0.7103
vn -0.4496 -0.7275 -0.5181
vn -0.3682 -0.8904 -0.2675
vn -0.6317 -0.7275 -0.2675
vn -0.5257 -0.8506 0.0000
vn -0.7468 -0.6650 0.0000
vn -0.6317 -0.7275 0.2675
vn -0.3682 -0.8904 0.2675
vn -0.4496 -0.7275 0.5181
vn -0.1625 -0.8506 0.5000
vn -0.2308 -0.6650 0.7103
vn 0.6683 -0.7275 -0.1549
vn 0.6683 -0.7275 0.1549
vn 0.4551 -0.8904 0.0000
vn 0.4253 -0.8506 0.3090
vn 0.0592 -0.7275 0.6835
vn 0.1406 -0.8904 0.4328
vn 0.3538 -0.7275 0.5878
usemtl Material.002
s 1
f 1//1 16//2 15//3
f 2//4 18//5 24//6
f 1//1 15//3 30//7
f 1//1 30//7 36//8
f 1//1 36//8 25//9
f 2//4 24//6 45//10
f 3//11 21//12 51//13
f 4//14 33//15 57//16
f 5//17 39//18 63//19
f 6//20 42//21 69//22
f 2//4 45//10 52//23
f 3//11 51//13 58//24
f 4//14 57//16 64//25
f 5//17 63//19 70//26
f 6//20 69//22 46//27
f 7//28 75//29 90//30
f 8//31 78//32 96//33
f 9//34 81//35 99//36
f 10//37 84//38 102//39
f 11//40 87//41 91//42
f 93//43 100//44 12//45
f 92//46 103//47 93//43
f 91//42 104//48 92//46
f 93//43 103//47 100//44
f 103//47 101//49 100//44
f 92//46 104//48 103//47
f 104//48 105//50 103//47
f 103//47 105//50 101//49
f 105//50 102//39 101//49
f 91//42 87//41 104//48
f 87//41 86//51 104//48
f 104//48 86//51 105//50
f 86//51 85//52 105//50
f 105//50 85//52 102//39
f 85//52 10//37 102//39
f 100//44 97//53 12//45
f 101//49 106//54 100//44
f 102//39 107//55 101//49
f 100//44 106//54 97//53
f 106//54 98//56 97//53
f 101//49 107//55 106//54
f 107//55 108//57 106//54
f 106//54 108//57 98//56
f 108//57 99//36 98//56
f 102//39 84//38 107//55
f 84//38 83//58 107//55
f 107//55 83//58 108//57
f 83//58 82//59 108//57
f 108//57 82//59 99//36
f 82//59 9//34 99//36
f 97//53 94//60 12//45
f 98//56 109//61 97//53
f 99//36 110//62 98//56
f 97//53 109//61 94//60
f 109//61 95//63 94//60
f 98//56 110//62 109//61
f 110//62 111//64 109//61
f 109//61 111//64 95//63
f 111//64 96//33 95//63
f 99//36 81//35 110//62
f 81//35 80//65 110//62
f 110//62 80//65 111//64
f 80//65 79//66 111//64
f 111//64 79//66 96//33
f 79//66 8//31 96//33
f 94//60 88//67 12//45
f 95//63 112//68 94//60
f 96//33 113//69 95//63
f 94//60 112//68 88//67
f 112//68 89//70 88//67
f 95//63 113//69 112//68
f 113//69 114//71 112//68
f 112//68 114//71 89//70
f 114//71 90//30 89//70
f 96//33 78//32 113//69
f 78//32 77//72 113//69
f 113//69 77//72 114//71
f 77//72 76//73 114//71
f 114//71 76//73 90//30
f 76//73 7//28 90//30
f 88//67 93//43 12//45
f 89//70 115//74 88//67
f 90//30 116//75 89//70
f 88//67 115//74 93//43
f 115//74 92//46 93//43
f 89//70 116//75 115//74
f 116//75 117//76 115//74
f 115//74 117//76 92//46
f 117//76 91//42 92//46
f 90//30 75//29 116//75
f 75//29 74//77 116//75
f 116//75 74//77 117//76
f 74//77 73//78 117//76
f 117//76 73//78 91//42
f 73//78 11//40 91//42
f 48//79 87//41 11//40
f 47//80 118//81 48//79
f 46//27 119//82 47//80
f 48//79 118//81 87//41
f 118//81 86//51 87//41
f 47//80 119//82 118//81
f 119//82 120//83 118//81
f 118//81 120//83 86//51
f 120//83 85//52 86//51
f 46//27 69//22 119//82
f 69//22 68//84 119//82
f 119//82 68//84 120//83
f 68//84 67//85 120//83
f 120//83 67//85 85//52
f 67//85 10//37 85//52
f 72//86 84//38 10//37
f 71//87 121//88 72//86
f 70//26 122//89 71//87
f 72//86 121//88 84//38
f 121//88 83//58 84//38
f 71//87 122//89 121//88
f 122//89 123//90 121//88
f 121//88 123//90 83//58
f 123//90 82//59 83//58
f 70//26 63//19 122//89
f 63//19 62//91 122//89
f 122//89 62//91 123//90
f 62//91 61//92 123//90
f 123//90 61//92 82//59
f 61//92 9//34 82//59
f 66//93 81//35 9//34
f 65//94 124//95 66//93
f 64//25 125//96 65//94
f 66//93 124//95 81//35
f 124//95 80//65 81//35
f 65//94 125//96 124//95
f 125//96 126//97 124//95
f 124//95 126//97 80//65
f 126//97 79//66 80//65
f 64//25 57//16 125//96
f 57//16 56//98 125//96
f 125//96 56//98 126//97
f 56//98 55//99 126//97
f 126//97 55//99 79//66
f 55//99 8//31 79//66
f 60//100 78//32 8//31
f 59//101 127//102 60//100
f 58//24 128//103 59//101
f 60//100 127//102 78//32
f 127//102 77//72 78//32
f 59//101 128//103 127//102
f 128//103 129//104 127//102
f 127//102 129//104 77//72
f 129//104 76//73 77//72
f 58//24 51//13 128//103
f 51//13 50//105 128//103
f 128//103 50//105 129//104
f 50//105 49//106 129//104
f 129//104 49//106 76//73
f 49//106 7//28 76//73
f 54//107 75//29 7//28
f 53//108 130//109 54//107
f 52//23 131//110 53//108
f 54//107 130//109 75//29
f 130//109 74//77 75//29
f 53//108 131//110 130//109
f 131//110 132//111 130//109
f 130//109 132//111 74//77
f 132//111 73//78 74//77
f 52//23 45//10 131//110
f 45//10 44//112 131//110
f 131//110 44//112 132//111
f 44//112 43//113 132//111
f 132//111 43//113 73//78
f 43//113 11//40 73//78
f 67//85 72//86 10//37
f 68//84 133//114 67//85
f 69//22 134//115 68//84
f 67//85 133//114 72//86
f 133//114 71//87 72//86
f 68//84 134//115 133//114
f 134//115 135//116 133//114
f 133//114 135//116 71//87
f 135//116 70//26 71//87
f 69//22 42//21 134//115
f 42//21 41//117 134//115
f 134//115 41//117 135//116
f 41//117 40//118 135//116
f 135//116 40//118 70//26
f 40//118 5//17 70//26
f 61//92 66//93 9//34
f 62//91 136//119 61//92
f 63//19 137//120 62//91
f 61//92 136//119 66//93
f 136//119 65//94 66//93
f 62//91 137//120 136//119
f 137//120 138//121 136//119
f 136//119 138//121 65//94
f 138//121 64//25 65//94
f 63//19 39//18 137//120
f 39//18 38//122 137//120
f 137//120 38//122 138//121
f 38//122 37//123 138//121
f 138//121 37//123 64//25
f 37//123 4//14 64//25
f 55//99 60//100 8//31
f 56//98 139//124 55//99
f 57//16 140//125 56//98
f 55//99 139//124 60//100
f 139//124 59//101 60//100
f 56//98 140//125 139//124
f 140//125 141//126 139//124
f 139//124 141//126 59//101
f 141//126 58//24 59//101
f 57//16 33//15 140//125
f 33//15 32//127 140//125
f 140//125 32//127 141//126
f 32//127 31//128 141//126
f 141//126 31//128 58//24
f 31//128 3//11 58//24
f 49//106 54//107 7//28
f 50//105 142//129 49//106
f 51//13 143//130 50//105
f 49//106 142//129 54//107
f 142//129 53//108 54//107
f 50//105 143//130 142//129
f 143//130 144//131 142//129
f 142//129 144//131 53//108
f 144//131 52//23 53//108
f 51//13 21//12 143//130
f 21//12 20//132 143//130
f 143//130 20//132 144//131
f 20//132 19//133 144//131
f 144//131 19//133 52//23
f 19//133 2//4 52//23
f 43//113 48//79 11//40
f 44//112 145//134 43//113
f 45//10 146//135 44//112
f 43//113 145//134 48//79
f 145//134 47//80 48//79
f 44//112 146//135 145//134
f 146//135 147//136 145//134
f 145//134 147//136 47//80
f 147//136 46//27 47//80
f 45//10 24//6 146//135
f 24//6 23//137 146//135
f 146//135 23//137 147//136
f 23//137 22//138 147//136
f 147//136 22//138 46//27
f 22//138 6//20 46//27
f 27//139 42//21 6//20
f 26//140 148//141 27//139
f 25//9 149//142 26//140
f 27//139 148//141 42//21
f 148//141 41//117 42//21
f 26//140 149//142 148//141
f 149//142 150//143 148//141
f 148//141 150//143 41//117
f 150//143 40//118 41//117
f 25//9 36//8 149//142
f 36//8 35//144 149//142
f 149//142 35//144 150//143
f 35//144 34//145 150//143
f 150//143 34//145 40//118
f 34//145 5//17 40//118
f 34//145 39//18 5//17
f 35//144 151//146 34//145
f 36//8 152//147 35//144
f 34//145 151//146 39//18
f 151//146 38//122 39//18
f 35//144 152//147 151//146
f 152//147 153//148 151//146
f 151//146 153//148 38//122
f 153//148 37//123 38//122
f 36//8 30//7 152//147
f 30//7 29//149 152//147
f 152//147 29//149 153//148
f 29//149 28//150 153//148
f 153//148 28//150 37//123
f 28//150 4//14 37//123
f 28//150 33//15 4//14
f 29//149 154//151 28//150
f 30//7 155//152 29//149
f 28//150 154//151 33//15
f 154//151 32//127 33//15
f 29//149 155//152 154//151
f 155//152 156//153 154//151
f 154//151 156//153 32//127
f 156//153 31//128 32//127
f 30//7 15//3 155//152
f 15//3 14//154 155//152
f 155//152 14//154 156//153
f 14//154 13//155 156//153
f 156//153 13//155 31//128
f 13//155 3//11 31//128
f 22//138 27//139 6//20
f 23//137 157//156 22//138
f 24//6 158//157 23//137
f 22//138 157//156 27//139
f 157//156 26//140 27//139
f 23//137 158//157 157//156
f 158//157 159//158 157//156
f 157//156 159//158 26//140
f 159//158 25//9 26//140
f 24//6 18//5 158//157
f 18//5 17//159 158//157
f 158//157 17//159 159//158
f 17//159 16//2 159//158
f 159//158 16//2 25//9
f 16//2 1//1 25//9
f 13//155 21//12 3//11
f 14//154 160//160 13//155
f 15//3 161//161 14//154
f 13//155 160//160 21//12
f 160//160 20//132 21//12
f 14//154 161//161 160//160
f 161//161 162//162 160//160
f 160//160 162//162 20//132
f 162//162 19//133 20//132
f 15//3 16//2 161//161
f 16//2 17//159 161//161
f 161//161 17//159 162//162
f 17//159 18//5 162//162
f 162//162 18//5 19//133
f 18//5 2//4 19//133
