# Blender v2.82 (sub 7) OBJ File: ''
# www.blender.org
mtllib 1.mtl
o Cube_Cube.001
v -1.000000 2.000000 1.000000
v -0.483689 -2.000000 -1.328926
v -1.328926 -2.000000 0.483689
v -1.000000 2.000000 -1.000000
v 1.328926 -2.000000 -0.483690
v 1.000000 2.000000 -1.000000
v 0.483689 -2.000000 1.328926
v 1.000000 2.000000 1.000000
v -1.000000 -0.000000 1.000000
v -1.000000 0.000000 -1.000000
v 1.000000 0.000000 -1.000000
v 1.000000 -0.000000 1.000000
vt 0.799981 0.200020
vt 0.999902 0.000098
vt 0.999902 0.200020
vt 0.399941 0.200020
vt 0.200019 0.000098
vt 0.399941 0.000098
vt 0.200019 0.200020
vt 0.000098 0.399942
vt 0.000098 0.200020
vt 0.867079 0.721140
vt 0.575538 0.429600
vt 0.867079 0.429600
vt 0.200019 0.203711
vt 0.399942 0.403633
vt 0.200020 0.403633
vt 0.399942 0.599864
vt 0.200020 0.399942
vt 0.399942 0.399942
vt 0.799981 0.399942
vt 0.999902 0.399942
vt 0.599863 0.200020
vt 0.599863 0.000098
vt 0.599864 0.599864
vt 0.599864 0.399941
vt 0.399941 0.203711
vt 0.599864 0.403633
vt 0.799981 0.000098
vt 0.575539 0.721141
vt 0.200020 0.599864
vt 0.599863 0.203711
vn 0.1112 0.0028 -0.9938
vn 0.2233 -0.0053 -0.9747
vn 0.0000 0.0744 -0.9972
vn 0.9938 0.0028 0.1112
vn 0.9747 -0.0053 0.2233
vn 0.9972 0.0744 0.0000
vn 0.0000 -1.0000 -0.0000
vn 0.0000 1.0000 0.0000
vn 0.0000 -0.0000 1.0000
vn 0.0000 0.0744 0.9972
vn -0.9938 0.0028 -0.1112
vn -0.9747 -0.0053 -0.2233
vn -0.9972 0.0744 0.0000
vn 0.0000 0.0000 -1.0000
vn 1.0000 0.0000 0.0000
vn -1.0000 0.0000 0.0000
vn -0.1112 0.0028 0.9938
vn -0.2233 -0.0053 0.9747
vn 0.4170 -0.1623 -0.8943
vn 0.8943 -0.1623 0.4170
vn -0.8943 -0.1623 -0.4170
vn -0.4170 -0.1623 0.8943
usemtl None
s 1
f 11/1/1 2/2/2 10/3/3
f 12/4/4 5/5/5 11/6/6
f 7/7/7 2/8/7 5/9/7
f 1/10/8 6/11/8 4/12/8
f 1/13/9 12/14/10 8/15/9
f 10/16/11 3/17/12 9/18/13
f 6/19/14 10/3/3 4/20/14
f 8/21/15 11/6/6 6/22/15
f 4/23/16 9/18/13 1/24/16
f 9/25/17 7/26/18 12/14/10
f 11/1/1 5/27/19 2/2/2
f 12/4/4 7/7/20 5/5/5
f 7/7/7 3/17/7 2/8/7
f 1/10/8 8/28/8 6/11/8
f 1/13/9 9/25/17 12/14/10
f 10/16/11 2/29/21 3/17/12
f 6/19/14 11/1/1 10/3/3
f 8/21/15 12/4/4 11/6/6
f 4/23/16 10/16/11 9/18/13
f 9/25/17 3/30/22 7/26/18
