<?xml version="1.0" encoding="UTF-8" standalone="no"?>
<!-- Created with Inkscape (http://www.inkscape.org/) -->

<svg
   xmlns:dc="http://purl.org/dc/elements/1.1/"
   xmlns:cc="http://creativecommons.org/ns#"
   xmlns:rdf="http://www.w3.org/1999/02/22-rdf-syntax-ns#"
   xmlns:svg="http://www.w3.org/2000/svg"
   xmlns="http://www.w3.org/2000/svg"
   xmlns:sodipodi="http://sodipodi.sourceforge.net/DTD/sodipodi-0.dtd"
   xmlns:inkscape="http://www.inkscape.org/namespaces/inkscape"
   width="354.54169mm"
   height="52.160713mm"
   viewBox="0 0 354.54168 52.160713"
   version="1.1"
   id="svg8"
   inkscape:version="0.92.4 (5da689c313, 2019-01-14)"
   sodipodi:docname="action-menu.svg">
  <defs
     id="defs2">
    <inkscape:perspective
       sodipodi:type="inkscape:persp3d"
       inkscape:vp_x="-13.214105 : 84.700722 : 1"
       inkscape:vp_y="0 : 999.99997 : 0"
       inkscape:vp_z="595.55159 : 173.47613 : 1"
       inkscape:persp3d-origin="309.56251 : 79.500994 : 1"
       id="perspective1501" />
    <inkscape:perspective
       id="perspective1501-7"
       inkscape:persp3d-origin="309.56251 : 79.500994 : 1"
       inkscape:vp_z="595.55159 : 173.47613 : 1"
       inkscape:vp_y="0 : 999.99997 : 0"
       inkscape:vp_x="-13.214105 : 84.700722 : 1"
       sodipodi:type="inkscape:persp3d" />
  </defs>
  <sodipodi:namedview
     id="base"
     pagecolor="#ffffff"
     bordercolor="#666666"
     borderopacity="1.0"
     inkscape:pageopacity="0.0"
     inkscape:pageshadow="2"
     inkscape:zoom="0.35"
     inkscape:cx="784.13539"
     inkscape:cy="-28.481363"
     inkscape:document-units="mm"
     inkscape:current-layer="layer1"
     showgrid="false"
     inkscape:snap-global="false"
     fit-margin-top="0"
     fit-margin-left="0"
     fit-margin-right="0"
     fit-margin-bottom="0"
     inkscape:window-width="1366"
     inkscape:window-height="704"
     inkscape:window-x="0"
     inkscape:window-y="27"
     inkscape:window-maximized="1"
     showguides="true"
     inkscape:guide-bbox="true" />
  <metadata
     id="metadata5">
    <rdf:RDF>
      <cc:Work
         rdf:about="">
        <dc:format>image/svg+xml</dc:format>
        <dc:type
           rdf:resource="http://purl.org/dc/dcmitype/StillImage" />
        <dc:title></dc:title>
      </cc:Work>
    </rdf:RDF>
  </metadata>
  <g
     inkscape:label="Layer 1"
     inkscape:groupmode="layer"
     id="layer1"
     transform="translate(63.499981,-72.482147)"
     style="display:inline">
    <rect
       style="fill:#999999;fill-opacity:1;stroke:none;stroke-width:1;stroke-miterlimit:4;stroke-dasharray:none;stroke-opacity:1"
       id="rect817"
       width="52.160713"
       height="52.160713"
       x="-63.499981"
       y="72.482147" />
    <rect
       style="fill:#999999;fill-opacity:1;stroke:none;stroke-width:1;stroke-miterlimit:4;stroke-dasharray:none;stroke-opacity:1"
       id="rect817-3"
       width="52.160713"
       height="52.160713"
       x="-3.0237908"
       y="72.482147" />
    <rect
       style="fill:#999999;fill-opacity:1;stroke:none;stroke-width:1;stroke-miterlimit:4;stroke-dasharray:none;stroke-opacity:1"
       id="rect817-6"
       width="52.160713"
       height="52.160713"
       x="57.452396"
       y="72.482147" />
    <rect
       style="fill:#999999;fill-opacity:1;stroke:none;stroke-width:1;stroke-miterlimit:4;stroke-dasharray:none;stroke-opacity:1"
       id="rect817-7"
       width="52.160713"
       height="52.160713"
       x="117.92859"
       y="72.482147" />
    <rect
       style="fill:#999999;fill-opacity:1;stroke:none;stroke-width:1;stroke-miterlimit:4;stroke-dasharray:none;stroke-opacity:1"
       id="rect817-5"
       width="52.160713"
       height="52.160713"
       x="178.40477"
       y="72.482147" />
    <rect
       style="fill:#999999;fill-opacity:1;stroke:none;stroke-width:1;stroke-miterlimit:4;stroke-dasharray:none;stroke-opacity:1"
       id="rect817-35"
       width="52.160713"
       height="52.160713"
       x="238.88098"
       y="72.482147" />
    <g
       aria-label="new, view, save, load, undo, redo"
       transform="matrix(0.50688806,0,0,0.50688806,-35.346198,-52.740347)"
       style="font-style:normal;font-weight:normal;font-size:40px;line-height:1.25;font-family:sans-serif;letter-spacing:0px;word-spacing:0px;fill:#000000;fill-opacity:1;stroke:none;stroke-width:0.52197587"
       id="flowRoot1165">
      <path
         d="m -18.453125,300.14258 v 13.20312 h -3.59375 v -13.08593 q 0,-3.10547 -1.210937,-4.64844 -1.210938,-1.54297 -3.632813,-1.54297 -2.910156,0 -4.589844,1.85547 -1.679687,1.85547 -1.679687,5.05859 v 12.36328 h -3.613281 v -21.875 h 3.613281 v 3.39844 q 1.289062,-1.97266 3.027344,-2.94922 1.757812,-0.97656 4.042968,-0.97656 3.769532,0 5.703125,2.34375 1.933594,2.32422 1.933594,6.85547 z"
         style="stroke-width:0.52197587"
         id="path1805" />
      <path
         d="m 7.4648437,301.50977 v 1.75781 H -9.0585938 q 0.234375,3.71094 2.2265626,5.66406 2.0117187,1.93359 5.5859375,1.93359 2.07031245,0 4.0039062,-0.50781 1.953125,-0.50781 3.8671875,-1.52344 v 3.39844 q -1.9335938,0.82031 -3.9648437,1.25 -2.03125005,0.42969 -4.1210938,0.42969 -5.234375,0 -8.3007813,-3.04688 -3.0468752,-3.04687 -3.0468752,-8.24218 0,-5.3711 2.8906252,-8.51563 2.9101563,-3.16406 7.8320313,-3.16406 4.4140625,0 6.9726562,2.85156 2.578125,2.83203 2.578125,7.71485 z m -3.5937499,-1.05469 q -0.039063,-2.94922 -1.6601563,-4.70703 -1.6015625,-1.75782 -4.2578125,-1.75782 -3.0078125,0 -4.8242187,1.69922 -1.7968751,1.69922 -2.0703126,4.78516 z"
         style="stroke-width:0.52197587"
         id="path1807" />
      <path
         d="m 11.273438,291.4707 h 3.59375 l 4.492187,17.07032 4.472656,-17.07032 h 4.238281 l 4.492188,17.07032 4.472656,-17.07032 h 3.59375 l -5.722656,21.875 h -4.238281 l -4.707032,-17.92968 -4.726562,17.92968 h -4.238281 z"
         style="stroke-width:0.52197587"
         id="path1809" />
      <path
         d="m 47.015625,308.38477 h 4.121094 v 3.35937 l -3.203125,6.25 h -2.519532 l 1.601563,-6.25 z"
         style="stroke-width:0.52197587"
         id="path1811" />
      <path
         d="m 68.988281,291.4707 h 3.808594 l 6.835937,18.35938 6.835938,-18.35938 h 3.808594 l -8.203125,21.875 h -4.882813 z"
         style="stroke-width:0.52197587"
         id="path1813" />
      <path
         d="m 95.238281,291.4707 h 3.59375 v 21.875 h -3.59375 z m 0,-8.51562 h 3.59375 v 4.55078 h -3.59375 z"
         style="stroke-width:0.52197587"
         id="path1815" />
      <path
         d="m 125.04297,301.50977 v 1.75781 h -16.52344 q 0.23438,3.71094 2.22656,5.66406 2.01172,1.93359 5.58594,1.93359 2.07031,0 4.00391,-0.50781 1.95312,-0.50781 3.86719,-1.52344 v 3.39844 q -1.9336,0.82031 -3.96485,1.25 -2.03125,0.42969 -4.12109,0.42969 -5.23438,0 -8.30078,-3.04688 -3.04688,-3.04687 -3.04688,-8.24218 0,-5.3711 2.89063,-8.51563 2.91015,-3.16406 7.83203,-3.16406 4.41406,0 6.97265,2.85156 2.57813,2.83203 2.57813,7.71485 z m -3.59375,-1.05469 q -0.0391,-2.94922 -1.66016,-4.70703 -1.60156,-1.75782 -4.25781,-1.75782 -3.00781,0 -4.82422,1.69922 -1.79687,1.69922 -2.07031,4.78516 z"
         style="stroke-width:0.52197587"
         id="path1817" />
      <path
         d="m 128.85156,291.4707 h 3.59375 l 4.49219,17.07032 4.47266,-17.07032 h 4.23828 l 4.49218,17.07032 4.47266,-17.07032 h 3.59375 l -5.72266,21.875 h -4.23828 l -4.70703,-17.92968 -4.72656,17.92968 h -4.23828 z"
         style="stroke-width:0.52197587"
         id="path1819" />
      <path
         d="m 164.59375,308.38477 h 4.12109 v 3.35937 l -3.20312,6.25 h -2.51953 l 1.60156,-6.25 z"
         style="stroke-width:0.52197587"
         id="path1821" />
      <path
         d="m 203.08984,292.11523 v 3.39844 q -1.52343,-0.78125 -3.16406,-1.17187 -1.64062,-0.39063 -3.39844,-0.39063 -2.67578,0 -4.02343,0.82031 -1.32813,0.82032 -1.32813,2.46094 0,1.25 0.95703,1.97266 0.95703,0.70312 3.84766,1.34765 l 1.23047,0.27344 q 3.82812,0.82031 5.42968,2.32422 1.6211,1.48438 1.6211,4.16016 0,3.04687 -2.42188,4.82422 -2.40234,1.77734 -6.62109,1.77734 -1.75781,0 -3.67188,-0.35156 -1.89453,-0.33203 -4.0039,-1.01563 v -3.71094 q 1.99219,1.03516 3.92578,1.5625 1.93359,0.50782 3.82812,0.50782 2.53907,0 3.90625,-0.85938 1.36719,-0.8789 1.36719,-2.46094 0,-1.46484 -0.99609,-2.24609 -0.97656,-0.78125 -4.31641,-1.50391 l -1.25,-0.29296 q -3.33984,-0.70313 -4.82422,-2.14844 -1.48437,-1.46485 -1.48437,-4.00391 0,-3.08594 2.1875,-4.76562 2.1875,-1.67969 6.21094,-1.67969 1.99218,0 3.75,0.29297 1.75781,0.29297 3.24218,0.8789 z"
         style="stroke-width:0.52197587"
         id="path1823" />
      <path
         d="m 219.94531,302.34961 q -4.35547,0 -6.03515,0.99609 -1.67969,0.9961 -1.67969,3.39844 0,1.91406 1.25,3.04688 1.26953,1.11328 3.4375,1.11328 2.98828,0 4.78515,-2.10938 1.81641,-2.1289 1.81641,-5.64453 v -0.80078 z m 7.16797,-1.48438 v 12.48047 h -3.59375 v -3.32031 q -1.23047,1.99219 -3.06641,2.94922 -1.83593,0.9375 -4.49218,0.9375 -3.35938,0 -5.35157,-1.875 -1.97265,-1.89453 -1.97265,-5.05859 0,-3.69141 2.46094,-5.56641 2.48046,-1.875 7.38281,-1.875 h 5.03906 v -0.35156 q 0,-2.48047 -1.64062,-3.82813 -1.6211,-1.36719 -4.57032,-1.36719 -1.875,0 -3.65234,0.44922 -1.77734,0.44922 -3.41797,1.34766 v -3.32031 q 1.97266,-0.76172 3.82813,-1.13282 1.85546,-0.39062 3.61328,-0.39062 4.74609,0 7.08984,2.46094 2.34375,2.46093 2.34375,7.46093 z"
         style="stroke-width:0.52197587"
         id="path1825" />
      <path
         d="m 231.95703,291.4707 h 3.80859 l 6.83594,18.35938 6.83594,-18.35938 h 3.80859 l -8.20312,21.875 h -4.88281 z"
         style="stroke-width:0.52197587"
         id="path1827" />
      <path
         d="m 276.91797,301.50977 v 1.75781 h -16.52344 q 0.23438,3.71094 2.22656,5.66406 2.01172,1.93359 5.58594,1.93359 2.07031,0 4.00391,-0.50781 1.95312,-0.50781 3.86718,-1.52344 v 3.39844 q -1.93359,0.82031 -3.96484,1.25 -2.03125,0.42969 -4.12109,0.42969 -5.23438,0 -8.30078,-3.04688 -3.04688,-3.04687 -3.04688,-8.24218 0,-5.3711 2.89063,-8.51563 2.91015,-3.16406 7.83203,-3.16406 4.41406,0 6.97265,2.85156 2.57813,2.83203 2.57813,7.71485 z m -3.59375,-1.05469 q -0.0391,-2.94922 -1.66016,-4.70703 -1.60156,-1.75782 -4.25781,-1.75782 -3.00781,0 -4.82422,1.69922 -1.79687,1.69922 -2.07031,4.78516 z"
         style="stroke-width:0.52197587"
         id="path1829" />
      <path
         d="m 283.73437,308.38477 h 4.1211 v 3.35937 l -3.20313,6.25 h -2.51953 l 1.60156,-6.25 z"
         style="stroke-width:0.52197587"
         id="path1831" />
      <path
         d="m 308.28516,282.95508 h 3.59375 v 30.39062 h -3.59375 z"
         style="stroke-width:0.52197587"
         id="path1833" />
      <path
         d="m 327.85547,293.99023 q -2.89063,0 -4.57031,2.26563 -1.67969,2.24609 -1.67969,6.17187 0,3.92579 1.66015,6.19141 1.67969,2.24609 4.58985,2.24609 2.87109,0 4.55078,-2.26562 1.67969,-2.26563 1.67969,-6.17188 0,-3.88671 -1.67969,-6.15234 -1.67969,-2.28516 -4.55078,-2.28516 z m 0,-3.04687 q 4.6875,0 7.36328,3.04687 2.67578,3.04688 2.67578,8.4375 0,5.3711 -2.67578,8.4375 -2.67578,3.04688 -7.36328,3.04688 -4.70703,0 -7.38281,-3.04688 -2.65625,-3.0664 -2.65625,-8.4375 0,-5.39062 2.65625,-8.4375 2.67578,-3.04687 7.38281,-3.04687 z"
         style="stroke-width:0.52197587"
         id="path1835" />
      <path
         d="m 353.77344,302.34961 q -4.35547,0 -6.03516,0.99609 -1.67969,0.9961 -1.67969,3.39844 0,1.91406 1.25,3.04688 1.26953,1.11328 3.4375,1.11328 2.98828,0 4.78516,-2.10938 1.81641,-2.1289 1.81641,-5.64453 v -0.80078 z m 7.16797,-1.48438 v 12.48047 h -3.59375 v -3.32031 q -1.23047,1.99219 -3.06641,2.94922 -1.83594,0.9375 -4.49219,0.9375 -3.35937,0 -5.35156,-1.875 -1.97266,-1.89453 -1.97266,-5.05859 0,-3.69141 2.46094,-5.56641 2.48047,-1.875 7.38281,-1.875 h 5.03907 v -0.35156 q 0,-2.48047 -1.64063,-3.82813 -1.62109,-1.36719 -4.57031,-1.36719 -1.875,0 -3.65235,0.44922 -1.77734,0.44922 -3.41796,1.34766 v -3.32031 q 1.97265,-0.76172 3.82812,-1.13282 1.85547,-0.39062 3.61328,-0.39062 4.7461,0 7.08985,2.46094 2.34375,2.46093 2.34375,7.46093 z"
         style="stroke-width:0.52197587"
         id="path1837" />
      <path
         d="m 382.75781,294.79102 v -11.83594 h 3.59375 v 30.39062 h -3.59375 v -3.28125 q -1.13281,1.95313 -2.87109,2.91016 -1.71875,0.9375 -4.14063,0.9375 -3.96484,0 -6.46484,-3.16406 -2.48047,-3.16407 -2.48047,-8.32032 0,-5.15625 2.48047,-8.32031 2.5,-3.16406 6.46484,-3.16406 2.42188,0 4.14063,0.95703 1.73828,0.9375 2.87109,2.89063 z m -12.24609,7.63671 q 0,3.96485 1.62109,6.23047 1.64063,2.2461 4.49219,2.2461 2.85156,0 4.49219,-2.2461 1.64062,-2.26562 1.64062,-6.23047 0,-3.96484 -1.64062,-6.21093 -1.64063,-2.26563 -4.49219,-2.26563 -2.85156,0 -4.49219,2.26563 -1.62109,2.24609 -1.62109,6.21093 z"
         style="stroke-width:0.52197587"
         id="path1839" />
      <path
         d="m 394.67187,308.38477 h 4.1211 v 3.35937 l -3.20313,6.25 h -2.51953 l 1.60156,-6.25 z"
         style="stroke-width:0.52197587"
         id="path1841" />
      <path
         d="M 418.85156,304.71289 V 291.4707 h 3.59375 v 13.10547 q 0,3.10547 1.21094,4.66797 1.21094,1.54297 3.63281,1.54297 2.91016,0 4.58985,-1.85547 1.69921,-1.85547 1.69921,-5.05859 V 291.4707 h 3.59375 v 21.875 h -3.59375 v -3.35937 q -1.30859,1.99219 -3.04687,2.96875 -1.71875,0.95703 -4.00391,0.95703 -3.76953,0 -5.72265,-2.34375 -1.95313,-2.34375 -1.95313,-6.85547 z m 9.04297,-13.76953 z"
         style="stroke-width:0.52197587"
         id="path1843" />
      <path
         d="m 462.79687,300.14258 v 13.20312 h -3.59375 v -13.08593 q 0,-3.10547 -1.21093,-4.64844 -1.21094,-1.54297 -3.63282,-1.54297 -2.91015,0 -4.58984,1.85547 -1.67969,1.85547 -1.67969,5.05859 v 12.36328 h -3.61328 v -21.875 h 3.61328 v 3.39844 q 1.28907,-1.97266 3.02735,-2.94922 1.75781,-0.97656 4.04297,-0.97656 3.76953,0 5.70312,2.34375 1.93359,2.32422 1.93359,6.85547 z"
         style="stroke-width:0.52197587"
         id="path1845" />
      <path
         d="m 484.39844,294.79102 v -11.83594 h 3.59375 v 30.39062 h -3.59375 v -3.28125 q -1.13282,1.95313 -2.8711,2.91016 -1.71875,0.9375 -4.14062,0.9375 -3.96485,0 -6.46485,-3.16406 -2.48046,-3.16407 -2.48046,-8.32032 0,-5.15625 2.48046,-8.32031 2.5,-3.16406 6.46485,-3.16406 2.42187,0 4.14062,0.95703 1.73828,0.9375 2.8711,2.89063 z m -12.2461,7.63671 q 0,3.96485 1.6211,6.23047 1.64062,2.2461 4.49218,2.2461 2.85157,0 4.49219,-2.2461 1.64063,-2.26562 1.64063,-6.23047 0,-3.96484 -1.64063,-6.21093 -1.64062,-2.26563 -4.49219,-2.26563 -2.85156,0 -4.49218,2.26563 -1.6211,2.24609 -1.6211,6.21093 z"
         style="stroke-width:0.52197587"
         id="path1847" />
      <path
         d="m 503.87109,293.99023 q -2.89062,0 -4.57031,2.26563 -1.67969,2.24609 -1.67969,6.17187 0,3.92579 1.66016,6.19141 1.67969,2.24609 4.58984,2.24609 2.8711,0 4.55078,-2.26562 1.67969,-2.26563 1.67969,-6.17188 0,-3.88671 -1.67969,-6.15234 -1.67968,-2.28516 -4.55078,-2.28516 z m 0,-3.04687 q 4.6875,0 7.36328,3.04687 2.67579,3.04688 2.67579,8.4375 0,5.3711 -2.67579,8.4375 -2.67578,3.04688 -7.36328,3.04688 -4.70703,0 -7.38281,-3.04688 -2.65625,-3.0664 -2.65625,-8.4375 0,-5.39062 2.65625,-8.4375 2.67578,-3.04687 7.38281,-3.04687 z"
         style="stroke-width:0.52197587"
         id="path1849" />
      <path
         d="m 520.76562,308.38477 h 4.1211 v 3.35937 l -3.20313,6.25 h -2.51953 l 1.60156,-6.25 z"
         style="stroke-width:0.52197587"
         id="path1851" />
      <path
         d="m 557.99219,294.83008 q -0.60547,-0.35156 -1.32813,-0.50781 -0.70312,-0.17579 -1.5625,-0.17579 -3.04687,0 -4.6875,1.99219 -1.62109,1.97266 -1.62109,5.6836 v 11.52343 h -3.61328 v -21.875 h 3.61328 v 3.39844 q 1.13281,-1.99219 2.94922,-2.94922 1.8164,-0.97656 4.41406,-0.97656 0.37109,0 0.82031,0.0586 0.44922,0.0391 0.9961,0.13672 z"
         style="stroke-width:0.52197587"
         id="path1853" />
      <path
         d="m 579.65234,301.50977 v 1.75781 h -16.52343 q 0.23437,3.71094 2.22656,5.66406 2.01172,1.93359 5.58594,1.93359 2.07031,0 4.0039,-0.50781 1.95313,-0.50781 3.86719,-1.52344 v 3.39844 q -1.93359,0.82031 -3.96484,1.25 -2.03125,0.42969 -4.1211,0.42969 -5.23437,0 -8.30078,-3.04688 -3.04687,-3.04687 -3.04687,-8.24218 0,-5.3711 2.89062,-8.51563 2.91016,-3.16406 7.83203,-3.16406 4.41406,0 6.97266,2.85156 2.57812,2.83203 2.57812,7.71485 z m -3.59375,-1.05469 q -0.0391,-2.94922 -1.66015,-4.70703 -1.60157,-1.75782 -4.25782,-1.75782 -3.00781,0 -4.82421,1.69922 -1.79688,1.69922 -2.07032,4.78516 z"
         style="stroke-width:0.52197587"
         id="path1855" />
      <path
         d="m 599.94531,294.79102 v -11.83594 h 3.59375 v 30.39062 h -3.59375 v -3.28125 q -1.13281,1.95313 -2.87109,2.91016 -1.71875,0.9375 -4.14063,0.9375 -3.96484,0 -6.46484,-3.16406 -2.48047,-3.16407 -2.48047,-8.32032 0,-5.15625 2.48047,-8.32031 2.5,-3.16406 6.46484,-3.16406 2.42188,0 4.14063,0.95703 1.73828,0.9375 2.87109,2.89063 z m -12.24609,7.63671 q 0,3.96485 1.62109,6.23047 1.64063,2.2461 4.49219,2.2461 2.85156,0 4.49219,-2.2461 1.64062,-2.26562 1.64062,-6.23047 0,-3.96484 -1.64062,-6.21093 -1.64063,-2.26563 -4.49219,-2.26563 -2.85156,0 -4.49219,2.26563 -1.62109,2.24609 -1.62109,6.21093 z"
         style="stroke-width:0.52197587"
         id="path1857" />
      <path
         d="m 619.41797,293.99023 q -2.89063,0 -4.57031,2.26563 -1.67969,2.24609 -1.67969,6.17187 0,3.92579 1.66015,6.19141 1.67969,2.24609 4.58985,2.24609 2.87109,0 4.55078,-2.26562 1.67969,-2.26563 1.67969,-6.17188 0,-3.88671 -1.67969,-6.15234 -1.67969,-2.28516 -4.55078,-2.28516 z m 0,-3.04687 q 4.6875,0 7.36328,3.04687 2.67578,3.04688 2.67578,8.4375 0,5.3711 -2.67578,8.4375 -2.67578,3.04688 -7.36328,3.04688 -4.70703,0 -7.38281,-3.04688 -2.65625,-3.0664 -2.65625,-8.4375 0,-5.39062 2.65625,-8.4375 2.67578,-3.04687 7.38281,-3.04687 z"
         style="stroke-width:0.52197587"
         id="path1859" />
    </g>
  </g>
  <g
     inkscape:groupmode="layer"
     id="layer2"
     inkscape:label="regions"
     style="display:none;opacity:0.5270004"
     transform="translate(-16.630962,-12.095241)">
    <rect
       style="fill:#ff0000;fill-opacity:1;stroke:none;stroke-width:1;stroke-miterlimit:4;stroke-dasharray:none;stroke-opacity:1"
       id="new"
       width="52.160713"
       height="52.160713"
       x="16.630962"
       y="12.095242"
       inkscape:label="#rect817-69" />
    <rect
       style="fill:#ff0000;fill-opacity:1;stroke:none;stroke-width:1;stroke-miterlimit:4;stroke-dasharray:none;stroke-opacity:1"
       id="view"
       width="52.160713"
       height="52.160713"
       x="77.107147"
       y="12.095242"
       inkscape:label="#rect817-3-3" />
    <rect
       style="fill:#ff0000;fill-opacity:1;stroke:none;stroke-width:1;stroke-miterlimit:4;stroke-dasharray:none;stroke-opacity:1"
       id="save"
       width="52.160713"
       height="52.160713"
       x="137.58334"
       y="12.095242"
       inkscape:label="#rect817-6-7" />
    <rect
       style="fill:#ff0000;fill-opacity:1;stroke:none;stroke-width:1;stroke-miterlimit:4;stroke-dasharray:none;stroke-opacity:1"
       id="load"
       width="52.160713"
       height="52.160713"
       x="198.05954"
       y="12.095242"
       inkscape:label="#rect817-7-4" />
    <rect
       style="fill:#ff0000;fill-opacity:1;stroke:none;stroke-width:1;stroke-miterlimit:4;stroke-dasharray:none;stroke-opacity:1"
       id="undo"
       width="52.160713"
       height="52.160713"
       x="258.53571"
       y="12.095242"
       inkscape:label="#rect817-5-5" />
    <rect
       style="fill:#ff0000;fill-opacity:1;stroke:none;stroke-width:1;stroke-miterlimit:4;stroke-dasharray:none;stroke-opacity:1"
       id="redo"
       width="52.160713"
       height="52.160713"
       x="319.0119"
       y="12.095242"
       inkscape:label="#rect817-35-2" />
  </g>
</svg>
