# Blender v2.79 (sub 0) OBJ File: ''
# www.blender.org
mtllib cpu.mtl
o Cylinder_Cylinder.006
v -0.498602 -0.493491 0.503576
v -0.498602 -0.070230 0.503576
v 0.498602 -0.070230 -0.503576
v 0.497567 -0.493491 0.313746
v 0.498602 -0.493491 -0.503576
v 0.306818 -0.493491 0.503576
v 0.307182 -0.070230 0.503576
v 0.497567 -0.070230 0.313783
v -0.497567 -0.493491 -0.313746
v -0.306818 -0.493491 -0.503576
v -0.307182 -0.070230 -0.503576
v -0.497567 -0.070230 -0.313783
vn 0.0000 0.0000 1.0000
vn 0.7054 -0.0005 0.7088
vn 0.7053 -0.0006 0.7089
vn 0.7054 -0.0006 0.7088
vn 0.0000 0.0000 -1.0000
vn 0.0000 1.0000 -0.0000
vn -0.0002 1.0000 -0.0001
vn -1.0000 0.0000 -0.0013
vn -1.0000 -0.0001 -0.0012
vn -0.7054 -0.0005 -0.7088
vn -0.7053 -0.0006 -0.7089
vn -0.7054 -0.0006 -0.7088
vn 1.0000 0.0000 0.0013
vn 1.0000 -0.0001 0.0012
vn 0.0000 -1.0000 0.0000
vn 0.0001 -1.0000 -0.0001
vn 0.0000 -1.0000 0.0001
vn -0.0000 0.0002 1.0000
vn 0.7061 -0.0000 0.7081
vn 0.7060 -0.0001 0.7082
vn 0.7059 -0.0002 0.7083
vn 0.0000 0.0002 -1.0000
vn 0.0001 1.0000 -0.0001
vn 0.0002 1.0000 0.0001
vn -0.0001 1.0000 0.0001
vn -1.0000 -0.0001 -0.0011
vn -0.7061 -0.0000 -0.7081
vn -0.7060 -0.0001 -0.7082
vn -0.7059 -0.0002 -0.7083
vn 1.0000 -0.0001 0.0011
vn -0.0001 -1.0000 0.0000
vn 0.0001 -1.0000 -0.0000
vn -0.0000 -1.0000 -0.0001
vn -0.0001 -1.0000 0.0001
usemtl Material.009
s off
f 6//1 2//1 1//1
f 4//2 7//3 6//4
f 10//5 3//5 5//5
f 8//6 11//7 12//6
f 2//8 9//9 1//8
f 9//10 11//11 10//12
f 3//13 4//14 5//13
f 6//15 9//16 4//17
f 6//1 7//18 2//1
f 4//19 8//20 7//21
f 10//5 11//22 3//5
f 12//6 2//6 7//23
f 7//24 8//6 12//6
f 3//6 11//25 8//6
f 2//8 12//8 9//26
f 9//27 12//28 11//29
f 3//13 8//13 4//30
f 5//15 4//31 10//15
f 6//15 1//15 9//32
f 9//33 10//15 4//34
