# Blender v2.79 (sub 0) OBJ File: ''
# www.blender.org
mtllib lamp-base.mtl
o Cylinder_Cylinder.003
v 0.000000 0.500000 -0.500000
v 0.097545 -0.500000 -0.490393
v 0.000000 -0.500000 -0.500000
v 0.097545 0.500000 -0.490393
v 0.191342 -0.500000 -0.461940
v 0.191342 0.500000 -0.461940
v 0.277785 -0.500000 -0.415735
v 0.277785 0.500000 -0.415735
v 0.353553 -0.500000 -0.353553
v 0.353553 0.500000 -0.353553
v 0.415735 -0.500000 -0.277785
v 0.415735 0.500000 -0.277785
v 0.461940 -0.500000 -0.191342
v 0.461940 0.500000 -0.191342
v 0.490393 -0.500000 -0.097545
v 0.490393 0.500000 -0.097545
v 0.500000 -0.500000 -0.000000
v 0.500000 0.500000 0.000000
v 0.490393 -0.500000 0.097545
v 0.490393 0.500000 0.097545
v 0.461940 -0.500000 0.191342
v 0.461940 0.500000 0.191342
v 0.415735 -0.500000 0.277785
v 0.415735 0.500000 0.277785
v 0.353553 -0.500000 0.353553
v 0.353553 0.500000 0.353553
v 0.277785 -0.500000 0.415735
v 0.277785 0.500000 0.415735
v 0.191342 -0.500000 0.461940
v 0.191342 0.500000 0.461940
v 0.097545 -0.500000 0.490393
v 0.097545 0.500000 0.490393
v 0.000000 -0.500000 0.500000
v 0.000000 0.500000 0.500000
v -0.097545 -0.500000 0.490393
v -0.097545 0.500000 0.490393
v -0.191342 -0.500000 0.461940
v -0.191342 0.500000 0.461940
v -0.277785 -0.500000 0.415735
v -0.277785 0.500000 0.415735
v -0.353554 -0.500000 0.353553
v -0.353554 0.500000 0.353553
v -0.415735 -0.500000 0.277785
v -0.415735 0.500000 0.277785
v -0.461940 -0.500000 0.191341
v -0.461940 0.500000 0.191341
v -0.490393 -0.500000 0.097545
v -0.490393 0.500000 0.097545
v -0.500000 -0.500000 -0.000000
v -0.500000 0.500000 0.000000
v -0.490393 -0.500000 -0.097546
v -0.490393 0.500000 -0.097546
v -0.461940 -0.500000 -0.191342
v -0.461940 0.500000 -0.191342
v -0.415734 -0.500000 -0.277786
v -0.415734 0.500000 -0.277786
v -0.353553 -0.500000 -0.353554
v -0.353553 0.500000 -0.353554
v -0.277785 -0.500000 -0.415735
v -0.277785 0.500000 -0.415735
v -0.191341 -0.500000 -0.461940
v -0.191341 0.500000 -0.461940
v -0.097544 -0.500000 -0.490393
v -0.097544 0.500000 -0.490393
v 0.097545 -0.500000 0.490393
v -0.490393 -0.500000 0.097545
v 0.490393 -0.500000 -0.097545
v 0.191342 0.500000 0.461940
v 0.461940 0.500000 0.191342
v 0.191342 0.500000 -0.461940
v -0.097544 -0.500000 -0.490393
v 0.000000 -0.500000 -0.500000
v 0.097545 -0.500000 -0.490393
v 0.191342 -0.500000 -0.461940
v 0.277785 -0.500000 -0.415735
v 0.353553 -0.500000 -0.353553
v 0.415735 -0.500000 -0.277785
v 0.461940 -0.500000 -0.191342
v 0.500000 -0.500000 -0.000000
v 0.490393 -0.500000 0.097545
v 0.461940 -0.500000 0.191342
v 0.415735 -0.500000 0.277785
v 0.353553 -0.500000 0.353553
v 0.277785 -0.500000 0.415735
v 0.191342 -0.500000 0.461940
v 0.000000 -0.500000 0.500000
v -0.097545 -0.500000 0.490393
v -0.191342 -0.500000 0.461940
v -0.277785 -0.500000 0.415735
v -0.353554 -0.500000 0.353553
v -0.415735 -0.500000 0.277785
v -0.461940 -0.500000 0.191341
v -0.500000 -0.500000 -0.000000
v -0.490393 -0.500000 -0.097546
v -0.461940 -0.500000 -0.191342
v -0.415734 -0.500000 -0.277786
v -0.353553 -0.500000 -0.353554
v -0.277785 -0.500000 -0.415735
v -0.191341 -0.500000 -0.461940
v 0.097545 0.500000 -0.490393
v -0.191341 0.500000 -0.461940
v 0.000000 0.500000 -0.500000
v -0.097544 0.500000 -0.490393
v -0.277785 0.500000 -0.415735
v -0.353553 0.500000 -0.353554
v -0.415734 0.500000 -0.277786
v -0.461940 0.500000 -0.191342
v -0.490393 0.500000 -0.097546
v -0.500000 0.500000 0.000000
v -0.490393 0.500000 0.097545
v -0.461940 0.500000 0.191341
v -0.415735 0.500000 0.277785
v -0.353554 0.500000 0.353553
v -0.277785 0.500000 0.415735
v -0.191342 0.500000 0.461940
v -0.097545 0.500000 0.490393
v 0.000000 0.500000 0.500000
v 0.097545 0.500000 0.490393
v 0.277785 0.500000 0.415735
v 0.353553 0.500000 0.353553
v 0.415735 0.500000 0.277785
v 0.490393 0.500000 0.097545
v 0.500000 0.500000 0.000000
v 0.490393 0.500000 -0.097545
v 0.461940 0.500000 -0.191342
v 0.415735 0.500000 -0.277785
v 0.353553 0.500000 -0.353553
v 0.277785 0.500000 -0.415735
vn -0.0000 0.0000 -1.0000
vn 0.1951 0.0000 -0.9808
vn 0.3827 0.0000 -0.9239
vn 0.5556 0.0000 -0.8315
vn 0.7071 0.0000 -0.7071
vn 0.8315 0.0000 -0.5556
vn 0.9239 -0.0000 -0.3827
vn 0.9808 -0.0000 -0.1951
vn 1.0000 -0.0000 -0.0000
vn 0.9808 -0.0000 0.1951
vn 0.9239 -0.0000 0.3827
vn 0.8315 -0.0000 0.5556
vn 0.7071 -0.0000 0.7071
vn 0.5556 -0.0000 0.8315
vn 0.3827 -0.0000 0.9239
vn 0.1951 -0.0000 0.9808
vn 0.0000 -0.0000 1.0000
vn -0.1951 -0.0000 0.9808
vn -0.3827 -0.0000 0.9239
vn -0.5556 -0.0000 0.8315
vn -0.7071 -0.0000 0.7071
vn -0.8315 -0.0000 0.5556
vn -0.9239 0.0000 0.3827
vn -0.9808 0.0000 0.1951
vn -1.0000 0.0000 0.0000
vn -0.9808 0.0000 -0.1951
vn -0.9239 0.0000 -0.3827
vn -0.8315 0.0000 -0.5556
vn -0.7071 0.0000 -0.7071
vn -0.5556 0.0000 -0.8315
vn -0.3827 0.0000 -0.9239
vn -0.1951 0.0000 -0.9808
vn 0.0000 -1.0000 0.0000
vn -0.0000 1.0000 0.0000
usemtl Material.007
s 1
f 1//1 2//2 3//1
f 4//2 5//3 2//2
f 6//3 7//4 5//3
f 8//4 9//5 7//4
f 10//5 11//6 9//5
f 12//6 13//7 11//6
f 14//7 15//8 13//7
f 16//8 17//9 15//8
f 18//9 19//10 17//9
f 20//10 21//11 19//10
f 22//11 23//12 21//11
f 24//12 25//13 23//12
f 26//13 27//14 25//13
f 28//14 29//15 27//14
f 30//15 31//16 29//15
f 32//16 33//17 31//16
f 34//17 35//18 33//17
f 36//18 37//19 35//18
f 38//19 39//20 37//19
f 40//20 41//21 39//20
f 42//21 43//22 41//21
f 44//22 45//23 43//22
f 46//23 47//24 45//23
f 48//24 49//25 47//24
f 50//25 51//26 49//25
f 52//26 53//27 51//26
f 54//27 55//28 53//27
f 56//28 57//29 55//28
f 58//29 59//30 57//29
f 60//30 61//31 59//30
f 62//31 63//32 61//31
f 64//32 3//1 63//32
f 65//33 66//33 67//33
f 68//34 69//34 70//34
f 1//1 4//2 2//2
f 4//2 6//3 5//3
f 6//3 8//4 7//4
f 8//4 10//5 9//5
f 10//5 12//6 11//6
f 12//6 14//7 13//7
f 14//7 16//8 15//8
f 16//8 18//9 17//9
f 18//9 20//10 19//10
f 20//10 22//11 21//11
f 22//11 24//12 23//12
f 24//12 26//13 25//13
f 26//13 28//14 27//14
f 28//14 30//15 29//15
f 30//15 32//16 31//16
f 32//16 34//17 33//17
f 34//17 36//18 35//18
f 36//18 38//19 37//19
f 38//19 40//20 39//20
f 40//20 42//21 41//21
f 42//21 44//22 43//22
f 44//22 46//23 45//23
f 46//23 48//24 47//24
f 48//24 50//25 49//25
f 50//25 52//26 51//26
f 52//26 54//27 53//27
f 54//27 56//28 55//28
f 56//28 58//29 57//29
f 58//29 60//30 59//30
f 60//30 62//31 61//31
f 62//31 64//32 63//32
f 64//32 1//1 3//1
f 71//33 72//33 73//33
f 73//33 74//33 75//33
f 75//33 76//33 77//33
f 77//33 78//33 75//33
f 67//33 79//33 80//33
f 80//33 81//33 67//33
f 82//33 83//33 65//33
f 84//33 85//33 65//33
f 65//33 86//33 87//33
f 87//33 88//33 65//33
f 89//33 90//33 66//33
f 91//33 92//33 66//33
f 66//33 93//33 94//33
f 94//33 95//33 96//33
f 96//33 97//33 98//33
f 98//33 99//33 71//33
f 71//33 73//33 67//33
f 75//33 78//33 67//33
f 67//33 81//33 82//33
f 83//33 84//33 65//33
f 65//33 88//33 89//33
f 90//33 91//33 66//33
f 66//33 94//33 71//33
f 96//33 98//33 71//33
f 73//33 75//33 67//33
f 67//33 82//33 65//33
f 65//33 89//33 66//33
f 94//33 96//33 71//33
f 71//33 67//33 66//33
f 70//34 100//34 101//34
f 102//34 103//34 101//34
f 101//34 104//34 105//34
f 105//34 106//34 107//34
f 107//34 108//34 109//34
f 109//34 110//34 107//34
f 111//34 112//34 113//34
f 113//34 114//34 115//34
f 115//34 116//34 117//34
f 117//34 118//34 115//34
f 68//34 119//34 120//34
f 120//34 121//34 69//34
f 69//34 122//34 123//34
f 123//34 124//34 69//34
f 125//34 126//34 127//34
f 127//34 128//34 125//34
f 100//34 102//34 101//34
f 101//34 105//34 107//34
f 107//34 110//34 111//34
f 111//34 113//34 115//34
f 115//34 118//34 68//34
f 68//34 120//34 69//34
f 69//34 124//34 125//34
f 125//34 128//34 70//34
f 70//34 101//34 107//34
f 107//34 111//34 115//34
f 115//34 68//34 70//34
f 69//34 125//34 70//34
f 70//34 107//34 115//34
