<?xml version="1.0" encoding="UTF-8" standalone="no"?>
<!-- Created with Inkscape (http://www.inkscape.org/) -->

<svg
   xmlns:dc="http://purl.org/dc/elements/1.1/"
   xmlns:cc="http://creativecommons.org/ns#"
   xmlns:rdf="http://www.w3.org/1999/02/22-rdf-syntax-ns#"
   xmlns:svg="http://www.w3.org/2000/svg"
   xmlns="http://www.w3.org/2000/svg"
   xmlns:sodipodi="http://sodipodi.sourceforge.net/DTD/sodipodi-0.dtd"
   xmlns:inkscape="http://www.inkscape.org/namespaces/inkscape"
   width="475.41089mm"
   height="52.160713mm"
   viewBox="0 0 475.41088 52.160713"
   version="1.1"
   id="svg8"
   inkscape:version="0.92.4 (5da689c313, 2019-01-14)"
   sodipodi:docname="mode-menu.svg">
  <defs
     id="defs2">
    <inkscape:perspective
       sodipodi:type="inkscape:persp3d"
       inkscape:vp_x="-13.214105 : 84.700722 : 1"
       inkscape:vp_y="0 : 999.99997 : 0"
       inkscape:vp_z="595.55159 : 173.47613 : 1"
       inkscape:persp3d-origin="309.56251 : 79.500994 : 1"
       id="perspective1501" />
    <inkscape:perspective
       id="perspective1501-7"
       inkscape:persp3d-origin="309.56251 : 79.500994 : 1"
       inkscape:vp_z="595.55159 : 173.47613 : 1"
       inkscape:vp_y="0 : 999.99997 : 0"
       inkscape:vp_x="-13.214105 : 84.700722 : 1"
       sodipodi:type="inkscape:persp3d" />
  </defs>
  <sodipodi:namedview
     id="base"
     pagecolor="#ffffff"
     bordercolor="#666666"
     borderopacity="1.0"
     inkscape:pageopacity="0.0"
     inkscape:pageshadow="2"
     inkscape:zoom="0.24748738"
     inkscape:cx="854.75928"
     inkscape:cy="67.39561"
     inkscape:document-units="mm"
     inkscape:current-layer="layer2"
     showgrid="false"
     inkscape:snap-global="false"
     fit-margin-top="0"
     fit-margin-left="0"
     fit-margin-right="0"
     fit-margin-bottom="0"
     inkscape:window-width="1366"
     inkscape:window-height="704"
     inkscape:window-x="0"
     inkscape:window-y="27"
     inkscape:window-maximized="1"
     showguides="true"
     inkscape:guide-bbox="true" />
  <metadata
     id="metadata5">
    <rdf:RDF>
      <cc:Work
         rdf:about="">
        <dc:format>image/svg+xml</dc:format>
        <dc:type
           rdf:resource="http://purl.org/dc/dcmitype/StillImage" />
        <dc:title></dc:title>
      </cc:Work>
    </rdf:RDF>
  </metadata>
  <g
     inkscape:label="Layer 1"
     inkscape:groupmode="layer"
     id="layer1"
     transform="translate(63.499981,-72.482147)"
     style="display:inline">
    <rect
       style="display:inline;fill:#999999;fill-opacity:1;stroke:none;stroke-width:1;stroke-miterlimit:4;stroke-dasharray:none;stroke-opacity:1"
       id="rect817-35-6"
       width="52.160713"
       height="52.160713"
       x="299.35324"
       y="72.482147" />
    <rect
       style="display:inline;fill:#999999;fill-opacity:1;stroke:none;stroke-width:1;stroke-miterlimit:4;stroke-dasharray:none;stroke-opacity:1"
       id="rect817-35-6-7"
       width="52.160713"
       height="52.160713"
       x="359.75018"
       y="72.482147" />
    <rect
       style="fill:#999999;fill-opacity:1;stroke:none;stroke-width:1;stroke-miterlimit:4;stroke-dasharray:none;stroke-opacity:1"
       id="rect817"
       width="52.160713"
       height="52.160713"
       x="-63.499981"
       y="72.482147" />
    <rect
       style="fill:#999999;fill-opacity:1;stroke:none;stroke-width:1;stroke-miterlimit:4;stroke-dasharray:none;stroke-opacity:1"
       id="rect817-3"
       width="52.160713"
       height="52.160713"
       x="-3.0237908"
       y="72.482147" />
    <rect
       style="fill:#999999;fill-opacity:1;stroke:none;stroke-width:1;stroke-miterlimit:4;stroke-dasharray:none;stroke-opacity:1"
       id="rect817-6"
       width="52.160713"
       height="52.160713"
       x="57.452396"
       y="72.482147" />
    <rect
       style="fill:#999999;fill-opacity:1;stroke:none;stroke-width:1;stroke-miterlimit:4;stroke-dasharray:none;stroke-opacity:1"
       id="rect817-7"
       width="52.160713"
       height="52.160713"
       x="117.92859"
       y="72.482147" />
    <rect
       style="fill:#999999;fill-opacity:1;stroke:none;stroke-width:1;stroke-miterlimit:4;stroke-dasharray:none;stroke-opacity:1"
       id="rect817-5"
       width="52.160713"
       height="52.160713"
       x="178.40477"
       y="72.482147" />
    <rect
       style="fill:#999999;fill-opacity:1;stroke:none;stroke-width:1;stroke-miterlimit:4;stroke-dasharray:none;stroke-opacity:1"
       id="rect817-35"
       width="52.160713"
       height="52.160713"
       x="238.88098"
       y="72.482147" />
    <g
       aria-label="insert, edit, graph, cpu, color, value, toggle, idle"
       transform="scale(0.98711852,1.0130496)"
       style="font-style:normal;font-weight:normal;font-size:19.43575096px;line-height:1.25;font-family:sans-serif;letter-spacing:0px;word-spacing:0px;fill:#000000;fill-opacity:1;stroke:none;stroke-width:0.26458332"
       id="text1864">
      <path
         d="m -59.9059,92.58076 h 1.746181 v 10.62893 H -59.9059 Z m 0,-4.137689 h 1.746181 v 2.211196 H -59.9059 Z"
         style="stroke-width:0.26458332"
         id="path1932" />
      <path
         d="m -45.680221,96.79437 v 6.41532 h -1.74618 v -6.358379 q 0,-1.508928 -0.588387,-2.258647 -0.588387,-0.749719 -1.765161,-0.749719 -1.414027,0 -2.230177,0.901561 -0.81615,0.90156 -0.81615,2.457939 v 6.007245 h -1.75567 V 92.58076 h 1.75567 v 1.65128 q 0.626348,-0.958502 1.470968,-1.433007 0.85411,-0.474506 1.964453,-0.474506 1.831592,0 2.771113,1.138813 0.939521,1.129324 0.939521,3.33103 z"
         style="stroke-width:0.26458332"
         id="path1934" />
      <path
         d="m -35.402428,92.893934 v 1.651279 q -0.740229,-0.379604 -1.537398,-0.569406 -0.79717,-0.189803 -1.65128,-0.189803 -1.300145,0 -1.954963,0.398585 -0.645328,0.398585 -0.645328,1.195754 0,0.607367 0.465016,0.958502 0.465015,0.341644 1.869552,0.654817 l 0.597877,0.132862 q 1.860062,0.398585 2.638252,1.129323 0.787679,0.721249 0.787679,2.021393 0,1.48046 -1.176774,2.34406 -1.167284,0.8636 -3.217148,0.8636 -0.85411,0 -1.784142,-0.17082 -0.92054,-0.16133 -1.945473,-0.49349 v -1.80312 q 0.967992,0.50298 1.907513,0.75921 0.939521,0.24674 1.860062,0.24674 1.233715,0 1.898023,-0.41756 0.664308,-0.42706 0.664308,-1.19576 0,-0.711755 -0.483996,-1.09136 -0.474506,-0.379604 -2.097315,-0.730739 L -39.81533,98.44565 q -1.62281,-0.341644 -2.344058,-1.043913 -0.721249,-0.711758 -0.721249,-1.945473 0,-1.499438 1.062893,-2.315587 1.062893,-0.81615 3.017856,-0.81615 0.967991,0 1.822101,0.142352 0.854111,0.142351 1.575359,0.427055 z"
         style="stroke-width:0.26458332"
         id="path1936" />
      <path
         d="m -22.9514,97.458678 v 0.85411 h -8.028635 q 0.113881,1.803122 1.081873,2.752132 0.977482,0.93952 2.714172,0.93952 1.005952,0 1.945473,-0.24674 0.949012,-0.24674 1.879043,-0.74023 v 1.65128 q -0.939522,0.39858 -1.926493,0.60737 -0.986972,0.20878 -2.002414,0.20878 -2.54335,0 -4.033298,-1.48046 -1.480458,-1.48046 -1.480458,-4.004826 0,-2.609781 1.404537,-4.137689 1.414027,-1.537398 3.805535,-1.537398 2.144766,0 3.387971,1.385556 1.252694,1.376067 1.252694,3.748595 z m -1.74618,-0.512466 q -0.01898,-1.433007 -0.80666,-2.287117 -0.778189,-0.85411 -2.068844,-0.85411 -1.461478,0 -2.344058,0.825639 -0.873091,0.82564 -1.005952,2.325078 z"
         style="stroke-width:0.26458332"
         id="path1938" />
      <path
         d="m -13.926302,94.213059 q -0.294193,-0.170822 -0.645328,-0.246743 -0.341644,-0.08541 -0.759209,-0.08541 -1.480457,0 -2.277627,0.967992 -0.787679,0.958501 -0.787679,2.761623 v 5.59917 h -1.755671 V 92.58076 h 1.755671 v 1.65128 q 0.550426,-0.967992 1.433007,-1.433007 0.88258,-0.474506 2.144765,-0.474506 0.180313,0 0.398585,0.02847 0.218273,0.01898 0.483996,0.06643 z"
         style="stroke-width:0.26458332"
         id="path1940" />
      <path
         d="m -10.34853,89.562904 v 3.017856 h 3.5967531 v 1.357086 H -10.34853 v 5.769989 q 0,1.300145 0.3511345,1.670255 0.3606243,0.37012 1.4519873,0.37012 h 1.7936313 v 1.46148 h -1.7936313 q -2.0213938,0 -2.7900928,-0.74972 -0.7687,-0.75921 -0.7687,-2.752135 v -5.769989 h -1.281165 V 92.58076 h 1.281165 v -3.017856 z"
         style="stroke-width:0.26458332"
         id="path1942" />
      <path
         d="m -3.9996442,100.7992 h 2.0024138 v 1.6323 l -1.5563785,3.03683 h -1.2242246 l 0.7781893,-3.03683 z"
         style="stroke-width:0.26458332"
         id="path1944" />
      <path
         d="m 17.020955,97.458678 v 0.85411 H 8.9923199 q 0.1138814,1.803122 1.0818731,2.752132 0.977481,0.93952 2.714172,0.93952 1.005952,0 1.945473,-0.24674 0.949011,-0.24674 1.879042,-0.74023 v 1.65128 q -0.939521,0.39858 -1.926492,0.60737 -0.986972,0.20878 -2.002414,0.20878 -2.54335,0 -4.0332981,-1.48046 -1.4804576,-1.48046 -1.4804576,-4.004826 0,-2.609781 1.4045367,-4.137689 1.4140268,-1.537398 3.805535,-1.537398 2.144766,0 3.38797,1.385556 1.252695,1.376067 1.252695,3.748595 z m -1.74618,-0.512466 q -0.01898,-1.433007 -0.80666,-2.287117 -0.778189,-0.85411 -2.068845,-0.85411 -1.461477,0 -2.344057,0.825639 -0.8730908,0.82564 -1.0059524,2.325078 z"
         style="stroke-width:0.26458332"
         id="path1946" />
      <path
         d="m 26.881183,94.194079 v -5.751008 h 1.746181 v 14.766619 h -1.746181 v -1.59434 q -0.550427,0.94901 -1.395047,1.41402 -0.83513,0.45553 -2.011904,0.45553 -1.926493,0 -3.141227,-1.5374 -1.205244,-1.5374 -1.205244,-4.042787 0,-2.50539 1.205244,-4.042788 1.214734,-1.537398 3.141227,-1.537398 1.176774,0 2.011904,0.465015 0.84462,0.455526 1.395047,1.404537 z m -5.950301,3.710634 q 0,1.926493 0.787679,3.027347 0.79717,1.09136 2.182726,1.09136 1.385557,0 2.182726,-1.09136 0.79717,-1.100854 0.79717,-3.027347 0,-1.926493 -0.79717,-3.017856 -0.797169,-1.100853 -2.182726,-1.100853 -1.385556,0 -2.182726,1.100853 -0.787679,1.091363 -0.787679,3.017856 z"
         style="stroke-width:0.26458332"
         id="path1948" />
      <path
         d="m 32.224113,92.58076 h 1.74618 v 10.62893 h -1.74618 z m 0,-4.137689 h 1.74618 v 2.211196 h -1.74618 z"
         style="stroke-width:0.26458332"
         id="path1950" />
      <path
         d="m 39.341702,89.562904 v 3.017856 h 3.596752 v 1.357086 h -3.596752 v 5.769989 q 0,1.300145 0.351134,1.670255 0.360624,0.37012 1.451987,0.37012 h 1.793631 v 1.46148 h -1.793631 q -2.021394,0 -2.790093,-0.74972 -0.768699,-0.75921 -0.768699,-2.752135 V 93.937846 H 36.304866 V 92.58076 h 1.281165 v -3.017856 z"
         style="stroke-width:0.26458332"
         id="path1952" />
      <path
         d="m 45.690587,100.7992 h 2.002414 v 1.6323 l -1.556379,3.03683 h -1.224224 l 0.778189,-3.03683 z"
         style="stroke-width:0.26458332"
         id="path1954" />
      <path
         d="m 64.613872,97.771852 q 0,-1.898023 -0.78768,-2.941935 -0.778189,-1.043913 -2.192216,-1.043913 -1.404536,0 -2.192216,1.043913 -0.778189,1.043912 -0.778189,2.941935 0,1.888532 0.778189,2.932448 0.78768,1.04391 2.192216,1.04391 1.414027,0 2.192216,-1.04391 0.78768,-1.043916 0.78768,-2.932448 z m 1.74618,4.118708 q 0,2.71417 -1.205244,4.0333 -1.205244,1.32861 -3.691654,1.32861 -0.920541,0 -1.73669,-0.14235 -0.81615,-0.13286 -1.584849,-0.41756 v -1.69873 q 0.768699,0.41756 1.518418,0.61685 0.749719,0.1993 1.527908,0.1993 1.71771,0 2.571821,-0.90156 0.85411,-0.89207 0.85411,-2.70469 v -0.8636 q -0.540937,0.93953 -1.385557,1.40454 -0.84462,0.46502 -2.021394,0.46502 -1.954963,0 -3.150717,-1.48995 -1.195754,-1.48995 -1.195754,-3.947888 0,-2.46743 1.195754,-3.957377 1.195754,-1.489948 3.150717,-1.489948 1.176774,0 2.021394,0.465015 0.84462,0.465016 1.385557,1.404537 V 92.58076 h 1.74618 z"
         style="stroke-width:0.26458332"
         id="path1956" />
      <path
         d="m 76.115885,94.213059 q -0.294194,-0.170822 -0.645328,-0.246743 -0.341644,-0.08541 -0.759209,-0.08541 -1.480458,0 -2.277627,0.967992 -0.787679,0.958501 -0.787679,2.761623 v 5.59917 H 69.890371 V 92.58076 h 1.755671 v 1.65128 q 0.550426,-0.967992 1.433007,-1.433007 0.88258,-0.474506 2.144765,-0.474506 0.180312,0 0.398585,0.02847 0.218272,0.01898 0.483996,0.06643 z"
         style="stroke-width:0.26458332"
         id="path1958" />
      <path
         d="m 82.796928,97.866753 q -2.116295,0 -2.932445,0.483996 -0.81615,0.483995 -0.81615,1.651281 0,0.93003 0.607367,1.48046 0.616858,0.54093 1.67026,0.54093 1.451988,0 2.325078,-1.02493 0.88258,-1.034422 0.88258,-2.742643 v -0.389094 z m 3.482871,-0.721249 v 6.064186 h -1.746181 v -1.61332 q -0.597877,0.96799 -1.489947,1.433 -0.892071,0.45553 -2.182726,0.45553 -1.6323,0 -2.600291,-0.91105 -0.958502,-0.92054 -0.958502,-2.45794 0,-1.793632 1.195755,-2.704683 1.205244,-0.91105 3.587262,-0.91105 h 2.448449 v -0.170822 q 0,-1.205245 -0.797169,-1.860063 -0.787679,-0.664307 -2.220686,-0.664307 -0.911051,0 -1.774652,0.218272 -0.8636,0.218273 -1.660769,0.654818 v -1.613319 q 0.958501,-0.370115 1.860062,-0.550427 0.901561,-0.189802 1.755671,-0.189802 2.306097,0 3.444911,1.195754 1.138813,1.195754 1.138813,3.625223 z"
         style="stroke-width:0.26458332"
         id="path1960" />
      <path
         d="m 91.575287,101.61535 v 5.63712 H 89.819616 V 92.58076 h 1.755671 v 1.613319 q 0.550426,-0.949011 1.385556,-1.404537 0.84462,-0.465015 2.011904,-0.465015 1.935983,0 3.141227,1.537398 1.214735,1.537398 1.214735,4.042788 0,2.505387 -1.214735,4.042787 -1.205244,1.5374 -3.141227,1.5374 -1.167284,0 -2.011904,-0.45553 -0.83513,-0.46501 -1.385556,-1.41402 z m 5.94081,-3.710637 q 0,-1.926493 -0.797169,-3.017856 -0.78768,-1.100853 -2.173236,-1.100853 -1.385557,0 -2.182726,1.100853 -0.787679,1.091363 -0.787679,3.017856 0,1.926493 0.787679,3.027347 0.797169,1.09136 2.182726,1.09136 1.385556,0 2.173236,-1.09136 0.797169,-1.100854 0.797169,-3.027347 z"
         style="stroke-width:0.26458332"
         id="path1962" />
      <path
         d="m 111.05848,96.79437 v 6.41532 h -1.74618 v -6.358379 q 0,-1.508928 -0.58838,-2.258647 -0.58839,-0.749719 -1.76516,-0.749719 -1.41403,0 -2.23018,0.901561 -0.81615,0.90156 -0.81615,2.457939 v 6.007245 h -1.75567 V 88.443071 h 1.75567 v 5.788969 q 0.62635,-0.958502 1.47097,-1.433007 0.85411,-0.474506 1.96445,-0.474506 1.83159,0 2.77111,1.138813 0.93952,1.129324 0.93952,3.33103 z"
         style="stroke-width:0.26458332"
         id="path1964" />
      <path
         d="m 115.00637,100.7992 h 2.00241 v 1.6323 l -1.55638,3.03683 h -1.22422 l 0.77819,-3.03683 z"
         style="stroke-width:0.26458332"
         id="path1966" />
      <path
         d="m 134.58447,92.988835 v 1.632299 q -0.74023,-0.408075 -1.48995,-0.607367 -0.74023,-0.208782 -1.49944,-0.208782 -1.69873,0 -2.63825,1.081872 -0.93952,1.072383 -0.93952,3.017856 0,1.945473 0.93952,3.027347 0.93952,1.07238 2.63825,1.07238 0.75921,0 1.49944,-0.19929 0.74972,-0.20878 1.48995,-0.61686 v 1.61332 q -0.73074,0.34165 -1.51842,0.51247 -0.77819,0.17082 -1.66077,0.17082 -2.401,0 -3.81502,-1.50893 -1.41403,-1.50893 -1.41403,-4.071257 0,-2.600291 1.42352,-4.090238 1.433,-1.489948 3.91941,-1.489948 0.80666,0 1.57536,0.170822 0.7687,0.161332 1.48995,0.493486 z"
         style="stroke-width:0.26458332"
         id="path1968" />
      <path
         d="m 139.32953,101.61535 v 5.63712 h -1.75567 V 92.58076 h 1.75567 v 1.613319 q 0.55043,-0.949011 1.38556,-1.404537 0.84462,-0.465015 2.0119,-0.465015 1.93598,0 3.14123,1.537398 1.21473,1.537398 1.21473,4.042788 0,2.505387 -1.21473,4.042787 -1.20525,1.5374 -3.14123,1.5374 -1.16728,0 -2.0119,-0.45553 -0.83513,-0.46501 -1.38556,-1.41402 z m 5.94081,-3.710637 q 0,-1.926493 -0.79717,-3.017856 -0.78768,-1.100853 -2.17324,-1.100853 -1.38555,0 -2.18272,1.100853 -0.78768,1.091363 -0.78768,3.017856 0,1.926493 0.78768,3.027347 0.79717,1.09136 2.18272,1.09136 1.38556,0 2.17324,-1.09136 0.79717,-1.100854 0.79717,-3.027347 z"
         style="stroke-width:0.26458332"
         id="path1970" />
      <path
         d="M 149.79712,99.015056 V 92.58076 h 1.74618 v 6.367866 q 0,1.508924 0.58839,2.268134 0.58838,0.74972 1.76516,0.74972 1.41402,0 2.23017,-0.90156 0.82564,-0.90156 0.82564,-2.457938 V 92.58076 h 1.74619 v 10.62893 h -1.74619 v -1.6323 q -0.63583,0.96799 -1.48045,1.44249 -0.83513,0.46502 -1.94548,0.46502 -1.83159,0 -2.7806,-1.13881 -0.94901,-1.13882 -0.94901,-3.331034 z m 4.39392,-6.690529 z"
         style="stroke-width:0.26458332"
         id="path1972" />
      <path
         d="m 162.76062,100.7992 h 2.00242 v 1.6323 l -1.55638,3.03683 h -1.22422 l 0.77818,-3.03683 z"
         style="stroke-width:0.26458332"
         id="path1974" />
      <path
         d="m 182.33871,92.988835 v 1.632299 q -0.74023,-0.408075 -1.48995,-0.607367 -0.74022,-0.208782 -1.49943,-0.208782 -1.69873,0 -2.63825,1.081872 -0.93953,1.072383 -0.93953,3.017856 0,1.945473 0.93953,3.027347 0.93952,1.07238 2.63825,1.07238 0.75921,0 1.49943,-0.19929 0.74972,-0.20878 1.48995,-0.61686 v 1.61332 q -0.73074,0.34165 -1.51842,0.51247 -0.77819,0.17082 -1.66077,0.17082 -2.40099,0 -3.81502,-1.50893 -1.41403,-1.50893 -1.41403,-4.071257 0,-2.600291 1.42352,-4.090238 1.43301,-1.489948 3.91942,-1.489948 0.80666,0 1.57535,0.170822 0.7687,0.161332 1.48995,0.493486 z"
         style="stroke-width:0.26458332"
         id="path1976" />
      <path
         d="m 189.51324,93.804985 q -1.40454,0 -2.22069,1.100853 -0.81615,1.091363 -0.81615,2.998875 0,1.907513 0.80666,3.008367 0.81615,1.09136 2.23018,1.09136 1.39505,0 2.2112,-1.10085 0.81615,-1.100854 0.81615,-2.998877 0,-1.888532 -0.81615,-2.989385 -0.81615,-1.110343 -2.2112,-1.110343 z m 0,-1.480458 q 2.27763,0 3.57777,1.480458 1.30015,1.480457 1.30015,4.099728 0,2.609777 -1.30015,4.099727 -1.30014,1.48046 -3.57777,1.48046 -2.28712,0 -3.58726,-1.48046 -1.29066,-1.48995 -1.29066,-4.099727 0,-2.619271 1.29066,-4.099728 1.30014,-1.480458 3.58726,-1.480458 z"
         style="stroke-width:0.26458332"
         id="path1978" />
      <path
         d="m 197.27617,88.443071 h 1.74618 v 14.766619 h -1.74618 z"
         style="stroke-width:0.26458332"
         id="path1980" />
      <path
         d="m 206.78526,93.804985 q -1.40454,0 -2.22069,1.100853 -0.81615,1.091363 -0.81615,2.998875 0,1.907513 0.80666,3.008367 0.81615,1.09136 2.23018,1.09136 1.39504,0 2.21119,-1.10085 0.81615,-1.100854 0.81615,-2.998877 0,-1.888532 -0.81615,-2.989385 -0.81615,-1.110343 -2.21119,-1.110343 z m 0,-1.480458 q 2.27762,0 3.57777,1.480458 1.30015,1.480457 1.30015,4.099728 0,2.609777 -1.30015,4.099727 -1.30015,1.48046 -3.57777,1.48046 -2.28712,0 -3.58726,-1.48046 -1.29066,-1.48995 -1.29066,-4.099727 0,-2.619271 1.29066,-4.099728 1.30014,-1.480458 3.58726,-1.480458 z"
         style="stroke-width:0.26458332"
         id="path1982" />
      <path
         d="m 220.70725,94.213059 q -0.29419,-0.170822 -0.64532,-0.246743 -0.34165,-0.08541 -0.75921,-0.08541 -1.48046,0 -2.27763,0.967992 -0.78768,0.958501 -0.78768,2.761623 v 5.59917 h -1.75567 V 92.58076 h 1.75567 v 1.65128 q 0.55043,-0.967992 1.43301,-1.433007 0.88258,-0.474506 2.14476,-0.474506 0.18032,0 0.39859,0.02847 0.21827,0.01898 0.48399,0.06643 z"
         style="stroke-width:0.26458332"
         id="path1984" />
      <path
         d="m 223.00385,100.7992 h 2.00241 v 1.6323 l -1.55637,3.03683 h -1.22423 l 0.77819,-3.03683 z"
         style="stroke-width:0.26458332"
         id="path1986" />
      <path
         d="m 233.68024,92.58076 h 1.85057 l 3.32154,8.92071 3.32154,-8.92071 h 1.85057 l -3.98584,10.62893 h -2.37253 z"
         style="stroke-width:0.26458332"
         id="path1988" />
      <path
         d="m 251.26542,97.866753 q -2.1163,0 -2.93245,0.483996 -0.81615,0.483995 -0.81615,1.651281 0,0.93003 0.60737,1.48046 0.61686,0.54093 1.67026,0.54093 1.45199,0 2.32508,-1.02493 0.88258,-1.034422 0.88258,-2.742643 v -0.389094 z m 3.48287,-0.721249 v 6.064186 h -1.74618 v -1.61332 q -0.59788,0.96799 -1.48995,1.433 -0.89207,0.45553 -2.18272,0.45553 -1.6323,0 -2.6003,-0.91105 -0.9585,-0.92054 -0.9585,-2.45794 0,-1.793632 1.19576,-2.704683 1.20524,-0.91105 3.58726,-0.91105 h 2.44845 v -0.170822 q 0,-1.205245 -0.79717,-1.860063 -0.78768,-0.664307 -2.22069,-0.664307 -0.91105,0 -1.77465,0.218272 -0.8636,0.218273 -1.66077,0.654818 v -1.613319 q 0.9585,-0.370115 1.86006,-0.550427 0.90157,-0.189802 1.75568,-0.189802 2.30609,0 3.44491,1.195754 1.13881,1.195754 1.13881,3.625223 z"
         style="stroke-width:0.26458332"
         id="path1990" />
      <path
         d="m 258.35454,88.443071 h 1.74618 v 14.766619 h -1.74618 z"
         style="stroke-width:0.26458332"
         id="path1992" />
      <path
         d="M 263.56461,99.015056 V 92.58076 h 1.74618 v 6.367866 q 0,1.508924 0.58838,2.268134 0.58839,0.74972 1.76516,0.74972 1.41403,0 2.23018,-0.90156 0.82564,-0.90156 0.82564,-2.457938 V 92.58076 h 1.74618 v 10.62893 h -1.74618 v -1.6323 q -0.63584,0.96799 -1.48046,1.44249 -0.83513,0.46502 -1.94547,0.46502 -1.83159,0 -2.7806,-1.13881 -0.94901,-1.13882 -0.94901,-3.331034 z m 4.39392,-6.690529 z"
         style="stroke-width:0.26458332"
         id="path1994" />
      <path
         d="m 285.17357,97.458678 v 0.85411 h -8.02863 q 0.11388,1.803122 1.08187,2.752132 0.97748,0.93952 2.71417,0.93952 1.00596,0 1.94548,-0.24674 0.94901,-0.24674 1.87904,-0.74023 v 1.65128 q -0.93952,0.39858 -1.92649,0.60737 -0.98698,0.20878 -2.00242,0.20878 -2.54335,0 -4.0333,-1.48046 -1.48045,-1.48046 -1.48045,-4.004826 0,-2.609781 1.40453,-4.137689 1.41403,-1.537398 3.80554,-1.537398 2.14476,0 3.38797,1.385556 1.25269,1.376067 1.25269,3.748595 z m -1.74618,-0.512466 q -0.019,-1.433007 -0.80666,-2.287117 -0.77819,-0.85411 -2.06884,-0.85411 -1.46148,0 -2.34406,0.825639 -0.87309,0.82564 -1.00595,2.325078 z"
         style="stroke-width:0.26458332"
         id="path1996" />
      <path
         d="m 288.48563,100.7992 h 2.00241 v 1.6323 l -1.55637,3.03683 h -1.22423 l 0.77819,-3.03683 z"
         style="stroke-width:0.26458332"
         id="path1998" />
      <path
         d="m 302.14192,89.562904 v 3.017856 h 3.59675 v 1.357086 h -3.59675 v 5.769989 q 0,1.300145 0.35113,1.670255 0.36063,0.37012 1.45199,0.37012 h 1.79363 v 1.46148 h -1.79363 q -2.02139,0 -2.79009,-0.74972 -0.7687,-0.75921 -0.7687,-2.752135 v -5.769989 h -1.28117 V 92.58076 h 1.28117 v -3.017856 z"
         style="stroke-width:0.26458332"
         id="path2000" />
      <path
         d="m 312.16346,93.804985 q -1.40453,0 -2.22068,1.100853 -0.81615,1.091363 -0.81615,2.998875 0,1.907513 0.80666,3.008367 0.81615,1.09136 2.23017,1.09136 1.39505,0 2.2112,-1.10085 0.81615,-1.100854 0.81615,-2.998877 0,-1.888532 -0.81615,-2.989385 -0.81615,-1.110343 -2.2112,-1.110343 z m 0,-1.480458 q 2.27763,0 3.57777,1.480458 1.30015,1.480457 1.30015,4.099728 0,2.609777 -1.30015,4.099727 -1.30014,1.48046 -3.57777,1.48046 -2.28712,0 -3.58726,-1.48046 -1.29066,-1.48995 -1.29066,-4.099727 0,-2.619271 1.29066,-4.099728 1.30014,-1.480458 3.58726,-1.480458 z"
         style="stroke-width:0.26458332"
         id="path2002" />
      <path
         d="m 326.92059,97.771852 q 0,-1.898023 -0.78768,-2.941935 -0.77819,-1.043913 -2.19222,-1.043913 -1.40453,0 -2.19221,1.043913 -0.77819,1.043912 -0.77819,2.941935 0,1.888532 0.77819,2.932448 0.78768,1.04391 2.19221,1.04391 1.41403,0 2.19222,-1.04391 0.78768,-1.043916 0.78768,-2.932448 z m 1.74618,4.118708 q 0,2.71417 -1.20524,4.0333 -1.20525,1.32861 -3.69166,1.32861 -0.92054,0 -1.73669,-0.14235 -0.81615,-0.13286 -1.58485,-0.41756 v -1.69873 q 0.7687,0.41756 1.51842,0.61685 0.74972,0.1993 1.52791,0.1993 1.71771,0 2.57182,-0.90156 0.85411,-0.89207 0.85411,-2.70469 v -0.8636 q -0.54094,0.93953 -1.38556,1.40454 -0.84462,0.46502 -2.02139,0.46502 -1.95497,0 -3.15072,-1.48995 -1.19575,-1.48995 -1.19575,-3.947888 0,-2.46743 1.19575,-3.957377 1.19575,-1.489948 3.15072,-1.489948 1.17677,0 2.02139,0.465015 0.84462,0.465016 1.38556,1.404537 V 92.58076 h 1.74618 z"
         style="stroke-width:0.26458332"
         id="path2004" />
      <path
         d="m 339.25775,97.771852 q 0,-1.898023 -0.78768,-2.941935 -0.77819,-1.043913 -2.19222,-1.043913 -1.40454,0 -2.19221,1.043913 -0.77819,1.043912 -0.77819,2.941935 0,1.888532 0.77819,2.932448 0.78767,1.04391 2.19221,1.04391 1.41403,0 2.19222,-1.04391 0.78768,-1.043916 0.78768,-2.932448 z m 1.74618,4.118708 q 0,2.71417 -1.20525,4.0333 -1.20524,1.32861 -3.69165,1.32861 -0.92054,0 -1.73669,-0.14235 -0.81615,-0.13286 -1.58485,-0.41756 v -1.69873 q 0.7687,0.41756 1.51842,0.61685 0.74972,0.1993 1.52791,0.1993 1.71771,0 2.57182,-0.90156 0.85411,-0.89207 0.85411,-2.70469 v -0.8636 q -0.54094,0.93953 -1.38556,1.40454 -0.84462,0.46502 -2.02139,0.46502 -1.95497,0 -3.15072,-1.48995 -1.19576,-1.48995 -1.19576,-3.947888 0,-2.46743 1.19576,-3.957377 1.19575,-1.489948 3.15072,-1.489948 1.17677,0 2.02139,0.465015 0.84462,0.465016 1.38556,1.404537 V 92.58076 h 1.74618 z"
         style="stroke-width:0.26458332"
         id="path2006" />
      <path
         d="m 344.60066,88.443071 h 1.74618 v 14.766619 h -1.74618 z"
         style="stroke-width:0.26458332"
         id="path2008" />
      <path
         d="m 359.08257,97.458678 v 0.85411 h -8.02864 q 0.11389,1.803122 1.08188,2.752132 0.97748,0.93952 2.71417,0.93952 1.00595,0 1.94547,-0.24674 0.94901,-0.24674 1.87905,-0.74023 v 1.65128 q -0.93953,0.39858 -1.9265,0.60737 -0.98697,0.20878 -2.00241,0.20878 -2.54335,0 -4.0333,-1.48046 -1.48046,-1.48046 -1.48046,-4.004826 0,-2.609781 1.40454,-4.137689 1.41403,-1.537398 3.80554,-1.537398 2.14476,0 3.38797,1.385556 1.25269,1.376067 1.25269,3.748595 z m -1.74618,-0.512466 q -0.019,-1.433007 -0.80666,-2.287117 -0.77819,-0.85411 -2.06884,-0.85411 -1.46148,0 -2.34406,0.825639 -0.87309,0.82564 -1.00595,2.325078 z"
         style="stroke-width:0.26458332"
         id="path2010" />
      <path
         d="m 362.39463,100.7992 h 2.00241 v 1.6323 l -1.55638,3.03683 h -1.22422 l 0.77819,-3.03683 z"
         style="stroke-width:0.26458332"
         id="path2012" />
      <path
         d="m 374.32371,92.58076 h 1.74619 v 10.62893 h -1.74619 z m 0,-4.137689 h 1.74619 v 2.211196 h -1.74619 z"
         style="stroke-width:0.26458332"
         id="path2014" />
      <path
         d="m 386.70831,94.194079 v -5.751008 h 1.74618 v 14.766619 h -1.74618 v -1.59434 q -0.55043,0.94901 -1.39505,1.41402 -0.83513,0.45553 -2.0119,0.45553 -1.92649,0 -3.14123,-1.5374 -1.20524,-1.5374 -1.20524,-4.042787 0,-2.50539 1.20524,-4.042788 1.21474,-1.537398 3.14123,-1.537398 1.17677,0 2.0119,0.465015 0.84462,0.455526 1.39505,1.404537 z m -5.9503,3.710634 q 0,1.926493 0.78768,3.027347 0.79717,1.09136 2.18272,1.09136 1.38556,0 2.18273,-1.09136 0.79717,-1.100854 0.79717,-3.027347 0,-1.926493 -0.79717,-3.017856 -0.79717,-1.100853 -2.18273,-1.100853 -1.38555,0 -2.18272,1.100853 -0.78768,1.091363 -0.78768,3.017856 z"
         style="stroke-width:0.26458332"
         id="path2016" />
      <path
         d="m 392.05122,88.443071 h 1.74618 v 14.766619 h -1.74618 z"
         style="stroke-width:0.26458332"
         id="path2018" />
      <path
         d="m 406.53313,97.458678 v 0.85411 h -8.02863 q 0.11388,1.803122 1.08187,2.752132 0.97748,0.93952 2.71417,0.93952 1.00595,0 1.94547,-0.24674 0.94902,-0.24674 1.87905,-0.74023 v 1.65128 q -0.93952,0.39858 -1.9265,0.60737 -0.98697,0.20878 -2.00241,0.20878 -2.54335,0 -4.0333,-1.48046 -1.48046,-1.48046 -1.48046,-4.004826 0,-2.609781 1.40454,-4.137689 1.41403,-1.537398 3.80554,-1.537398 2.14476,0 3.38797,1.385556 1.25269,1.376067 1.25269,3.748595 z m -1.74618,-0.512466 q -0.019,-1.433007 -0.80666,-2.287117 -0.77819,-0.85411 -2.06884,-0.85411 -1.46148,0 -2.34406,0.825639 -0.87309,0.82564 -1.00595,2.325078 z"
         style="stroke-width:0.26458332"
         id="path2020" />
    </g>
  </g>
  <g
     inkscape:groupmode="layer"
     id="layer2"
     inkscape:label="regions"
     style="display:none;opacity:0.5270004"
     transform="translate(-16.630962,-12.095241)">
    <rect
       style="fill:#ff0000;fill-opacity:1;stroke:none;stroke-width:1;stroke-miterlimit:4;stroke-dasharray:none;stroke-opacity:1"
       id="insert"
       width="52.160713"
       height="52.160713"
       x="16.630962"
       y="12.095242"
       inkscape:label="#rect817-69" />
    <rect
       style="fill:#ff0000;fill-opacity:1;stroke:none;stroke-width:1;stroke-miterlimit:4;stroke-dasharray:none;stroke-opacity:1"
       id="edit"
       width="52.160713"
       height="52.160713"
       x="77.107147"
       y="12.095242"
       inkscape:label="#rect817-3-3" />
    <rect
       style="fill:#ff0000;fill-opacity:1;stroke:none;stroke-width:1;stroke-miterlimit:4;stroke-dasharray:none;stroke-opacity:1"
       id="graph"
       width="52.160713"
       height="52.160713"
       x="137.58334"
       y="12.095242"
       inkscape:label="#rect817-6-7" />
    <rect
       style="fill:#ff0000;fill-opacity:1;stroke:none;stroke-width:1;stroke-miterlimit:4;stroke-dasharray:none;stroke-opacity:1"
       id="cpu"
       width="52.160713"
       height="52.160713"
       x="198.05954"
       y="12.095242"
       inkscape:label="#rect817-7-4" />
    <rect
       style="fill:#ff0000;fill-opacity:1;stroke:none;stroke-width:1;stroke-miterlimit:4;stroke-dasharray:none;stroke-opacity:1"
       id="color"
       width="52.160713"
       height="52.160713"
       x="258.53571"
       y="12.095242"
       inkscape:label="#rect817-5-5" />
    <rect
       style="fill:#ff0000;fill-opacity:1;stroke:none;stroke-width:1;stroke-miterlimit:4;stroke-dasharray:none;stroke-opacity:1"
       id="set-value"
       width="52.160713"
       height="52.160713"
       x="319.0119"
       y="12.095242"
       inkscape:label="#rect817-35-2" />
    <rect
       style="display:inline;opacity:1;fill:#ff0000;fill-opacity:1;stroke:none;stroke-width:1;stroke-miterlimit:4;stroke-dasharray:none;stroke-opacity:1"
       id="toggle"
       width="52.160713"
       height="52.160713"
       x="379.4881"
       y="12.095242"
       inkscape:label="#rect817-5-5" />
    <rect
       style="display:inline;opacity:1;fill:#ff0000;fill-opacity:1;stroke:none;stroke-width:1;stroke-miterlimit:4;stroke-dasharray:none;stroke-opacity:1"
       id="idle"
       width="52.160713"
       height="52.160713"
       x="439.96429"
       y="12.095242"
       inkscape:label="#rect817-35-2" />
  </g>
</svg>
