# Blender v2.79 (sub 0) OBJ File: ''
# www.blender.org
mtllib speaker.mtl
o Cylinder_Cylinder.000
v 0.500000 -0.500000 0.000000
v -0.191341 -0.500000 -0.461940
v -0.415735 -0.500000 0.277785
v 0.353553 -0.500000 0.353553
v 0.097545 -0.500000 0.490393
v -0.353553 -0.500000 -0.353554
v -0.191342 -0.500000 0.461940
v 0.000000 -0.500000 -0.500000
v -0.097544 -0.500000 -0.490393
v -0.277785 -0.500000 -0.415735
v -0.415734 -0.500000 -0.277786
v -0.461940 -0.500000 -0.191342
v -0.490393 -0.500000 -0.097546
v -0.500000 -0.500000 0.000000
v -0.490393 -0.500000 0.097545
v -0.461940 -0.500000 0.191341
v -0.353554 -0.500000 0.353553
v -0.277785 -0.500000 0.415735
v -0.097545 -0.500000 0.490393
v 0.000000 -0.500000 0.500000
v 0.191342 -0.500000 0.461940
v 0.277785 -0.500000 0.415735
v 0.415735 -0.500000 0.277785
v 0.461940 -0.500000 0.191342
v 0.490393 -0.500000 0.097545
v 0.490393 -0.500000 -0.097545
v 0.461940 -0.500000 -0.191342
v 0.415735 -0.500000 -0.277785
v 0.353553 -0.500000 -0.353553
v 0.277785 -0.500000 -0.415735
v 0.191342 -0.500000 -0.461940
v 0.097545 -0.500000 -0.490393
v 0.500000 -0.500000 0.000000
v 0.097545 0.500000 -0.490393
v -0.191341 -0.500000 -0.461940
v 0.191342 0.500000 -0.461940
v -0.415735 -0.500000 0.277785
v 0.353553 -0.500000 0.353553
v 0.277785 0.500000 -0.415735
v 0.097545 -0.500000 0.490393
v 0.353553 0.500000 -0.353553
v -0.353553 -0.500000 -0.353554
v 0.415735 0.500000 -0.277785
v -0.191342 -0.500000 0.461940
v 0.461940 0.500000 -0.191342
v 0.000000 -0.500000 -0.500000
v 0.490393 0.500000 -0.097545
v -0.097544 -0.500000 -0.490393
v 0.490393 0.500000 0.097545
v -0.277785 -0.500000 -0.415735
v -0.415734 -0.500000 -0.277786
v 0.461940 0.500000 0.191342
v -0.461940 -0.500000 -0.191342
v 0.415735 0.500000 0.277785
v -0.490393 -0.500000 -0.097546
v 0.277785 0.500000 0.415735
v -0.500000 -0.500000 0.000000
v -0.490393 -0.500000 0.097545
v 0.191342 0.500000 0.461940
v -0.461940 -0.500000 0.191341
v 0.000000 0.500000 0.500000
v -0.353554 -0.500000 0.353553
v -0.277785 -0.500000 0.415735
v -0.097545 0.500000 0.490393
v -0.097545 -0.500000 0.490393
v -0.277785 0.500000 0.415735
v 0.000000 -0.500000 0.500000
v -0.353554 0.500000 0.353553
v 0.191342 -0.500000 0.461940
v 0.277785 -0.500000 0.415735
v -0.461940 0.500000 0.191341
v 0.415735 -0.500000 0.277785
v -0.490393 0.500000 0.097545
v 0.461940 -0.500000 0.191342
v 0.490393 -0.500000 0.097545
v -0.500000 0.500000 0.000000
v 0.490393 -0.500000 -0.097545
v -0.490393 0.500000 -0.097546
v 0.461940 -0.500000 -0.191342
v -0.461940 0.500000 -0.191342
v 0.415735 -0.500000 -0.277785
v -0.415734 0.500000 -0.277786
v 0.353553 -0.500000 -0.353553
v -0.277785 0.500000 -0.415735
v 0.277785 -0.500000 -0.415735
v 0.191342 -0.500000 -0.461940
v -0.097544 0.500000 -0.490393
v 0.097545 -0.500000 -0.490393
v 0.000000 0.500000 -0.500000
v -0.191342 0.500000 0.461940
v -0.353553 0.500000 -0.353554
v 0.097545 0.500000 0.490393
v 0.353553 0.500000 0.353553
v -0.415735 0.500000 0.277785
v -0.191341 0.500000 -0.461940
v 0.500000 0.500000 0.000000
v 0.097545 0.500000 -0.490393
v 0.191342 0.500000 -0.461940
v 0.277785 0.500000 -0.415735
v 0.353553 0.500000 -0.353553
v 0.415735 0.500000 -0.277785
v 0.461940 0.500000 -0.191342
v 0.490393 0.500000 -0.097545
v 0.490393 0.500000 0.097545
v 0.461940 0.500000 0.191342
v 0.415735 0.500000 0.277785
v 0.277785 0.500000 0.415735
v 0.191342 0.500000 0.461940
v 0.000000 0.500000 0.500000
v -0.097545 0.500000 0.490393
v -0.277785 0.500000 0.415735
v -0.353554 0.500000 0.353553
v -0.461940 0.500000 0.191341
v -0.490393 0.500000 0.097545
v -0.500000 0.500000 0.000000
v -0.490393 0.500000 -0.097546
v -0.461940 0.500000 -0.191342
v -0.415734 0.500000 -0.277786
v -0.277785 0.500000 -0.415735
v 0.299275 0.500000 -0.199969
v -0.097544 0.500000 -0.490393
v 0.000000 0.500000 -0.500000
v -0.353018 0.500000 -0.070220
v -0.332536 0.270767 -0.137741
v -0.332536 0.500000 -0.137741
v 0.137741 0.500000 0.332536
v -0.332536 0.500000 0.137741
v -0.353019 0.500000 0.070219
v 0.000000 0.500000 -0.359935
v 0.070220 0.500000 -0.353019
v 0.332536 0.500000 0.137741
v -0.191342 0.500000 0.461940
v -0.199969 0.500000 0.299275
v -0.353553 0.500000 -0.353554
v -0.299274 0.500000 -0.199969
v -0.254512 0.500000 -0.254513
v 0.332536 0.500000 -0.137741
v 0.070220 0.500000 0.353018
v 0.097545 0.500000 0.490393
v -0.359935 0.500000 0.000000
v 0.137741 0.500000 -0.332536
v 0.299275 0.500000 0.199969
v -0.254512 0.500000 0.254512
v -0.199969 0.500000 -0.299275
v 0.353019 0.500000 -0.070220
v 0.000000 0.500000 0.359935
v 0.199969 0.500000 -0.299275
v 0.254512 0.500000 0.254512
v 0.353553 0.500000 0.353553
v -0.415735 0.500000 0.277785
v -0.299275 0.500000 0.199969
v -0.191341 0.500000 -0.461940
v -0.137740 0.500000 -0.332536
v 0.359935 0.500000 0.000000
v 0.500000 0.500000 0.000000
v -0.070220 0.500000 0.353018
v 0.254512 0.500000 -0.254512
v 0.199969 0.500000 0.299275
v -0.070219 0.500000 -0.353019
v 0.353019 0.500000 0.070220
v -0.137741 0.500000 0.332536
v 0.199969 0.270767 0.299275
v -0.299274 0.270767 -0.199969
v 0.137741 0.270767 0.332536
v 0.070220 0.270767 -0.353019
v -0.254512 0.270767 -0.254513
v 0.070220 0.270767 0.353018
v 0.137741 0.270767 -0.332536
v -0.199969 0.270767 -0.299275
v 0.000000 0.270767 0.359935
v 0.199969 0.270767 -0.299275
v -0.137740 0.270767 -0.332536
v -0.070220 0.270767 0.353018
v 0.254512 0.270767 -0.254512
v -0.070219 0.270767 -0.353019
v -0.137741 0.270767 0.332536
v 0.299275 0.270767 -0.199969
v 0.000000 0.270767 -0.359935
v -0.199969 0.270767 0.299275
v 0.332536 0.270767 -0.137741
v -0.254512 0.270767 0.254512
v 0.353019 0.270767 -0.070220
v -0.299275 0.270767 0.199969
v 0.359935 0.270767 0.000000
v -0.332536 0.270767 0.137741
v 0.353019 0.270767 0.070220
v -0.353019 0.270767 0.070219
v 0.332536 0.270767 0.137741
v -0.359935 0.270767 0.000000
v 0.299275 0.270767 0.199969
v -0.353018 0.270767 -0.070220
v 0.254512 0.270767 0.254512
vn 0.0000 1.0000 -0.0000
vn 0.0000 -1.0000 0.0000
vn 0.9569 0.0000 0.2903
vn -0.6344 0.0000 -0.7730
vn 0.8819 0.0000 0.4714
vn -0.4714 0.0000 -0.8819
vn -0.0980 -0.0000 0.9952
vn 0.7730 -0.0000 0.6344
vn -0.2903 0.0000 -0.9569
vn -0.2903 -0.0000 0.9569
vn 0.6344 -0.0000 0.7730
vn -0.0980 0.0000 -0.9952
vn -0.4714 -0.0000 0.8819
vn 0.4714 -0.0000 0.8819
vn 0.0980 0.0000 -0.9952
vn -0.6344 -0.0000 0.7730
vn 0.2903 -0.0000 0.9569
vn 0.2903 0.0000 -0.9569
vn -0.7730 0.0000 0.6344
vn 0.0980 -0.0000 0.9952
vn 0.4714 0.0000 -0.8819
vn -0.8819 0.0000 0.4714
vn 0.6344 0.0000 -0.7730
vn -0.9569 -0.0000 0.2903
vn 0.7730 0.0000 -0.6344
vn -0.9952 -0.0000 0.0980
vn 0.8819 0.0000 -0.4714
vn -0.9952 -0.0000 -0.0980
vn 0.9569 0.0000 -0.2903
vn -0.9569 0.0000 -0.2903
vn 0.9952 -0.0000 -0.0980
vn -0.8819 0.0000 -0.4714
vn 0.9952 -0.0000 0.0980
vn -0.7730 0.0000 -0.6344
vn -0.9808 0.0000 -0.1951
vn -1.0000 0.0000 0.0000
vn -0.3827 0.0000 -0.9239
vn -0.5556 0.0000 -0.8315
vn -0.9239 0.0000 0.3827
vn -0.8315 0.0000 0.5556
vn 1.0000 -0.0000 -0.0000
vn 0.9808 0.0000 -0.1951
vn 0.7071 0.0000 0.7071
vn 0.8315 0.0000 0.5556
vn 0.0000 -0.0000 1.0000
vn 0.1951 -0.0000 0.9808
vn -0.7071 0.0000 -0.7071
vn -0.8315 0.0000 -0.5556
vn 0.1951 0.0000 -0.9808
vn -0.0000 0.0000 -1.0000
vn -0.9808 0.0000 0.1951
vn 0.9239 -0.0000 -0.3827
vn 0.8315 0.0000 -0.5556
vn 0.3827 0.0000 0.9239
vn 0.5556 0.0000 0.8315
vn -0.7071 0.0000 0.7071
vn -0.5556 0.0000 0.8315
vn 0.7071 0.0000 -0.7071
vn 0.5556 0.0000 -0.8315
vn 0.3827 0.0000 -0.9239
vn -0.9239 0.0000 -0.3827
vn 0.9239 -0.0000 0.3827
vn -0.3827 0.0000 0.9239
vn -0.1951 -0.0000 0.9808
vn 0.9808 0.0000 0.1951
vn -0.1951 0.0000 -0.9808
usemtl Material.001
s off
f 176//1 188//1 168//1
f 168//1 165//1 172//1
f 178//1 175//1 172//1
f 172//1 169//1 166//1
f 166//1 163//1 124//1
f 124//1 191//1 189//1
f 189//1 187//1 185//1
f 185//1 183//1 181//1
f 181//1 179//1 176//1
f 176//1 173//1 170//1
f 170//1 167//1 164//1
f 164//1 162//1 192//1
f 192//1 190//1 164//1
f 188//1 186//1 184//1
f 184//1 182//1 188//1
f 180//1 177//1 174//1
f 174//1 171//1 180//1
f 165//1 178//1 172//1
f 172//1 166//1 168//1
f 124//1 189//1 176//1
f 185//1 181//1 176//1
f 176//1 170//1 164//1
f 164//1 190//1 188//1
f 188//1 182//1 180//1
f 180//1 171//1 168//1
f 168//1 166//1 124//1
f 189//1 185//1 176//1
f 176//1 164//1 188//1
f 188//1 180//1 168//1
f 168//1 124//1 176//1
usemtl Material
f 30//2 23//2 18//2
f 100//1 120//1 101//1
f 123//3 124//3 125//3
f 107//1 126//1 108//1
f 114//1 127//1 128//1
f 97//1 129//1 130//1
f 121//1 129//1 122//1
f 104//1 131//1 105//1
f 132//1 133//1 111//1
f 134//1 135//1 136//1
f 102//1 120//1 137//1
f 108//1 138//1 139//1
f 114//1 140//1 115//1
f 97//1 141//1 98//1
f 105//1 142//1 106//1
f 112//1 133//1 143//1
f 134//1 144//1 119//1
f 102//1 145//1 103//1
f 139//1 146//1 109//1
f 115//1 123//1 116//1
f 99//1 141//1 147//1
f 106//1 148//1 149//1
f 150//1 143//1 151//1
f 152//1 144//1 153//1
f 103//1 154//1 155//1
f 109//1 156//1 110//1
f 117//1 123//1 125//1
f 99//1 157//1 100//1
f 149//1 158//1 107//1
f 150//1 127//1 113//1
f 121//1 153//1 159//1
f 104//1 154//1 160//1
f 110//1 161//1 132//1
f 118//1 125//1 135//1
f 148//4 162//4 158//4
f 125//5 163//5 135//5
f 158//6 164//6 126//6
f 129//7 165//7 130//7
f 135//8 166//8 136//8
f 126//9 167//9 138//9
f 130//10 168//10 141//10
f 136//11 169//11 144//11
f 138//12 170//12 146//12
f 141//13 171//13 147//13
f 144//14 172//14 153//14
f 146//15 173//15 156//15
f 147//16 174//16 157//16
f 153//17 175//17 159//17
f 156//18 176//18 161//18
f 157//19 177//19 120//19
f 159//20 178//20 129//20
f 161//21 179//21 133//21
f 120//22 180//22 137//22
f 133//23 181//23 143//23
f 137//24 182//24 145//24
f 143//25 183//25 151//25
f 145//26 184//26 154//26
f 151//27 185//27 127//27
f 154//28 186//28 160//28
f 127//29 187//29 128//29
f 160//30 188//30 131//30
f 128//31 189//31 140//31
f 131//32 190//32 142//32
f 140//33 191//33 123//33
f 142//34 192//34 148//34
f 100//1 157//1 120//1
f 123//3 191//3 124//3
f 107//1 158//1 126//1
f 114//1 113//1 127//1
f 97//1 122//1 129//1
f 121//1 159//1 129//1
f 104//1 160//1 131//1
f 132//1 161//1 133//1
f 134//1 118//1 135//1
f 102//1 101//1 120//1
f 108//1 126//1 138//1
f 114//1 128//1 140//1
f 97//1 130//1 141//1
f 105//1 131//1 142//1
f 112//1 111//1 133//1
f 134//1 136//1 144//1
f 102//1 137//1 145//1
f 139//1 138//1 146//1
f 115//1 140//1 123//1
f 99//1 98//1 141//1
f 106//1 142//1 148//1
f 150//1 112//1 143//1
f 152//1 119//1 144//1
f 103//1 145//1 154//1
f 109//1 146//1 156//1
f 117//1 116//1 123//1
f 99//1 147//1 157//1
f 149//1 148//1 158//1
f 150//1 151//1 127//1
f 121//1 152//1 153//1
f 104//1 155//1 154//1
f 110//1 156//1 161//1
f 118//1 117//1 125//1
f 148//4 192//4 162//4
f 125//5 124//5 163//5
f 158//6 162//6 164//6
f 129//7 178//7 165//7
f 135//8 163//8 166//8
f 126//9 164//9 167//9
f 130//10 165//10 168//10
f 136//11 166//11 169//11
f 138//12 167//12 170//12
f 141//13 168//13 171//13
f 144//14 169//14 172//14
f 146//15 170//15 173//15
f 147//16 171//16 174//16
f 153//17 172//17 175//17
f 156//18 173//18 176//18
f 157//19 174//19 177//19
f 159//20 175//20 178//20
f 161//21 176//21 179//21
f 120//22 177//22 180//22
f 133//23 179//23 181//23
f 137//24 180//24 182//24
f 143//25 181//25 183//25
f 145//26 182//26 184//26
f 151//27 183//27 185//27
f 154//28 184//28 186//28
f 127//29 185//29 187//29
f 160//30 186//30 188//30
f 128//31 187//31 189//31
f 131//32 188//32 190//32
f 140//33 189//33 191//33
f 142//34 190//34 192//34
f 18//2 17//2 3//2
f 3//2 16//2 18//2
f 15//2 14//2 11//2
f 13//2 12//2 11//2
f 11//2 6//2 10//2
f 10//2 2//2 11//2
f 9//2 8//2 30//2
f 32//2 31//2 30//2
f 30//2 29//2 26//2
f 28//2 27//2 26//2
f 26//2 1//2 23//2
f 25//2 24//2 23//2
f 23//2 4//2 5//2
f 22//2 21//2 5//2
f 5//2 20//2 18//2
f 19//2 7//2 18//2
f 18//2 16//2 15//2
f 14//2 13//2 11//2
f 11//2 2//2 9//2
f 8//2 32//2 30//2
f 29//2 28//2 26//2
f 1//2 25//2 23//2
f 4//2 22//2 5//2
f 20//2 19//2 18//2
f 18//2 15//2 11//2
f 11//2 9//2 30//2
f 30//2 26//2 23//2
f 23//2 5//2 18//2
f 18//2 11//2 30//2
s 1
f 78//35 57//36 76//36
f 95//37 50//38 84//38
f 71//39 37//40 94//40
f 96//41 77//42 47//42
f 93//43 72//44 54//44
f 61//45 40//46 92//46
f 91//47 51//48 82//48
f 34//49 46//50 89//50
f 76//36 58//51 73//51
f 45//52 81//53 43//53
f 59//54 70//55 56//55
f 68//56 63//57 66//57
f 43//53 83//58 41//58
f 94//40 62//56 68//56
f 92//46 69//54 59//54
f 41//58 85//59 39//59
f 39//59 86//60 36//60
f 82//48 53//61 80//61
f 56//55 38//43 93//43
f 54//44 74//62 52//62
f 47//42 79//52 45//52
f 66//57 44//63 90//63
f 64//64 67//45 61//45
f 80//61 55//35 78//35
f 52//62 75//65 49//65
f 73//51 60//39 71//39
f 36//60 88//49 34//49
f 90//63 65//64 64//64
f 87//66 35//37 95//37
f 84//38 42//47 91//47
f 89//50 48//66 87//66
f 49//65 33//41 96//41
f 78//35 55//35 57//36
f 95//37 35//37 50//38
f 71//39 60//39 37//40
f 96//41 33//41 77//42
f 93//43 38//43 72//44
f 61//45 67//45 40//46
f 91//47 42//47 51//48
f 34//49 88//49 46//50
f 76//36 57//36 58//51
f 45//52 79//52 81//53
f 59//54 69//54 70//55
f 68//56 62//56 63//57
f 43//53 81//53 83//58
f 94//40 37//40 62//56
f 92//46 40//46 69//54
f 41//58 83//58 85//59
f 39//59 85//59 86//60
f 82//48 51//48 53//61
f 56//55 70//55 38//43
f 54//44 72//44 74//62
f 47//42 77//42 79//52
f 66//57 63//57 44//63
f 64//64 65//64 67//45
f 80//61 53//61 55//35
f 52//62 74//62 75//65
f 73//51 58//51 60//39
f 36//60 86//60 88//49
f 90//63 44//63 65//64
f 87//66 48//66 35//37
f 84//38 50//38 42//47
f 89//50 46//50 48//66
f 49//65 75//65 33//41
