# Blender v2.79 (sub 0) OBJ File: ''
# www.blender.org
mtllib track.mtl
o Cylinder_Cylinder.003
v 0.000000 -0.500000 -0.500000
v 0.000000 0.500000 -0.500000
v 0.353553 -0.500000 -0.353553
v 0.353553 0.500000 -0.353553
v 0.500000 -0.500000 0.000000
v 0.500000 0.500000 0.000000
v 0.353553 -0.500000 0.353553
v 0.353553 0.500000 0.353553
v -0.000000 -0.500000 0.500000
v -0.000000 0.500000 0.500000
v -0.353553 -0.500000 0.353553
v -0.353553 0.500000 0.353553
v -0.500000 -0.500000 -0.000000
v -0.500000 0.500000 -0.000000
v -0.353553 -0.500000 -0.353553
v -0.353553 0.500000 -0.353553
v 0.000000 -0.500000 -0.500000
v 0.353553 -0.500000 -0.353553
v 0.500000 -0.500000 0.000000
v 0.353553 -0.500000 0.353553
v -0.000000 -0.500000 0.500000
v -0.353553 -0.500000 0.353553
v -0.500000 -0.500000 -0.000000
v -0.353553 -0.500000 -0.353553
v 0.000000 0.500000 -0.500000
v 0.353553 0.500000 -0.353553
v 0.500000 0.500000 0.000000
v 0.353553 0.500000 0.353553
v -0.000000 0.500000 0.500000
v -0.353553 0.500000 0.353553
v -0.500000 0.500000 -0.000000
v -0.353553 0.500000 -0.353553
vn 0.0000 0.0000 -1.0000
vn 0.7071 0.0000 -0.7071
vn 1.0000 0.0000 0.0000
vn 0.7071 0.0000 0.7071
vn 0.0000 0.0000 1.0000
vn -0.7071 0.0000 0.7071
vn -1.0000 0.0000 0.0000
vn -0.7071 0.0000 -0.7071
vn 0.0000 -1.0000 0.0000
vn 0.0000 1.0000 0.0000
usemtl None
s 1
f 2//1 3//2 1//1
f 4//2 5//3 3//2
f 6//3 7//4 5//3
f 8//4 9//5 7//4
f 10//5 11//6 9//5
f 12//6 13//7 11//6
f 14//7 15//8 13//7
f 16//8 1//1 15//8
f 20//9 22//9 24//9
f 31//10 28//10 27//10
f 2//1 4//2 3//2
f 4//2 6//3 5//3
f 6//3 8//4 7//4
f 8//4 10//5 9//5
f 10//5 12//6 11//6
f 12//6 14//7 13//7
f 14//7 16//8 15//8
f 16//8 2//1 1//1
f 24//9 17//9 18//9
f 18//9 19//9 24//9
f 20//9 21//9 22//9
f 22//9 23//9 24//9
f 24//9 19//9 20//9
f 27//10 26//10 25//10
f 25//10 32//10 27//10
f 31//10 30//10 29//10
f 29//10 28//10 31//10
f 27//10 32//10 31//10
